<svg width="1115" height="946" viewBox="0 0 1115 946" fill="none" xmlns="http://www.w3.org/2000/svg">
<path d="M242.711 392.19L235 392.19" stroke="#3F4550" stroke-miterlimit="10" stroke-linecap="round"/>
<path d="M244.436 359.318L236.768 358.514" stroke="#3F4550" stroke-miterlimit="10" stroke-linecap="round"/>
<path d="M249.593 326.804L242.047 325.203" stroke="#3F4550" stroke-miterlimit="10" stroke-linecap="round"/>
<path d="M258.121 295.009L250.781 292.628" stroke="#3F4550" stroke-miterlimit="10" stroke-linecap="round"/>
<path d="M269.928 264.274L262.881 261.144" stroke="#3F4550" stroke-miterlimit="10" stroke-linecap="round"/>
<path d="M284.886 234.946L278.205 231.091" stroke="#3F4550" stroke-miterlimit="10" stroke-linecap="round"/>
<path d="M302.831 207.341L296.59 202.81" stroke="#3F4550" stroke-miterlimit="10" stroke-linecap="round"/>
<path d="M323.568 181.758L317.839 176.6" stroke="#3F4550" stroke-miterlimit="10" stroke-linecap="round"/>
<path d="M346.866 158.476L341.703 152.752" stroke="#3F4550" stroke-miterlimit="10" stroke-linecap="round"/>
<path d="M372.473 137.765L367.938 131.529" stroke="#3F4550" stroke-miterlimit="10" stroke-linecap="round"/>
<path d="M400.104 119.837L396.252 113.162" stroke="#3F4550" stroke-miterlimit="10" stroke-linecap="round"/>
<path d="M429.466 104.892L426.327 97.8525" stroke="#3F4550" stroke-miterlimit="10" stroke-linecap="round"/>
<path d="M460.224 93.0902L457.841 85.7643" stroke="#3F4550" stroke-miterlimit="10" stroke-linecap="round"/>
<path d="M492.049 84.5707L490.446 77.0377" stroke="#3F4550" stroke-miterlimit="10" stroke-linecap="round"/>
<path d="M524.593 79.4249L523.789 71.7639" stroke="#3F4550" stroke-miterlimit="10" stroke-linecap="round"/>
<path d="M557.503 77.7014L557.503 69.9979" stroke="#3F4550" stroke-miterlimit="10" stroke-linecap="round"/>
<path d="M590.407 79.4248L591.212 71.7638" stroke="#3F4550" stroke-miterlimit="10" stroke-linecap="round"/>
<path d="M622.951 84.5707L624.554 77.0376" stroke="#3F4550" stroke-miterlimit="10" stroke-linecap="round"/>
<path d="M654.776 93.0902L657.159 85.7642" stroke="#3F4550" stroke-miterlimit="10" stroke-linecap="round"/>
<path d="M685.534 104.892L688.673 97.8524" stroke="#3F4550" stroke-miterlimit="10" stroke-linecap="round"/>
<path d="M714.896 119.837L718.749 113.162" stroke="#3F4550" stroke-miterlimit="10" stroke-linecap="round"/>
<path d="M742.528 137.765L747.063 131.529" stroke="#3F4550" stroke-miterlimit="10" stroke-linecap="round"/>
<path d="M768.135 158.476L773.298 152.752" stroke="#3F4550" stroke-miterlimit="10" stroke-linecap="round"/>
<path d="M791.432 181.758L797.162 176.6" stroke="#3F4550" stroke-miterlimit="10" stroke-linecap="round"/>
<path d="M812.169 207.341L818.411 202.81" stroke="#3F4550" stroke-miterlimit="10" stroke-linecap="round"/>
<path d="M830.114 234.946L836.795 231.091" stroke="#3F4550" stroke-miterlimit="10" stroke-linecap="round"/>
<path d="M845.073 264.274L852.119 261.144" stroke="#3F4550" stroke-miterlimit="10" stroke-linecap="round"/>
<path d="M856.88 295.009L864.219 292.628" stroke="#3F4550" stroke-miterlimit="10" stroke-linecap="round"/>
<path d="M865.408 326.804L872.954 325.203" stroke="#3F4550" stroke-miterlimit="10" stroke-linecap="round"/>
<path d="M870.564 359.318L878.233 358.514" stroke="#3F4550" stroke-miterlimit="10" stroke-linecap="round"/>
<path d="M872.29 392.19L880 392.19" stroke="#3F4550" stroke-miterlimit="10" stroke-linecap="round"/>
<path d="M870.564 425.063L878.233 425.873" stroke="#3F4550" stroke-miterlimit="10" stroke-linecap="round"/>
<path d="M865.408 457.576L872.954 459.178" stroke="#3F4550" stroke-miterlimit="10" stroke-linecap="round"/>
<path d="M856.88 489.377L864.219 491.758" stroke="#3F4550" stroke-miterlimit="10" stroke-linecap="round"/>
<path d="M845.073 520.106L852.119 523.242" stroke="#3F4550" stroke-miterlimit="10" stroke-linecap="round"/>
<path d="M830.114 549.435L836.795 553.289" stroke="#3F4550" stroke-miterlimit="10" stroke-linecap="round"/>
<path d="M812.169 577.046L818.411 581.57" stroke="#3F4550" stroke-miterlimit="10" stroke-linecap="round"/>
<path d="M791.432 602.629L797.162 607.781" stroke="#3F4550" stroke-miterlimit="10" stroke-linecap="round"/>
<path d="M768.135 625.904L773.298 631.628" stroke="#3F4550" stroke-miterlimit="10" stroke-linecap="round"/>
<path d="M742.528 646.622L747.063 652.851" stroke="#3F4550" stroke-miterlimit="10" stroke-linecap="round"/>
<path d="M714.896 664.55L718.749 671.218" stroke="#3F4550" stroke-miterlimit="10" stroke-linecap="round"/>
<path d="M685.534 679.494L688.673 686.534" stroke="#3F4550" stroke-miterlimit="10" stroke-linecap="round"/>
<path d="M654.776 691.29L657.159 698.616" stroke="#3F4550" stroke-miterlimit="10" stroke-linecap="round"/>
<path d="M622.951 699.81L624.554 707.349" stroke="#3F4550" stroke-miterlimit="10" stroke-linecap="round"/>
<path d="M590.407 704.962L591.212 712.623" stroke="#3F4550" stroke-miterlimit="10" stroke-linecap="round"/>
<path d="M524.593 704.962L523.789 712.623" stroke="#3F4550" stroke-miterlimit="10" stroke-linecap="round"/>
<path d="M492.049 699.81L490.446 707.349" stroke="#3F4550" stroke-miterlimit="10" stroke-linecap="round"/>
<path d="M460.224 691.29L457.841 698.616" stroke="#3F4550" stroke-miterlimit="10" stroke-linecap="round"/>
<path d="M429.466 679.494L426.327 686.534" stroke="#3F4550" stroke-miterlimit="10" stroke-linecap="round"/>
<path d="M400.104 664.55L396.252 671.218" stroke="#3F4550" stroke-miterlimit="10" stroke-linecap="round"/>
<path d="M372.473 646.622L367.938 652.851" stroke="#3F4550" stroke-miterlimit="10" stroke-linecap="round"/>
<path d="M346.866 625.904L341.703 631.628" stroke="#3F4550" stroke-miterlimit="10" stroke-linecap="round"/>
<path d="M323.568 602.629L317.839 607.781" stroke="#3F4550" stroke-miterlimit="10" stroke-linecap="round"/>
<path d="M302.831 577.046L296.59 581.57" stroke="#3F4550" stroke-miterlimit="10" stroke-linecap="round"/>
<path d="M284.886 549.435L278.206 553.289" stroke="#3F4550" stroke-miterlimit="10" stroke-linecap="round"/>
<path d="M269.928 520.106L262.881 523.242" stroke="#3F4550" stroke-miterlimit="10" stroke-linecap="round"/>
<path d="M258.121 489.377L250.781 491.758" stroke="#3F4550" stroke-miterlimit="10" stroke-linecap="round"/>
<path d="M249.593 457.576L242.047 459.178" stroke="#3F4550" stroke-miterlimit="10" stroke-linecap="round"/>
<path d="M244.436 425.063L236.768 425.873" stroke="#3F4550" stroke-miterlimit="10" stroke-linecap="round"/>
<path d="M242.711 392.19L235 392.19" stroke="#3F4550" stroke-miterlimit="10" stroke-linecap="round"/>
<path d="M344.284 629.505C319.608 635.208 291.808 628.361 273.776 608.087C252.241 583.881 250.856 550.037 267.031 523.834" stroke="#3F4550" stroke-width="1.51" stroke-miterlimit="10"/>
<path d="M269.787 526.308C271.104 524.735 270.896 522.391 269.321 521.072C267.747 519.754 265.404 519.96 264.086 521.533C262.769 523.106 262.978 525.45 264.552 526.769C266.126 528.088 268.47 527.881 269.787 526.308Z" fill="#FFED00"/>
<path d="M347.139 631.891C348.456 630.318 348.247 627.973 346.673 626.655C345.099 625.336 342.755 625.542 341.438 627.115C340.121 628.689 340.33 631.033 341.904 632.351C343.478 633.67 345.822 633.464 347.139 631.891Z" fill="#FFED00"/>
<path d="M793.971 605.729C783.048 624.517 796.724 666.955 804.62 693.772C805.891 698.095 801.705 701.243 797.904 698.817C774.705 683.992 738.682 663.316 717.428 667.697" stroke="#3F4550" stroke-width="1.51" stroke-miterlimit="10"/>
<path d="M720.334 665.365C719.074 663.746 716.738 663.456 715.117 664.717C713.497 665.978 713.204 668.312 714.465 669.931C715.725 671.55 718.06 671.841 719.681 670.58C721.302 669.319 721.594 666.984 720.334 665.365Z" fill="#FFED00"/>
<path d="M796.903 603.439C795.643 601.82 793.307 601.53 791.686 602.791C790.066 604.052 789.773 606.387 791.034 608.006C792.294 609.625 794.629 609.915 796.25 608.654C797.871 607.393 798.163 605.058 796.903 603.439Z" fill="#FFED00"/>
<g opacity="0.5">
<path d="M130.46 392.192L120 392.192" stroke="#3F4550" stroke-miterlimit="10" stroke-linecap="round"/>
<path d="M132.801 347.597L122.398 346.506" stroke="#3F4550" stroke-miterlimit="10" stroke-linecap="round"/>
<path d="M139.796 303.49L129.559 301.317" stroke="#3F4550" stroke-miterlimit="10" stroke-linecap="round"/>
<path d="M151.365 260.357L141.409 257.127" stroke="#3F4550" stroke-miterlimit="10" stroke-linecap="round"/>
<path d="M167.382 218.662L157.823 214.416" stroke="#3F4550" stroke-miterlimit="10" stroke-linecap="round"/>
<path d="M187.675 178.876L178.612 173.646" stroke="#3F4550" stroke-miterlimit="10" stroke-linecap="round"/>
<path d="M212.019 141.427L203.552 135.28" stroke="#3F4550" stroke-miterlimit="10" stroke-linecap="round"/>
<path d="M240.151 106.721L232.378 99.7237" stroke="#3F4550" stroke-miterlimit="10" stroke-linecap="round"/>
<path d="M271.755 75.1379L264.751 67.3722" stroke="#3F4550" stroke-miterlimit="10" stroke-linecap="round"/>
<path d="M306.494 47.0411L300.342 38.5815" stroke="#3F4550" stroke-miterlimit="10" stroke-linecap="round"/>
<path d="M343.978 22.7197L338.752 13.6653" stroke="#3F4550" stroke-miterlimit="10" stroke-linecap="round"/>
<path d="M383.811 2.44623L379.552 -7.10383" stroke="#3F4550" stroke-miterlimit="10" stroke-linecap="round"/>
<path d="M731.189 2.44626L735.448 -7.1038" stroke="#3F4550" stroke-miterlimit="10" stroke-linecap="round"/>
<path d="M771.022 22.7196L776.248 13.6652" stroke="#3F4550" stroke-miterlimit="10" stroke-linecap="round"/>
<path d="M808.506 47.041L814.658 38.5814" stroke="#3F4550" stroke-miterlimit="10" stroke-linecap="round"/>
<path d="M843.245 75.1378L850.249 67.3722" stroke="#3F4550" stroke-miterlimit="10" stroke-linecap="round"/>
<path d="M874.849 106.721L882.622 99.7237" stroke="#3F4550" stroke-miterlimit="10" stroke-linecap="round"/>
<path d="M902.981 141.427L911.449 135.28" stroke="#3F4550" stroke-miterlimit="10" stroke-linecap="round"/>
<path d="M927.325 178.876L936.388 173.646" stroke="#3F4550" stroke-miterlimit="10" stroke-linecap="round"/>
<path d="M947.618 218.662L957.177 214.416" stroke="#3F4550" stroke-miterlimit="10" stroke-linecap="round"/>
<path d="M963.635 260.357L973.591 257.127" stroke="#3F4550" stroke-miterlimit="10" stroke-linecap="round"/>
<path d="M975.204 303.49L985.441 301.317" stroke="#3F4550" stroke-miterlimit="10" stroke-linecap="round"/>
<path d="M982.199 347.597L992.602 346.506" stroke="#3F4550" stroke-miterlimit="10" stroke-linecap="round"/>
<path d="M984.54 392.191L995 392.191" stroke="#3F4550" stroke-miterlimit="10" stroke-linecap="round"/>
<path d="M982.199 436.786L992.602 437.885" stroke="#3F4550" stroke-miterlimit="10" stroke-linecap="round"/>
<path d="M975.204 480.893L985.441 483.066" stroke="#3F4550" stroke-miterlimit="10" stroke-linecap="round"/>
<path d="M963.635 524.034L973.591 527.264" stroke="#3F4550" stroke-miterlimit="10" stroke-linecap="round"/>
<path d="M947.618 565.721L957.177 569.976" stroke="#3F4550" stroke-miterlimit="10" stroke-linecap="round"/>
<path d="M927.325 605.508L936.388 610.737" stroke="#3F4550" stroke-miterlimit="10" stroke-linecap="round"/>
<path d="M902.981 642.964L911.449 649.103" stroke="#3F4550" stroke-miterlimit="10" stroke-linecap="round"/>
<path d="M874.849 677.67L882.622 684.659" stroke="#3F4550" stroke-miterlimit="10" stroke-linecap="round"/>
<path d="M843.245 709.245L850.249 717.011" stroke="#3F4550" stroke-miterlimit="10" stroke-linecap="round"/>
<path d="M808.506 737.35L814.658 745.802" stroke="#3F4550" stroke-miterlimit="10" stroke-linecap="round"/>
<path d="M771.022 761.672L776.248 770.718" stroke="#3F4550" stroke-miterlimit="10" stroke-linecap="round"/>
<path d="M731.189 781.945L735.448 791.495" stroke="#3F4550" stroke-miterlimit="10" stroke-linecap="round"/>
<path d="M689.463 797.947L692.696 807.886" stroke="#3F4550" stroke-miterlimit="10" stroke-linecap="round"/>
<path d="M646.29 809.505L648.465 819.732" stroke="#3F4550" stroke-miterlimit="10" stroke-linecap="round"/>
<path d="M602.141 816.494L603.233 826.887" stroke="#3F4550" stroke-miterlimit="10" stroke-linecap="round"/>
<path d="M512.859 816.494L511.767 826.887" stroke="#3F4550" stroke-miterlimit="10" stroke-linecap="round"/>
<path d="M468.71 809.505L466.535 819.732" stroke="#3F4550" stroke-miterlimit="10" stroke-linecap="round"/>
<path d="M425.537 797.947L422.303 807.886" stroke="#3F4550" stroke-miterlimit="10" stroke-linecap="round"/>
<path d="M383.811 781.945L379.552 791.495" stroke="#3F4550" stroke-miterlimit="10" stroke-linecap="round"/>
<path d="M343.978 761.672L338.752 770.718" stroke="#3F4550" stroke-miterlimit="10" stroke-linecap="round"/>
<path d="M306.494 737.35L300.342 745.802" stroke="#3F4550" stroke-miterlimit="10" stroke-linecap="round"/>
<path d="M271.755 709.245L264.751 717.011" stroke="#3F4550" stroke-miterlimit="10" stroke-linecap="round"/>
<path d="M240.151 677.67L232.378 684.659" stroke="#3F4550" stroke-miterlimit="10" stroke-linecap="round"/>
<path d="M212.019 642.964L203.552 649.103" stroke="#3F4550" stroke-miterlimit="10" stroke-linecap="round"/>
<path d="M187.675 605.508L178.612 610.737" stroke="#3F4550" stroke-miterlimit="10" stroke-linecap="round"/>
<path d="M167.382 565.721L157.823 569.976" stroke="#3F4550" stroke-miterlimit="10" stroke-linecap="round"/>
<path d="M151.365 524.034L141.409 527.264" stroke="#3F4550" stroke-miterlimit="10" stroke-linecap="round"/>
<path d="M139.796 480.893L129.559 483.066" stroke="#3F4550" stroke-miterlimit="10" stroke-linecap="round"/>
<path d="M132.801 436.786L122.398 437.885" stroke="#3F4550" stroke-miterlimit="10" stroke-linecap="round"/>
<path d="M130.46 392.192L120 392.192" stroke="#3F4550" stroke-miterlimit="10" stroke-linecap="round"/>
</g>
<g opacity="0.3">
<path d="M14.3057 392.19L1 392.19" stroke="#3F4550" stroke-miterlimit="10" stroke-linecap="round"/>
<path d="M17.2824 335.466L4.05029 334.078" stroke="#3F4550" stroke-miterlimit="10" stroke-linecap="round"/>
<path d="M26.1809 279.361L13.1592 276.597" stroke="#3F4550" stroke-miterlimit="10" stroke-linecap="round"/>
<path d="M40.896 224.497L28.2319 220.388" stroke="#3F4550" stroke-miterlimit="10" stroke-linecap="round"/>
<path d="M61.2701 171.461L49.1108 166.059" stroke="#3F4550" stroke-miterlimit="10" stroke-linecap="round"/>
<path d="M87.0821 120.852L75.554 114.2" stroke="#3F4550" stroke-miterlimit="10" stroke-linecap="round"/>
<path d="M118.048 73.2174L107.277 65.3991" stroke="#3F4550" stroke-miterlimit="10" stroke-linecap="round"/>
<path d="M153.832 29.0715L143.944 20.1709" stroke="#3F4550" stroke-miterlimit="10" stroke-linecap="round"/>
<path d="M961.168 29.0716L971.055 20.171" stroke="#3F4550" stroke-miterlimit="10" stroke-linecap="round"/>
<path d="M996.952 73.2174L1007.72 65.3991" stroke="#3F4550" stroke-miterlimit="10" stroke-linecap="round"/>
<path d="M1027.92 120.852L1039.45 114.2" stroke="#3F4550" stroke-miterlimit="10" stroke-linecap="round"/>
<path d="M1053.73 171.461L1065.89 166.059" stroke="#3F4550" stroke-miterlimit="10" stroke-linecap="round"/>
<path d="M1074.1 224.497L1086.77 220.388" stroke="#3F4550" stroke-miterlimit="10" stroke-linecap="round"/>
<path d="M1088.82 279.361L1101.84 276.597" stroke="#3F4550" stroke-miterlimit="10" stroke-linecap="round"/>
<path d="M1097.72 335.466L1110.95 334.078" stroke="#3F4550" stroke-miterlimit="10" stroke-linecap="round"/>
<path d="M1100.69 392.19L1114 392.19" stroke="#3F4550" stroke-miterlimit="10" stroke-linecap="round"/>
<path d="M1097.72 448.915L1110.95 450.312" stroke="#3F4550" stroke-miterlimit="10" stroke-linecap="round"/>
<path d="M1088.82 505.019L1101.84 507.783" stroke="#3F4550" stroke-miterlimit="10" stroke-linecap="round"/>
<path d="M1074.1 559.894L1086.77 564.003" stroke="#3F4550" stroke-miterlimit="10" stroke-linecap="round"/>
<path d="M1053.73 612.919L1065.89 618.331" stroke="#3F4550" stroke-miterlimit="10" stroke-linecap="round"/>
<path d="M1027.92 663.528L1039.45 670.18" stroke="#3F4550" stroke-miterlimit="10" stroke-linecap="round"/>
<path d="M996.952 711.173L1007.72 718.981" stroke="#3F4550" stroke-miterlimit="10" stroke-linecap="round"/>
<path d="M961.168 755.319L971.055 764.209" stroke="#3F4550" stroke-miterlimit="10" stroke-linecap="round"/>
<path d="M920.967 795.482L929.876 805.36" stroke="#3F4550" stroke-miterlimit="10" stroke-linecap="round"/>
<path d="M876.779 831.232L884.605 841.982" stroke="#3F4550" stroke-miterlimit="10" stroke-linecap="round"/>
<path d="M829.1 862.169L835.747 873.676" stroke="#3F4550" stroke-miterlimit="10" stroke-linecap="round"/>
<path d="M778.433 887.956L783.85 900.104" stroke="#3F4550" stroke-miterlimit="10" stroke-linecap="round"/>
<path d="M725.357 908.311L729.47 920.953" stroke="#3F4550" stroke-miterlimit="10" stroke-linecap="round"/>
<path d="M670.441 923.013L673.207 936.022" stroke="#3F4550" stroke-miterlimit="10" stroke-linecap="round"/>
<path d="M614.283 931.903L615.672 945.122" stroke="#3F4550" stroke-miterlimit="10" stroke-linecap="round"/>
<path d="M500.717 931.903L499.328 945.122" stroke="#3F4550" stroke-miterlimit="10" stroke-linecap="round"/>
<path d="M444.559 923.013L441.792 936.022" stroke="#3F4550" stroke-miterlimit="10" stroke-linecap="round"/>
<path d="M389.642 908.311L385.53 920.953" stroke="#3F4550" stroke-miterlimit="10" stroke-linecap="round"/>
<path d="M336.567 887.957L331.15 900.104" stroke="#3F4550" stroke-miterlimit="10" stroke-linecap="round"/>
<path d="M285.9 862.169L279.253 873.676" stroke="#3F4550" stroke-miterlimit="10" stroke-linecap="round"/>
<path d="M238.22 831.232L230.395 841.982" stroke="#3F4550" stroke-miterlimit="10" stroke-linecap="round"/>
<path d="M194.033 795.482L185.124 805.36" stroke="#3F4550" stroke-miterlimit="10" stroke-linecap="round"/>
<path d="M153.832 755.319L143.945 764.209" stroke="#3F4550" stroke-miterlimit="10" stroke-linecap="round"/>
<path d="M118.048 711.173L107.277 718.981" stroke="#3F4550" stroke-miterlimit="10" stroke-linecap="round"/>
<path d="M87.0821 663.528L75.554 670.18" stroke="#3F4550" stroke-miterlimit="10" stroke-linecap="round"/>
<path d="M61.2701 612.919L49.1108 618.331" stroke="#3F4550" stroke-miterlimit="10" stroke-linecap="round"/>
<path d="M40.896 559.894L28.2319 564.003" stroke="#3F4550" stroke-miterlimit="10" stroke-linecap="round"/>
<path d="M26.1809 505.019L13.1592 507.783" stroke="#3F4550" stroke-miterlimit="10" stroke-linecap="round"/>
<path d="M17.2824 448.915L4.05029 450.312" stroke="#3F4550" stroke-miterlimit="10" stroke-linecap="round"/>
<path d="M14.3057 392.19L1 392.19" stroke="#3F4550" stroke-miterlimit="10" stroke-linecap="round"/>
</g>
</svg>
