<svg width="77" height="49" viewBox="0 0 77 49" fill="none" xmlns="http://www.w3.org/2000/svg">
<path d="M76.2887 0H0V48.5864H76.2887V0Z" fill="white"/>
<path d="M74.8299 1.3313H1.47241V47.1822H74.8299V1.3313Z" fill="#174492"/>
<path d="M36.5798 11.3236L38.1309 10.2639L39.6819 11.3236L39.0904 9.61086L40.6545 8.55115H38.7223L38.1309 6.81372L37.5394 8.55115H35.6072L37.1713 9.61086L36.5798 11.3236Z" fill="#FFEA00"/>
<path d="M28.5759 13.3331L30.1269 12.2733L31.6648 13.3331L31.0733 11.6326L32.6506 10.5729H30.7184L30.1138 8.83545L29.5223 10.5729H27.5901L29.1542 11.6326L28.5759 13.3331Z" fill="#FFEA00"/>
<path d="M24.2641 14.3428L23.6595 16.0802L21.7273 16.0679L23.3046 17.1276L22.7131 18.8404L24.2641 17.793L25.802 18.8404L25.2105 17.1276L26.7878 16.0679H24.8556L24.2641 14.3428Z" fill="#FFEA00"/>
<path d="M22.1088 25.2852L23.6599 26.3449L23.0684 24.6321L24.6457 23.5724H22.7003L22.1088 21.835L21.5174 23.5847L19.572 23.5724L21.1493 24.6321L20.5578 26.3449L22.1088 25.2852Z" fill="#FFEA00"/>
<path d="M24.8556 31.1014L24.2641 29.364L23.6595 31.1014H21.7273L23.3046 32.1612L22.7131 33.8739L24.2641 32.8142L25.802 33.8739L25.2236 32.1612L26.7878 31.1014H24.8556Z" fill="#FFEA00"/>
<path d="M30.7308 36.5967L30.1262 34.8716L29.5347 36.609L27.6025 36.5967L29.1667 37.6687L28.5884 39.3692L30.1262 38.3095L31.6772 39.3692L31.0989 37.6687L32.663 36.5967H30.7308Z" fill="#FFEA00"/>
<path d="M38.7223 38.5929L38.1309 36.8555L37.5394 38.5929H35.6072L37.1713 39.6526L36.5798 41.3654L38.1309 40.3057L39.6819 41.3654L39.0904 39.6526L40.6677 38.5929H38.7223Z" fill="#FFEA00"/>
<path d="M46.7279 36.5967L46.1364 34.8716L45.5449 36.609L43.5996 36.5967L45.1769 37.6687L44.5854 39.3692L46.1364 38.3095L47.6874 39.3692L47.096 37.6687L48.6601 36.5967H46.7279Z" fill="#FFEA00"/>
<path d="M52.6027 31.1014L52.0112 29.364L51.4066 31.1014H49.4744L51.0517 32.1612L50.4602 33.8739L52.0112 32.8142L53.5491 33.8739L52.9707 32.1612L54.5349 31.1014H52.6027Z" fill="#FFEA00"/>
<path d="M56.6645 23.5479H54.7323L54.1277 21.8228L53.5362 23.5602L51.604 23.5479L53.1682 24.6199L52.5898 26.3204L54.1277 25.2606L55.6787 26.3204L55.0872 24.6199L56.6645 23.5479Z" fill="#FFEA00"/>
<path d="M50.4602 18.8278L52.0112 17.7681L53.5491 18.8278L52.9707 17.115L54.5349 16.0553H52.6027L52.0112 14.3179L51.4066 16.0553H49.4744L51.0517 17.115L50.4602 18.8278Z" fill="#FFEA00"/>
<path d="M46.1621 8.83545L45.5574 10.5729H43.6252L45.1894 11.6326L44.6111 13.3454L46.1621 12.2733L47.6999 13.3454L47.1084 11.6326L48.6857 10.5729H46.7536L46.1621 8.83545Z" fill="#FFEA00"/>
</svg>
