<svg width="1115" height="978" viewBox="0 0 1115 978" fill="none" xmlns="http://www.w3.org/2000/svg">
<path d="M242.711 423.969L235 423.969" stroke="#3F4550" stroke-miterlimit="10" stroke-linecap="round"/>
<path d="M244.436 391.097L236.768 390.293" stroke="#3F4550" stroke-miterlimit="10" stroke-linecap="round"/>
<path d="M249.593 358.583L242.047 356.982" stroke="#3F4550" stroke-miterlimit="10" stroke-linecap="round"/>
<path d="M258.121 326.788L250.781 324.407" stroke="#3F4550" stroke-miterlimit="10" stroke-linecap="round"/>
<path d="M269.928 296.053L262.881 292.923" stroke="#3F4550" stroke-miterlimit="10" stroke-linecap="round"/>
<path d="M284.886 266.725L278.205 262.87" stroke="#3F4550" stroke-miterlimit="10" stroke-linecap="round"/>
<path d="M302.831 239.12L296.59 234.589" stroke="#3F4550" stroke-miterlimit="10" stroke-linecap="round"/>
<path d="M323.568 213.537L317.839 208.379" stroke="#3F4550" stroke-miterlimit="10" stroke-linecap="round"/>
<path d="M346.866 190.255L341.703 184.531" stroke="#3F4550" stroke-miterlimit="10" stroke-linecap="round"/>
<path d="M372.473 169.544L367.938 163.308" stroke="#3F4550" stroke-miterlimit="10" stroke-linecap="round"/>
<path d="M400.104 151.616L396.252 144.941" stroke="#3F4550" stroke-miterlimit="10" stroke-linecap="round"/>
<path d="M429.466 136.671L426.327 129.631" stroke="#3F4550" stroke-miterlimit="10" stroke-linecap="round"/>
<path d="M460.224 124.869L457.841 117.543" stroke="#3F4550" stroke-miterlimit="10" stroke-linecap="round"/>
<path d="M492.049 116.35L490.446 108.817" stroke="#3F4550" stroke-miterlimit="10" stroke-linecap="round"/>
<path d="M524.593 111.204L523.789 103.543" stroke="#3F4550" stroke-miterlimit="10" stroke-linecap="round"/>
<path d="M557.503 109.48L557.503 101.777" stroke="#3F4550" stroke-miterlimit="10" stroke-linecap="round"/>
<path d="M590.407 111.204L591.212 103.543" stroke="#3F4550" stroke-miterlimit="10" stroke-linecap="round"/>
<path d="M622.951 116.35L624.554 108.817" stroke="#3F4550" stroke-miterlimit="10" stroke-linecap="round"/>
<path d="M654.776 124.869L657.159 117.543" stroke="#3F4550" stroke-miterlimit="10" stroke-linecap="round"/>
<path d="M685.534 136.671L688.673 129.631" stroke="#3F4550" stroke-miterlimit="10" stroke-linecap="round"/>
<path d="M714.896 151.616L718.749 144.941" stroke="#3F4550" stroke-miterlimit="10" stroke-linecap="round"/>
<path d="M742.528 169.544L747.063 163.308" stroke="#3F4550" stroke-miterlimit="10" stroke-linecap="round"/>
<path d="M768.135 190.255L773.298 184.531" stroke="#3F4550" stroke-miterlimit="10" stroke-linecap="round"/>
<path d="M791.432 213.537L797.162 208.379" stroke="#3F4550" stroke-miterlimit="10" stroke-linecap="round"/>
<path d="M812.169 239.12L818.411 234.589" stroke="#3F4550" stroke-miterlimit="10" stroke-linecap="round"/>
<path d="M830.114 266.725L836.795 262.87" stroke="#3F4550" stroke-miterlimit="10" stroke-linecap="round"/>
<path d="M845.073 296.053L852.119 292.923" stroke="#3F4550" stroke-miterlimit="10" stroke-linecap="round"/>
<path d="M856.88 326.788L864.219 324.407" stroke="#3F4550" stroke-miterlimit="10" stroke-linecap="round"/>
<path d="M865.407 358.583L872.954 356.981" stroke="#3F4550" stroke-miterlimit="10" stroke-linecap="round"/>
<path d="M870.564 391.096L878.233 390.293" stroke="#3F4550" stroke-miterlimit="10" stroke-linecap="round"/>
<path d="M872.289 423.969L880 423.969" stroke="#3F4550" stroke-miterlimit="10" stroke-linecap="round"/>
<path d="M870.564 456.842L878.233 457.652" stroke="#3F4550" stroke-miterlimit="10" stroke-linecap="round"/>
<path d="M865.407 489.355L872.954 490.957" stroke="#3F4550" stroke-miterlimit="10" stroke-linecap="round"/>
<path d="M856.88 521.156L864.219 523.537" stroke="#3F4550" stroke-miterlimit="10" stroke-linecap="round"/>
<path d="M845.073 551.885L852.119 555.021" stroke="#3F4550" stroke-miterlimit="10" stroke-linecap="round"/>
<path d="M830.114 581.214L836.795 585.068" stroke="#3F4550" stroke-miterlimit="10" stroke-linecap="round"/>
<path d="M812.169 608.825L818.411 613.349" stroke="#3F4550" stroke-miterlimit="10" stroke-linecap="round"/>
<path d="M791.432 634.408L797.162 639.56" stroke="#3F4550" stroke-miterlimit="10" stroke-linecap="round"/>
<path d="M768.135 657.683L773.298 663.407" stroke="#3F4550" stroke-miterlimit="10" stroke-linecap="round"/>
<path d="M742.528 678.4L747.063 684.63" stroke="#3F4550" stroke-miterlimit="10" stroke-linecap="round"/>
<path d="M714.896 696.329L718.749 702.997" stroke="#3F4550" stroke-miterlimit="10" stroke-linecap="round"/>
<path d="M685.534 711.273L688.673 718.313" stroke="#3F4550" stroke-miterlimit="10" stroke-linecap="round"/>
<path d="M654.776 723.069L657.159 730.395" stroke="#3F4550" stroke-miterlimit="10" stroke-linecap="round"/>
<path d="M622.951 731.589L624.554 739.128" stroke="#3F4550" stroke-miterlimit="10" stroke-linecap="round"/>
<path d="M590.407 736.741L591.212 744.402" stroke="#3F4550" stroke-miterlimit="10" stroke-linecap="round"/>
<path d="M524.593 736.741L523.789 744.402" stroke="#3F4550" stroke-miterlimit="10" stroke-linecap="round"/>
<path d="M492.049 731.589L490.446 739.128" stroke="#3F4550" stroke-miterlimit="10" stroke-linecap="round"/>
<path d="M460.224 723.069L457.841 730.395" stroke="#3F4550" stroke-miterlimit="10" stroke-linecap="round"/>
<path d="M429.466 711.273L426.327 718.313" stroke="#3F4550" stroke-miterlimit="10" stroke-linecap="round"/>
<path d="M400.104 696.329L396.252 702.997" stroke="#3F4550" stroke-miterlimit="10" stroke-linecap="round"/>
<path d="M372.473 678.4L367.938 684.63" stroke="#3F4550" stroke-miterlimit="10" stroke-linecap="round"/>
<path d="M346.866 657.683L341.703 663.407" stroke="#3F4550" stroke-miterlimit="10" stroke-linecap="round"/>
<path d="M323.568 634.408L317.839 639.56" stroke="#3F4550" stroke-miterlimit="10" stroke-linecap="round"/>
<path d="M302.831 608.825L296.59 613.349" stroke="#3F4550" stroke-miterlimit="10" stroke-linecap="round"/>
<path d="M284.886 581.214L278.206 585.068" stroke="#3F4550" stroke-miterlimit="10" stroke-linecap="round"/>
<path d="M269.928 551.885L262.881 555.021" stroke="#3F4550" stroke-miterlimit="10" stroke-linecap="round"/>
<path d="M258.121 521.156L250.781 523.537" stroke="#3F4550" stroke-miterlimit="10" stroke-linecap="round"/>
<path d="M249.593 489.355L242.047 490.957" stroke="#3F4550" stroke-miterlimit="10" stroke-linecap="round"/>
<path d="M244.436 456.842L236.768 457.652" stroke="#3F4550" stroke-miterlimit="10" stroke-linecap="round"/>
<path d="M242.711 423.969L235 423.969" stroke="#3F4550" stroke-miterlimit="10" stroke-linecap="round"/>
<path d="M344.284 661.284C319.608 666.986 291.808 660.14 273.776 639.866C252.241 615.66 250.856 581.816 267.031 555.613" stroke="#3F4550" stroke-width="1.51" stroke-miterlimit="10"/>
<path d="M269.787 558.087C271.104 556.514 270.896 554.17 269.321 552.851C267.747 551.532 265.404 551.739 264.086 553.312C262.769 554.885 262.978 557.229 264.552 558.548C266.126 559.866 268.47 559.66 269.787 558.087Z" fill="#FFED00"/>
<path d="M347.139 663.67C348.456 662.097 348.247 659.752 346.673 658.434C345.099 657.115 342.755 657.321 341.438 658.894C340.121 660.467 340.33 662.812 341.904 664.13C343.478 665.449 345.822 665.243 347.139 663.67Z" fill="#FFED00"/>
<path d="M793.971 637.508C783.048 656.296 796.724 698.734 804.62 725.551C805.891 729.874 801.705 733.022 797.904 730.596C774.705 715.771 738.682 695.095 717.428 699.476" stroke="#3F4550" stroke-width="1.51" stroke-miterlimit="10"/>
<path d="M720.334 697.144C719.074 695.525 716.738 695.235 715.117 696.496C713.497 697.757 713.204 700.091 714.465 701.71C715.725 703.329 718.06 703.619 719.681 702.358C721.302 701.098 721.594 698.763 720.334 697.144Z" fill="#FFED00"/>
<path d="M796.903 635.218C795.643 633.599 793.307 633.309 791.686 634.57C790.066 635.831 789.773 638.166 791.034 639.785C792.294 641.404 794.629 641.694 796.25 640.433C797.871 639.172 798.163 636.837 796.903 635.218Z" fill="#FFED00"/>
<g opacity="0.5">
<path d="M130.46 423.971L120 423.971" stroke="#3F4550" stroke-miterlimit="10" stroke-linecap="round"/>
<path d="M132.801 379.376L122.398 378.285" stroke="#3F4550" stroke-miterlimit="10" stroke-linecap="round"/>
<path d="M139.796 335.268L129.559 333.096" stroke="#3F4550" stroke-miterlimit="10" stroke-linecap="round"/>
<path d="M151.365 292.136L141.409 288.906" stroke="#3F4550" stroke-miterlimit="10" stroke-linecap="round"/>
<path d="M167.382 250.441L157.823 246.195" stroke="#3F4550" stroke-miterlimit="10" stroke-linecap="round"/>
<path d="M187.675 210.655L178.612 205.425" stroke="#3F4550" stroke-miterlimit="10" stroke-linecap="round"/>
<path d="M212.019 173.206L203.552 167.059" stroke="#3F4550" stroke-miterlimit="10" stroke-linecap="round"/>
<path d="M240.151 138.5L232.378 131.503" stroke="#3F4550" stroke-miterlimit="10" stroke-linecap="round"/>
<path d="M271.755 106.917L264.751 99.1512" stroke="#3F4550" stroke-miterlimit="10" stroke-linecap="round"/>
<path d="M306.494 78.8201L300.342 70.3605" stroke="#3F4550" stroke-miterlimit="10" stroke-linecap="round"/>
<path d="M343.978 54.4987L338.752 45.4443" stroke="#3F4550" stroke-miterlimit="10" stroke-linecap="round"/>
<path d="M383.811 34.2252L379.552 24.6752" stroke="#3F4550" stroke-miterlimit="10" stroke-linecap="round"/>
<path d="M425.537 18.2148L422.303 8.27647" stroke="#3F4550" stroke-miterlimit="10" stroke-linecap="round"/>
<path d="M468.71 6.65735L466.535 -3.56192" stroke="#3F4550" stroke-miterlimit="10" stroke-linecap="round"/>
<path d="M512.859 -0.323486L511.767 -10.7163" stroke="#3F4550" stroke-miterlimit="10" stroke-linecap="round"/>
<path d="M602.141 -0.323486L603.233 -10.7163" stroke="#3F4550" stroke-miterlimit="10" stroke-linecap="round"/>
<path d="M646.29 6.65735L648.465 -3.56192" stroke="#3F4550" stroke-miterlimit="10" stroke-linecap="round"/>
<path d="M689.463 18.2148L692.696 8.27647" stroke="#3F4550" stroke-miterlimit="10" stroke-linecap="round"/>
<path d="M731.189 34.2253L735.448 24.6752" stroke="#3F4550" stroke-miterlimit="10" stroke-linecap="round"/>
<path d="M771.022 54.4987L776.248 45.4443" stroke="#3F4550" stroke-miterlimit="10" stroke-linecap="round"/>
<path d="M808.506 78.8201L814.658 70.3605" stroke="#3F4550" stroke-miterlimit="10" stroke-linecap="round"/>
<path d="M843.244 106.917L850.248 99.1512" stroke="#3F4550" stroke-miterlimit="10" stroke-linecap="round"/>
<path d="M874.849 138.5L882.622 131.503" stroke="#3F4550" stroke-miterlimit="10" stroke-linecap="round"/>
<path d="M902.981 173.206L911.449 167.059" stroke="#3F4550" stroke-miterlimit="10" stroke-linecap="round"/>
<path d="M927.325 210.654L936.388 205.425" stroke="#3F4550" stroke-miterlimit="10" stroke-linecap="round"/>
<path d="M947.618 250.441L957.177 246.195" stroke="#3F4550" stroke-miterlimit="10" stroke-linecap="round"/>
<path d="M963.635 292.136L973.591 288.906" stroke="#3F4550" stroke-miterlimit="10" stroke-linecap="round"/>
<path d="M975.203 335.268L985.441 333.096" stroke="#3F4550" stroke-miterlimit="10" stroke-linecap="round"/>
<path d="M982.199 379.376L992.602 378.285" stroke="#3F4550" stroke-miterlimit="10" stroke-linecap="round"/>
<path d="M984.54 423.97L995 423.97" stroke="#3F4550" stroke-miterlimit="10" stroke-linecap="round"/>
<path d="M982.199 468.565L992.602 469.664" stroke="#3F4550" stroke-miterlimit="10" stroke-linecap="round"/>
<path d="M975.203 512.672L985.441 514.845" stroke="#3F4550" stroke-miterlimit="10" stroke-linecap="round"/>
<path d="M963.635 555.813L973.591 559.043" stroke="#3F4550" stroke-miterlimit="10" stroke-linecap="round"/>
<path d="M947.618 597.5L957.177 601.755" stroke="#3F4550" stroke-miterlimit="10" stroke-linecap="round"/>
<path d="M927.325 637.287L936.388 642.516" stroke="#3F4550" stroke-miterlimit="10" stroke-linecap="round"/>
<path d="M902.981 674.743L911.449 680.882" stroke="#3F4550" stroke-miterlimit="10" stroke-linecap="round"/>
<path d="M874.849 709.449L882.622 716.438" stroke="#3F4550" stroke-miterlimit="10" stroke-linecap="round"/>
<path d="M843.244 741.024L850.248 748.79" stroke="#3F4550" stroke-miterlimit="10" stroke-linecap="round"/>
<path d="M808.506 769.129L814.658 777.581" stroke="#3F4550" stroke-miterlimit="10" stroke-linecap="round"/>
<path d="M771.022 793.451L776.248 802.497" stroke="#3F4550" stroke-miterlimit="10" stroke-linecap="round"/>
<path d="M731.189 813.724L735.448 823.274" stroke="#3F4550" stroke-miterlimit="10" stroke-linecap="round"/>
<path d="M689.463 829.726L692.696 839.665" stroke="#3F4550" stroke-miterlimit="10" stroke-linecap="round"/>
<path d="M646.29 841.284L648.465 851.511" stroke="#3F4550" stroke-miterlimit="10" stroke-linecap="round"/>
<path d="M602.141 848.273L603.233 858.666" stroke="#3F4550" stroke-miterlimit="10" stroke-linecap="round"/>
<path d="M512.859 848.273L511.767 858.666" stroke="#3F4550" stroke-miterlimit="10" stroke-linecap="round"/>
<path d="M468.71 841.284L466.535 851.511" stroke="#3F4550" stroke-miterlimit="10" stroke-linecap="round"/>
<path d="M425.537 829.726L422.303 839.665" stroke="#3F4550" stroke-miterlimit="10" stroke-linecap="round"/>
<path d="M383.811 813.724L379.552 823.274" stroke="#3F4550" stroke-miterlimit="10" stroke-linecap="round"/>
<path d="M343.978 793.451L338.752 802.497" stroke="#3F4550" stroke-miterlimit="10" stroke-linecap="round"/>
<path d="M306.494 769.129L300.342 777.581" stroke="#3F4550" stroke-miterlimit="10" stroke-linecap="round"/>
<path d="M271.755 741.024L264.751 748.79" stroke="#3F4550" stroke-miterlimit="10" stroke-linecap="round"/>
<path d="M240.151 709.449L232.378 716.439" stroke="#3F4550" stroke-miterlimit="10" stroke-linecap="round"/>
<path d="M212.019 674.743L203.552 680.882" stroke="#3F4550" stroke-miterlimit="10" stroke-linecap="round"/>
<path d="M187.675 637.287L178.612 642.516" stroke="#3F4550" stroke-miterlimit="10" stroke-linecap="round"/>
<path d="M167.382 597.5L157.823 601.755" stroke="#3F4550" stroke-miterlimit="10" stroke-linecap="round"/>
<path d="M151.365 555.813L141.409 559.043" stroke="#3F4550" stroke-miterlimit="10" stroke-linecap="round"/>
<path d="M139.796 512.672L129.559 514.845" stroke="#3F4550" stroke-miterlimit="10" stroke-linecap="round"/>
<path d="M132.801 468.565L122.398 469.664" stroke="#3F4550" stroke-miterlimit="10" stroke-linecap="round"/>
<path d="M130.46 423.971L120 423.971" stroke="#3F4550" stroke-miterlimit="10" stroke-linecap="round"/>
</g>
<g opacity="0.3">
<path d="M14.3057 423.969L1 423.969" stroke="#3F4550" stroke-miterlimit="10" stroke-linecap="round"/>
<path d="M17.2824 367.245L4.05029 365.857" stroke="#3F4550" stroke-miterlimit="10" stroke-linecap="round"/>
<path d="M26.1809 311.14L13.1592 308.376" stroke="#3F4550" stroke-miterlimit="10" stroke-linecap="round"/>
<path d="M40.896 256.276L28.2319 252.167" stroke="#3F4550" stroke-miterlimit="10" stroke-linecap="round"/>
<path d="M61.2701 203.24L49.1108 197.838" stroke="#3F4550" stroke-miterlimit="10" stroke-linecap="round"/>
<path d="M87.0821 152.631L75.554 145.979" stroke="#3F4550" stroke-miterlimit="10" stroke-linecap="round"/>
<path d="M118.048 104.996L107.277 97.1781" stroke="#3F4550" stroke-miterlimit="10" stroke-linecap="round"/>
<path d="M153.832 60.8505L143.944 51.9499" stroke="#3F4550" stroke-miterlimit="10" stroke-linecap="round"/>
<path d="M194.033 20.6768L185.124 10.7989" stroke="#3F4550" stroke-miterlimit="10" stroke-linecap="round"/>
<path d="M920.967 20.6767L929.876 10.7988" stroke="#3F4550" stroke-miterlimit="10" stroke-linecap="round"/>
<path d="M961.168 60.8505L971.055 51.9499" stroke="#3F4550" stroke-miterlimit="10" stroke-linecap="round"/>
<path d="M996.952 104.996L1007.72 97.178" stroke="#3F4550" stroke-miterlimit="10" stroke-linecap="round"/>
<path d="M1027.92 152.631L1039.45 145.979" stroke="#3F4550" stroke-miterlimit="10" stroke-linecap="round"/>
<path d="M1053.73 203.24L1065.89 197.838" stroke="#3F4550" stroke-miterlimit="10" stroke-linecap="round"/>
<path d="M1074.1 256.276L1086.77 252.167" stroke="#3F4550" stroke-miterlimit="10" stroke-linecap="round"/>
<path d="M1088.82 311.14L1101.84 308.376" stroke="#3F4550" stroke-miterlimit="10" stroke-linecap="round"/>
<path d="M1097.72 367.245L1110.95 365.857" stroke="#3F4550" stroke-miterlimit="10" stroke-linecap="round"/>
<path d="M1100.69 423.969L1114 423.969" stroke="#3F4550" stroke-miterlimit="10" stroke-linecap="round"/>
<path d="M1097.72 480.693L1110.95 482.091" stroke="#3F4550" stroke-miterlimit="10" stroke-linecap="round"/>
<path d="M1088.82 536.798L1101.84 539.562" stroke="#3F4550" stroke-miterlimit="10" stroke-linecap="round"/>
<path d="M1074.1 591.673L1086.77 595.782" stroke="#3F4550" stroke-miterlimit="10" stroke-linecap="round"/>
<path d="M1053.73 644.698L1065.89 650.11" stroke="#3F4550" stroke-miterlimit="10" stroke-linecap="round"/>
<path d="M1027.92 695.307L1039.45 701.959" stroke="#3F4550" stroke-miterlimit="10" stroke-linecap="round"/>
<path d="M996.952 742.952L1007.72 750.76" stroke="#3F4550" stroke-miterlimit="10" stroke-linecap="round"/>
<path d="M961.168 787.098L971.055 795.988" stroke="#3F4550" stroke-miterlimit="10" stroke-linecap="round"/>
<path d="M920.967 827.261L929.876 837.139" stroke="#3F4550" stroke-miterlimit="10" stroke-linecap="round"/>
<path d="M876.779 863.011L884.605 873.761" stroke="#3F4550" stroke-miterlimit="10" stroke-linecap="round"/>
<path d="M829.1 893.948L835.747 905.454" stroke="#3F4550" stroke-miterlimit="10" stroke-linecap="round"/>
<path d="M778.433 919.735L783.85 931.883" stroke="#3F4550" stroke-miterlimit="10" stroke-linecap="round"/>
<path d="M725.357 940.09L729.47 952.732" stroke="#3F4550" stroke-miterlimit="10" stroke-linecap="round"/>
<path d="M670.441 954.791L673.207 967.801" stroke="#3F4550" stroke-miterlimit="10" stroke-linecap="round"/>
<path d="M614.283 963.682L615.672 976.901" stroke="#3F4550" stroke-miterlimit="10" stroke-linecap="round"/>
<path d="M500.717 963.682L499.328 976.901" stroke="#3F4550" stroke-miterlimit="10" stroke-linecap="round"/>
<path d="M444.559 954.792L441.792 967.801" stroke="#3F4550" stroke-miterlimit="10" stroke-linecap="round"/>
<path d="M389.642 940.09L385.53 952.732" stroke="#3F4550" stroke-miterlimit="10" stroke-linecap="round"/>
<path d="M336.567 919.735L331.15 931.883" stroke="#3F4550" stroke-miterlimit="10" stroke-linecap="round"/>
<path d="M285.9 893.948L279.253 905.454" stroke="#3F4550" stroke-miterlimit="10" stroke-linecap="round"/>
<path d="M238.22 863.011L230.395 873.761" stroke="#3F4550" stroke-miterlimit="10" stroke-linecap="round"/>
<path d="M194.033 827.261L185.124 837.139" stroke="#3F4550" stroke-miterlimit="10" stroke-linecap="round"/>
<path d="M153.832 787.098L143.945 795.988" stroke="#3F4550" stroke-miterlimit="10" stroke-linecap="round"/>
<path d="M118.048 742.952L107.277 750.76" stroke="#3F4550" stroke-miterlimit="10" stroke-linecap="round"/>
<path d="M87.0821 695.307L75.554 701.959" stroke="#3F4550" stroke-miterlimit="10" stroke-linecap="round"/>
<path d="M61.2701 644.698L49.1108 650.11" stroke="#3F4550" stroke-miterlimit="10" stroke-linecap="round"/>
<path d="M40.896 591.673L28.2319 595.782" stroke="#3F4550" stroke-miterlimit="10" stroke-linecap="round"/>
<path d="M26.1809 536.798L13.1592 539.562" stroke="#3F4550" stroke-miterlimit="10" stroke-linecap="round"/>
<path d="M17.2824 480.694L4.05029 482.091" stroke="#3F4550" stroke-miterlimit="10" stroke-linecap="round"/>
<path d="M14.3057 423.969L1 423.969" stroke="#3F4550" stroke-miterlimit="10" stroke-linecap="round"/>
</g>
</svg>
