<svg width="150" height="75" viewBox="0 0 150 75" fill="none" xmlns="http://www.w3.org/2000/svg">
<g clip-path="url(#clip0_298_3717)">
<path d="M28.0951 43.8805C27.5133 43.6545 27.3375 43.2519 27.5702 42.6727L32.7672 29.8156C32.987 29.3324 33.3283 29.0909 33.7937 29.0909H33.8376C34.3108 29.1117 34.6314 29.3532 34.7995 29.8156L40.0844 42.6727C40.3171 43.2493 40.149 43.6519 39.5828 43.8805C39.0088 44.1065 38.608 43.9402 38.3805 43.3766L37.2015 40.5039H30.3988L29.2741 43.3766C29.0491 43.948 28.6561 44.1143 28.0951 43.8805ZM31.1202 38.6597H36.4491L33.7316 32.013L31.1228 38.6597H31.1202Z" fill="white"/>
<path d="M43.6681 43.9688C43.3553 43.9688 43.1226 43.8935 42.9752 43.7429C42.8252 43.5922 42.7502 43.361 42.7502 43.0468V30.0364C42.7502 29.7143 42.8252 29.4805 42.9752 29.3351C43.1252 29.1896 43.3553 29.1169 43.6681 29.1169C43.981 29.1169 44.2214 29.1896 44.3662 29.3351C44.511 29.4805 44.5834 29.7143 44.5834 30.0364V43.0468C44.5834 43.361 44.511 43.5922 44.3662 43.7429C44.2214 43.8935 43.9887 43.9688 43.6681 43.9688Z" fill="white"/>
<path d="M56.6347 43.9688C55.4557 43.9688 54.5791 43.6831 54.0051 43.1117C53.4337 42.5403 53.1467 41.6649 53.1467 40.4857V38.413C53.1467 37.2156 53.4337 36.3325 54.0051 35.7636C54.5766 35.1948 55.4531 34.9117 56.6347 34.9117H58.0929C59.2797 34.9117 60.1562 35.1974 60.7251 35.7688C61.2939 36.3403 61.5783 37.2234 61.5783 38.413V40.4675C61.5783 41.6519 61.2939 42.5325 60.7251 43.1065C60.1562 43.6805 59.2771 43.9688 58.0929 43.9688H56.6347ZM54.6412 40.4857C54.6412 41.2545 54.7808 41.7766 55.0601 42.0545C55.3393 42.3325 55.8642 42.4701 56.6347 42.4701H58.0929C58.8686 42.4701 59.3961 42.3299 59.6727 42.0493C59.9494 41.7688 60.0864 41.2416 60.0864 40.4675V38.413C60.0864 37.6338 59.9494 37.1039 59.6727 36.826C59.3961 36.548 58.8712 36.4104 58.0929 36.4104H56.6347C56.1176 36.4104 55.7168 36.4675 55.4298 36.5844C55.1428 36.7013 54.9385 36.9039 54.8196 37.1922C54.7007 37.4805 54.6412 37.8883 54.6412 38.4104V40.4831V40.4857Z" fill="#0047BB"/>
<path d="M65.1181 43.9688C64.6217 43.9688 64.3708 43.7194 64.3708 43.2182V35.6597C64.3708 35.1584 64.6191 34.9091 65.1181 34.9091C65.6171 34.9091 65.8653 35.1584 65.8653 35.6597V35.9558C66.4936 35.2597 67.4193 34.9117 68.6396 34.9117H69.1387C70.3254 34.9117 71.202 35.1974 71.7708 35.7688C72.3396 36.3402 72.624 37.2233 72.624 38.413V43.2207C72.624 43.722 72.3758 43.9714 71.8768 43.9714C71.3778 43.9714 71.1296 43.722 71.1296 43.2207V38.413C71.1296 37.6337 70.9874 37.1039 70.7081 36.8259C70.4263 36.548 69.904 36.4104 69.1387 36.4104H68.6396C67.9286 36.4104 67.3081 36.4935 66.7806 36.6571C66.2532 36.8207 65.9481 37.0779 65.8653 37.4311V43.2207C65.8653 43.722 65.6171 43.9714 65.1181 43.9714V43.9688Z" fill="#0047BB"/>
<path d="M81.5185 43.9688C81.0195 43.9688 80.7712 43.7195 80.7712 43.2182V32.6026C80.7712 32.1013 81.0195 31.8519 81.5185 31.8519H85.8054C87.3541 31.8519 88.4918 32.2208 89.2235 32.9558C89.9552 33.6909 90.3224 34.8363 90.3224 36.3922V39.4311C90.3224 40.987 89.9604 42.1299 89.2338 42.8675C88.5073 43.6026 87.3645 43.9714 85.8054 43.9714H81.5185V43.9688ZM82.2657 42.4675H85.8054C86.5629 42.4675 87.1654 42.374 87.6049 42.187C88.0471 42 88.3599 41.6831 88.5487 41.2389C88.7348 40.7948 88.8305 40.1922 88.8305 39.4286V36.3896C88.8305 35.6337 88.7374 35.0337 88.5487 34.5896C88.3625 34.1454 88.0471 33.8286 87.6049 33.6389C87.1628 33.4493 86.5629 33.3532 85.8054 33.3532H82.2657V42.4675Z" fill="white"/>
<path d="M94.1825 40.0571V40.4857C94.1825 41.2545 94.3221 41.7766 94.6013 42.0545C94.8806 42.3325 95.4054 42.4701 96.1759 42.4701H97.6342C98.2392 42.4701 98.6865 42.413 98.9761 42.3013C99.2657 42.187 99.4596 41.9896 99.5553 41.7039C99.6199 41.4779 99.7104 41.3039 99.8268 41.187C99.9431 41.0675 100.119 41.0078 100.357 41.0078C100.595 41.0078 100.796 41.0727 100.926 41.2052C101.055 41.3351 101.096 41.5273 101.05 41.7766C100.92 42.5143 100.569 43.0675 100 43.4286C99.4312 43.7922 98.6426 43.974 97.6342 43.974H96.1759C94.9969 43.974 94.1204 43.6883 93.5464 43.1169C92.975 42.5455 92.688 41.6701 92.688 40.4909V38.4182C92.688 37.2078 92.975 36.3195 93.5464 35.7506C94.1178 35.1818 94.9943 34.9039 96.1759 34.9143H97.6342C98.821 34.9143 99.6975 35.2 100.266 35.7662C100.835 36.3351 101.12 37.2182 101.12 38.4156V39.3091C101.12 39.8104 100.871 40.0597 100.372 40.0597H94.1825V40.0571ZM96.1759 36.413C95.4054 36.4 94.8806 36.5351 94.6013 36.8156C94.3221 37.0961 94.1825 37.6286 94.1825 38.4156V38.5584H99.6251V38.4156C99.6251 37.6364 99.4881 37.1065 99.2114 36.8286C98.9348 36.5506 98.4099 36.413 97.6316 36.413H96.1733H96.1759Z" fill="white"/>
<path d="M113.784 34.9091C114.903 34.9091 115.71 35.174 116.199 35.7039C116.687 36.2337 116.933 37.1117 116.933 38.3402V43.2181C116.933 43.7194 116.685 43.9688 116.186 43.9688C115.687 43.9688 115.439 43.7194 115.439 43.2181V38.3402C115.439 37.6623 115.309 37.1688 115.051 36.8649C114.792 36.561 114.371 36.4104 113.784 36.4104H113.055C112.38 36.4104 111.896 36.561 111.604 36.8649C111.315 37.1688 111.17 37.6597 111.17 38.3402V43.2181C111.17 43.7194 110.922 43.9688 110.423 43.9688C109.923 43.9688 109.675 43.7194 109.675 43.2181V38.3402C109.675 37.6623 109.546 37.1688 109.287 36.8649C109.029 36.561 108.607 36.4104 108.02 36.4104H107.291C106.617 36.4104 106.133 36.561 105.841 36.8649C105.551 37.1688 105.404 37.6597 105.404 38.3402V43.2181C105.404 43.7194 105.156 43.9688 104.657 43.9688C104.158 43.9688 103.909 43.7194 103.909 43.2181V35.6597C103.909 35.1584 104.158 34.9091 104.657 34.9091C105.156 34.9091 105.404 35.1584 105.404 35.6597V36.0701C105.719 35.6597 106.063 35.3636 106.441 35.1818C106.818 35 107.266 34.9091 107.788 34.9091H108.018C108.752 34.9091 109.331 35.013 109.753 35.2181C110.174 35.4233 110.495 35.7558 110.712 36.2156C111.028 35.7454 111.361 35.4104 111.713 35.2104C112.064 35.0104 112.512 34.9117 113.052 34.9117H113.781L113.784 34.9091Z" fill="white"/>
<path d="M122.394 43.9688C121.398 43.9688 120.656 43.7246 120.17 43.2363C119.684 42.748 119.441 42.0026 119.441 41.0026C119.441 40.0026 119.682 39.2571 120.165 38.7688C120.649 38.2805 121.391 38.0363 122.394 38.0363H126.156C126.12 37.4104 125.957 36.9844 125.667 36.7532C125.378 36.5246 124.879 36.4104 124.173 36.4104H123.141C122.549 36.4104 122.107 36.4493 121.815 36.5298C121.525 36.6104 121.321 36.7558 121.202 36.9636C121.096 37.213 120.985 37.387 120.874 37.4831C120.762 37.5792 120.592 37.6259 120.367 37.6259C120.119 37.6259 119.922 37.5558 119.78 37.4156C119.638 37.2753 119.596 37.0883 119.656 36.8571C119.834 36.1844 120.206 35.6909 120.773 35.3792C121.339 35.0675 122.13 34.9091 123.144 34.9091H124.175C125.362 34.9091 126.239 35.1948 126.807 35.7662C127.376 36.3376 127.661 37.2207 127.661 38.4104V43.2181C127.661 43.7194 127.413 43.9688 126.913 43.9688C126.414 43.9688 126.166 43.7194 126.166 43.2181V42.8156C125.53 43.5844 124.607 43.9688 123.392 43.9688H122.396H122.394ZM122.394 42.4675H123.389C123.829 42.4675 124.24 42.4285 124.625 42.348C125.011 42.2675 125.341 42.1194 125.618 41.9065C125.892 41.6909 126.076 41.3844 126.166 40.987V39.5402H122.396C121.81 39.5402 121.419 39.6389 121.225 39.8337C121.034 40.0311 120.936 40.4207 120.936 41.0052C120.936 41.5896 121.031 41.987 121.225 42.1792C121.419 42.374 121.807 42.4701 122.396 42.4701L122.394 42.4675Z" fill="white"/>
<path d="M131.446 43.9688C130.95 43.9688 130.699 43.7194 130.699 43.2182V35.6597C130.699 35.1584 130.947 34.9091 131.446 34.9091C131.945 34.9091 132.193 35.1584 132.193 35.6597V35.9558C132.821 35.2597 133.747 34.9117 134.968 34.9117H135.467C136.653 34.9117 137.53 35.1974 138.099 35.7688C138.667 36.3402 138.952 37.2233 138.952 38.413V43.2207C138.952 43.722 138.704 43.9714 138.205 43.9714C137.706 43.9714 137.457 43.722 137.457 43.2207V38.413C137.457 37.6337 137.315 37.1039 137.036 36.8259C136.754 36.548 136.232 36.4104 135.467 36.4104H134.968C134.256 36.4104 133.636 36.4935 133.108 36.6571C132.581 36.8207 132.276 37.0779 132.193 37.4311V43.2207C132.193 43.722 131.945 43.9714 131.446 43.9714V43.9688Z" fill="white"/>
<path d="M145.054 43.9688C143.875 43.9688 142.998 43.6805 142.424 43.1065C141.853 42.5325 141.566 41.652 141.566 40.4675V38.413C141.566 37.2208 141.853 36.3403 142.424 35.7688C142.996 35.1974 143.872 34.9117 145.054 34.9117H148.503V32.1429C148.503 31.6416 148.751 31.3922 149.25 31.3922C149.749 31.3922 149.997 31.6416 149.997 32.1429V43.2208C149.997 43.7221 149.749 43.9714 149.25 43.9714C148.751 43.9714 148.503 43.7221 148.503 43.2208V43.0961C148.224 43.3818 147.859 43.6 147.409 43.7481C146.959 43.8961 146.398 43.9714 145.729 43.9714H145.054V43.9688ZM145.054 42.4675H145.729C146.512 42.4675 147.169 42.3662 147.704 42.1636C148.239 41.961 148.506 41.652 148.506 41.2338V36.4104H145.056C144.286 36.4104 143.761 36.5507 143.482 36.8338C143.203 37.1169 143.063 37.6416 143.063 38.4104V40.4649C143.063 41.239 143.205 41.7662 143.484 42.0468C143.766 42.3273 144.289 42.4675 145.054 42.4675Z" fill="white"/>
<path d="M63.551 63.1429C63.8122 62.8805 63.8199 62.452 63.5562 62.1896L53.1337 51.7169C52.8726 51.4546 52.4356 51.4546 52.1848 51.7169C51.9237 51.9792 51.9159 52.4078 52.1796 52.6701L62.6021 63.1429C62.734 63.2753 62.9072 63.3403 63.0804 63.3403C63.2537 63.3403 63.4269 63.2753 63.5536 63.1429H63.551Z" fill="#C5C6C8"/>
<path d="M55.9287 69.0208C56.2494 68.8338 56.3579 68.4208 56.1744 68.0987L48.8003 55.2701C48.6064 54.9454 48.1927 54.8364 47.8824 55.0234C47.5618 55.2104 47.4532 55.6234 47.6368 55.9454L55.0109 68.774C55.1376 68.9896 55.3625 69.1117 55.5926 69.1117C55.709 69.1117 55.8227 69.0831 55.9287 69.0208Z" fill="#C5C6C8"/>
<path d="M47.0474 72.7143C47.4042 72.6182 47.6188 72.2467 47.5257 71.8883L43.7094 57.5818C43.6085 57.2208 43.2207 57.0026 42.8846 57.1039C42.5278 57.2 42.3132 57.5714 42.4063 57.9299L46.2226 72.2363C46.3053 72.5402 46.5742 72.7377 46.8741 72.7377C46.931 72.7377 46.9905 72.7299 47.0474 72.7143Z" fill="#C5C6C8"/>
<path d="M38.189 73.2987V58.4883C38.189 58.1169 37.8891 57.813 37.5167 57.813C37.1444 57.813 36.8445 58.1169 36.8445 58.4883V73.2987C36.8445 73.6701 37.1444 73.974 37.5167 73.974C37.8891 73.974 38.189 73.6701 38.189 73.2987Z" fill="#C5C6C8"/>
<path d="M28.8138 72.2363L32.6301 57.9298C32.7258 57.5714 32.5086 57.2 32.1518 57.1039C31.7949 57.013 31.4278 57.2208 31.327 57.5818L27.5106 71.8883C27.415 72.2467 27.6322 72.6182 27.989 72.7143C28.0459 72.7299 28.1053 72.7376 28.1622 72.7376C28.4621 72.7376 28.7284 72.5402 28.8138 72.2363Z" fill="#C5C6C8"/>
<path d="M20.028 68.774L27.3969 55.9454C27.5805 55.6208 27.4693 55.2104 27.1513 55.0233C26.8333 54.8363 26.417 54.948 26.2334 55.2701L18.8645 68.0987C18.6809 68.4233 18.7921 68.8337 19.1101 69.0208C19.2161 69.0805 19.3299 69.1117 19.4462 69.1117C19.6764 69.1117 19.9039 68.9896 20.028 68.774Z" fill="#C5C6C8"/>
<path d="M12.4391 63.1429L22.8616 52.6701C23.1227 52.4078 23.1176 51.9792 22.8564 51.7169C22.6056 51.4546 22.1687 51.4546 21.9075 51.7169L11.485 62.1896C11.2239 62.452 11.2291 62.8805 11.4902 63.1429C11.6169 63.2753 11.7901 63.3403 11.9634 63.3403C12.1366 63.3403 12.3098 63.2753 12.4417 63.1429H12.4391Z" fill="#C5C6C8"/>
<path d="M6.54929 55.7299L19.3195 48.3247C19.6401 48.1377 19.7487 47.7247 19.5651 47.4026C19.3764 47.078 18.9575 46.9689 18.6472 47.1559L5.87704 54.5611C5.55642 54.7481 5.44783 55.1611 5.63141 55.4831C5.7581 55.6987 5.98305 55.8208 6.21316 55.8208C6.32951 55.8208 6.44328 55.7922 6.54929 55.7299Z" fill="#C5C6C8"/>
<path d="M37.5167 16.161C37.1444 16.161 36.8445 15.8571 36.8445 15.4857V0.675325C36.8445 0.303896 37.1444 0 37.5167 0C37.8891 0 38.189 0.303896 38.189 0.675325V15.4857C38.189 15.8571 37.8891 16.161 37.5167 16.161Z" fill="#C5C6C8"/>
<path d="M43.7093 16.3922L47.5256 2.08574C47.6213 1.72729 47.4041 1.35587 47.0473 1.25976C46.6853 1.16366 46.3233 1.37924 46.2225 1.73768L42.4061 16.0442C42.3105 16.4026 42.5277 16.774 42.8845 16.8702C42.9414 16.8857 43.0008 16.8935 43.0577 16.8935C43.3576 16.8935 43.624 16.6961 43.7093 16.3922Z" fill="#C5C6C8"/>
<path d="M48.8002 18.7039L56.1743 5.87533C56.3579 5.55325 56.2467 5.14026 55.9287 4.95325C55.6081 4.77143 55.1995 4.87533 55.0108 5.2L47.6367 18.0286C47.4531 18.3507 47.5643 18.7636 47.8823 18.9507C47.9883 19.0104 48.1021 19.0416 48.2185 19.0416C48.4486 19.0416 48.6761 18.9195 48.8002 18.7039Z" fill="#C5C6C8"/>
<path d="M53.1313 22.2598L63.5537 11.787C63.8149 11.5247 63.8097 11.0961 63.5486 10.8338C63.2978 10.5714 62.8608 10.5714 62.5997 10.8338L52.1772 21.3065C51.916 21.5688 51.9212 21.9974 52.1823 22.2598C52.309 22.3922 52.4823 22.4572 52.6555 22.4572C52.8287 22.4572 53.002 22.3922 53.1338 22.2598H53.1313Z" fill="#C5C6C8"/>
<path d="M56.3916 26.8208L69.1618 19.4156C69.4824 19.2286 69.591 18.8156 69.4074 18.4935C69.2135 18.1688 68.805 18.0597 68.4895 18.2468L55.7193 25.652C55.3987 25.839 55.2901 26.252 55.4737 26.574C55.6004 26.7896 55.8253 26.9117 56.0554 26.9117C56.1718 26.9117 56.2856 26.8831 56.3916 26.8208Z" fill="#C5C6C8"/>
<path d="M2.77695 47.0364L17.0158 43.2026C17.3726 43.1065 17.5872 42.7351 17.4941 42.3767C17.3933 42.013 17.0054 41.7948 16.6693 41.8987L2.43048 45.7325C2.07367 45.8286 1.85907 46.2 1.95215 46.5585C2.03489 46.8624 2.30379 47.0598 2.60372 47.0598C2.6606 47.0598 2.72007 47.052 2.77695 47.0364Z" fill="#C5C6C8"/>
<path d="M16.7907 36.987C16.7907 36.6156 16.4907 36.3117 16.1184 36.3117H1.37025C0.997926 36.3117 0.697998 36.6156 0.697998 36.987C0.697998 37.3585 0.997926 37.6624 1.37025 37.6624H16.1184C16.4907 37.6624 16.7907 37.3585 16.7907 36.987Z" fill="#C5C6C8"/>
<path d="M17.494 31.5948C17.5897 31.2364 17.3725 30.8649 17.0156 30.7688L2.77685 26.9351C2.43038 26.8441 2.05805 27.0519 1.95205 27.413C1.85638 27.7714 2.07357 28.1428 2.43038 28.2389L16.6692 32.0727C16.7261 32.0883 16.7855 32.0961 16.8424 32.0961C17.1423 32.0961 17.4087 31.8987 17.494 31.5948Z" fill="#C5C6C8"/>
<path d="M19.5677 26.574C19.7513 26.2519 19.6401 25.8389 19.3221 25.6519L6.5519 18.2467C6.23129 18.0597 5.82277 18.1714 5.63402 18.4935C5.45044 18.8156 5.56162 19.2286 5.87965 19.4156L18.6498 26.8208C18.7558 26.8805 18.8696 26.9117 18.986 26.9117C19.2161 26.9117 19.4436 26.7896 19.5677 26.574Z" fill="#C5C6C8"/>
<path d="M22.8564 22.2598C23.1176 21.9974 23.1253 21.5688 22.8616 21.3065L12.4391 10.8338C12.178 10.5714 11.741 10.5714 11.4902 10.8338C11.2291 11.0961 11.2213 11.5247 11.485 11.787L21.9075 22.2598C22.0394 22.3922 22.2126 22.4572 22.3859 22.4572C22.5591 22.4572 22.7323 22.3922 22.859 22.2598H22.8564Z" fill="#C5C6C8"/>
<path d="M27.1511 18.9532C27.4717 18.7662 27.5803 18.3558 27.3967 18.0312L20.0278 5.20259C19.8339 4.87532 19.4254 4.77402 19.1099 4.95584C18.7893 5.14285 18.6807 5.55324 18.8643 5.87791L26.2332 18.7065C26.3599 18.9221 26.5849 19.0441 26.815 19.0441C26.9313 19.0441 27.0451 19.0156 27.1511 18.9532Z" fill="#C5C6C8"/>
<path d="M32.1516 16.8701C32.5084 16.774 32.723 16.4026 32.63 16.0442L28.8136 1.73768C28.7128 1.37404 28.3301 1.15326 27.9888 1.25975C27.632 1.35586 27.4174 1.72729 27.5105 2.08573L31.3268 16.3922C31.4096 16.6961 31.6785 16.8935 31.9784 16.8935C32.0353 16.8935 32.0947 16.8857 32.1516 16.8701Z" fill="#C5C6C8"/>
<path d="M43.0603 17.2182C42.9776 17.2182 42.8871 17.2078 42.8043 17.1844C42.2743 17.0416 41.9588 16.4935 42.101 15.961L44.0738 8.55325C44.216 8.02338 44.7564 7.69611 45.2916 7.84676C45.8217 7.98962 46.1371 8.53767 45.9949 9.07014L44.0221 16.4779C43.9006 16.9247 43.5024 17.2182 43.0629 17.2182H43.0603ZM49.0795 18.8649L52.0555 13.6883C52.3296 13.2104 52.1667 12.6026 51.6935 12.3247C51.2152 12.0442 50.6076 12.213 50.3335 12.6909L47.3575 17.8675C47.0835 18.3455 47.2463 18.9533 47.7195 19.2312C47.8772 19.3247 48.0505 19.3662 48.2185 19.3662C48.5598 19.3662 48.896 19.187 49.0795 18.8649ZM53.2785 22.413L56.5286 19.1507C56.8751 18.8026 56.8751 18.239 56.5338 17.8909C56.1873 17.5429 55.6262 17.5429 55.2798 17.8909L52.0297 21.1533C51.6832 21.5013 51.6832 22.0649 52.0245 22.413C52.1977 22.587 52.4279 22.6727 52.6554 22.6727C52.8829 22.6727 53.1079 22.587 53.2811 22.413H53.2785ZM56.4691 26.961L59.4658 25.2234C59.864 24.9922 60.001 24.4805 59.7709 24.0805C59.546 23.6831 59.0366 23.5403 58.6384 23.774L55.6417 25.5117C55.2436 25.7429 55.1065 26.2546 55.3366 26.6546C55.4892 26.9247 55.7658 27.0701 56.0554 27.0701C56.1976 27.0701 56.3398 27.0364 56.4691 26.9585V26.961ZM64.3888 63.9818C65.1127 63.2546 65.1127 62.0727 64.3888 61.3455L53.9663 50.8727C53.2423 50.1455 52.0659 50.1455 51.3419 50.8727C50.618 51.6 50.618 52.7818 51.3419 53.5091L61.7644 63.9818C62.1264 64.3455 62.6047 64.5273 63.0753 64.5273C63.5459 64.5273 64.0242 64.3455 64.3862 63.9818H64.3888ZM56.495 70C57.356 69.5013 57.6507 68.3948 57.1517 67.5299L49.7776 54.7013C49.2786 53.8286 48.1616 53.5351 47.3162 54.039C46.4552 54.5377 46.1604 55.6442 46.6594 56.5091L54.0335 69.3377C54.3645 69.9169 54.9721 70.2416 55.5926 70.2416C55.9029 70.2416 56.2131 70.1663 56.495 70ZM47.3265 73.7559C48.2599 73.5065 48.8106 72.5429 48.5598 71.6078L44.7435 57.3013C44.503 56.3688 43.5671 55.8208 42.6078 56.0598C41.6744 56.3091 41.1237 57.2727 41.3745 58.2078L45.1908 72.5143C45.3951 73.2987 46.1035 73.8156 46.8766 73.8156C47.024 73.8156 47.1765 73.7948 47.3291 73.7559H47.3265ZM39.2129 73.2961V58.4857C39.2129 57.5481 38.4528 56.7844 37.5168 56.7844C36.5808 56.7844 35.8207 57.5455 35.8207 58.4857V73.2961C35.8207 74.2338 36.5808 74.9974 37.5168 74.9974C38.4528 74.9974 39.2129 74.2364 39.2129 73.2961ZM29.7497 72.4857L33.566 58.1792C33.7962 57.2987 33.2764 56.3974 32.4051 56.1637C31.5389 55.9299 30.6366 56.4494 30.3961 57.3273L26.5798 71.6338C26.3497 72.5143 26.8694 73.4156 27.7407 73.6494C27.8829 73.6883 28.0251 73.7065 28.1647 73.7065C28.8887 73.7065 29.5506 73.2208 29.7497 72.4857ZM20.8217 69.226L28.1906 56.3974C28.625 55.6364 28.3638 54.6598 27.6088 54.2234C26.8487 53.787 25.8817 54.039 25.4421 54.8052L18.0732 67.6338C17.6388 68.3948 17.9 69.3714 18.655 69.8078C18.9058 69.9533 19.1747 70.0208 19.4488 70.0208C19.9943 70.0208 20.5295 69.7351 20.8243 69.2234L20.8217 69.226ZM13.0443 63.7481L23.4667 53.2753C24.064 52.6753 24.064 51.6987 23.4667 51.0987C22.8695 50.4987 21.9025 50.4987 21.3052 51.0987L10.8827 61.5714C10.2854 62.1714 10.2854 63.1481 10.8827 63.7481C11.1826 64.0494 11.5705 64.2 11.9635 64.2C12.3565 64.2 12.7443 64.0494 13.0443 63.7481ZM6.95522 56.4234L19.7254 49.0182C20.4287 48.6078 20.6743 47.7013 20.2658 46.987C19.8573 46.2753 18.9549 46.0364 18.2439 46.4442L5.47368 53.8494C4.7704 54.2598 4.52477 55.1662 4.93329 55.8805C5.20736 56.3559 5.70379 56.6208 6.21315 56.6208C6.46396 56.6208 6.71734 56.5585 6.95263 56.4234H6.95522ZM2.97083 47.7611L17.2096 43.9273C17.9698 43.7247 18.4223 42.9377 18.218 42.1766C18.0138 41.413 17.2148 40.9481 16.4753 41.1636L2.23653 44.9974C1.47637 45.2 1.02389 45.987 1.22815 46.7481C1.39621 47.3896 1.9728 47.8104 2.60368 47.8104C2.7252 47.8104 2.84931 47.7948 2.97083 47.7611ZM17.4889 36.9818C17.4889 36.2234 16.8735 35.6052 16.1185 35.6052H1.37036C0.615369 35.6052 0 36.2234 0 36.9818C0 37.7403 0.615369 38.3585 1.37036 38.3585H16.1185C16.8735 38.3585 17.4889 37.7403 17.4889 36.9818ZM18.1146 31.7584C18.3033 31.052 17.8896 30.3273 17.1864 30.1377L2.94756 26.3039C2.20809 26.1195 1.52032 26.5377 1.33675 27.239C1.148 27.9455 1.56169 28.6701 2.26497 28.8597L16.5038 32.6935C16.6201 32.7221 16.7339 32.7377 16.8451 32.7377C17.4268 32.7377 17.9569 32.3481 18.1146 31.7559V31.7584ZM20.077 26.8649C20.4287 26.2572 20.2193 25.4805 19.6142 25.1299L6.84145 17.7273C6.23384 17.374 5.46075 17.5818 5.11945 18.1922C4.76781 18.8 4.97725 19.5766 5.58227 19.9273L18.355 27.3299C18.5541 27.4468 18.7687 27.4987 18.9859 27.4987C19.4203 27.4987 19.8469 27.2727 20.077 26.8649ZM23.2418 22.6364C23.715 22.161 23.715 21.3922 23.2418 20.9169L13.4735 11.1013C13.0003 10.626 12.235 10.626 11.7618 11.1013C11.2887 11.5766 11.2887 12.3455 11.7618 12.8208L21.5301 22.6364C21.7654 22.8727 22.0757 22.9922 22.386 22.9922C22.6962 22.9922 23.0065 22.8727 23.2418 22.6364ZM27.3942 19.3636C27.945 19.0442 28.1337 18.3325 27.8183 17.7792L21.5043 6.79221C21.1785 6.23637 20.4701 6.04676 19.9245 6.36884C19.3738 6.68832 19.185 7.40001 19.5005 7.95325L25.8145 18.9403C26.0291 19.3117 26.4169 19.5195 26.8177 19.5195C27.0168 19.5195 27.2107 19.4701 27.3942 19.3636ZM32.2655 17.2805C32.8524 17.1221 33.204 16.5143 33.0463 15.9221L30.1867 5.18962C30.029 4.60001 29.4265 4.25715 28.837 4.4078C28.2501 4.56624 27.8984 5.17403 28.0562 5.76624L30.9158 16.4987C31.0477 16.9922 31.4924 17.3195 31.9811 17.3195C32.0767 17.3195 32.1698 17.3065 32.2655 17.2831V17.2805ZM38.5691 15.4779V6.06234C38.5691 5.48053 38.096 5.0104 37.5194 5.0104C36.9428 5.0104 36.4696 5.48053 36.4696 6.06234V15.4857C36.4696 16.0675 36.9428 16.5377 37.5194 16.5377C38.096 16.5377 38.5691 16.0675 38.5691 15.4857V15.4779Z" fill="url(#paint0_linear_298_3717)"/>
<path d="M80.7838 53.8259C80.67 53.8259 80.6157 53.7688 80.6157 53.6571V49.8779C80.6157 49.7662 80.6726 49.7091 80.7838 49.7091C80.895 49.7091 80.9493 49.7662 80.9493 49.8779V51.7143L82.8393 49.7688C82.9169 49.6909 82.9919 49.6883 83.072 49.7662C83.1548 49.8441 83.1573 49.922 83.0772 50.0052L81.6525 51.4727L83.328 53.561C83.3978 53.6493 83.3901 53.7272 83.3047 53.7974C83.2168 53.8675 83.1393 53.8597 83.072 53.774L81.4173 51.7143L80.9467 52.1974V53.6571C80.9467 53.7688 80.8924 53.8259 80.7812 53.8259H80.7838Z" fill="white"/>
<path d="M84.1607 53.8259C84.0496 53.8259 83.9927 53.7688 83.9927 53.6571V50.974C83.9927 50.8623 84.0496 50.8077 84.1607 50.8077C84.2719 50.8077 84.3262 50.8623 84.3262 50.974V51.2805C84.5279 50.9662 84.8925 50.8077 85.4199 50.8077H85.5983C85.9939 50.8077 86.2835 50.8986 86.4671 51.0831C86.6507 51.2675 86.7412 51.5584 86.7412 51.9558V53.6545C86.7412 53.7662 86.6869 53.8233 86.5757 53.8233C86.4645 53.8233 86.4076 53.7662 86.4076 53.6545V51.9558C86.4076 51.6519 86.3481 51.4389 86.2292 51.3194C86.1103 51.1999 85.8982 51.1402 85.5983 51.1402H85.4199C85.0915 51.1402 84.833 51.1922 84.6442 51.2961C84.4555 51.3999 84.3495 51.5636 84.3262 51.7844V53.6545C84.3262 53.7662 84.2719 53.8233 84.1607 53.8233V53.8259Z" fill="white"/>
<path d="M88.8096 53.8259C88.414 53.8259 88.1218 53.735 87.9383 53.5506C87.7547 53.3662 87.6616 53.0753 87.6616 52.6805V51.9584C87.6616 51.5558 87.7547 51.2623 87.9383 51.0779C88.1218 50.8935 88.414 50.8026 88.8096 50.8078H89.3319C89.7275 50.8078 90.0197 50.8987 90.2007 51.0831C90.3842 51.2675 90.4747 51.5584 90.4747 51.9558V52.6701C90.4747 53.0675 90.3842 53.361 90.2007 53.5454C90.0171 53.7298 89.7275 53.8234 89.3319 53.8234H88.8096V53.8259ZM87.9952 52.6779C87.9952 52.9792 88.0546 53.1896 88.1761 53.3091C88.2977 53.4285 88.5071 53.4909 88.8096 53.4909H89.3319C89.6344 53.4909 89.8464 53.4311 89.9654 53.3091C90.0843 53.1896 90.1438 52.9766 90.1438 52.6727V51.9584C90.1438 51.6545 90.0843 51.4415 89.9654 51.3221C89.8464 51.2026 89.6344 51.1428 89.3319 51.1428H88.8096C88.6054 51.1428 88.445 51.1662 88.3261 51.2156C88.2072 51.2675 88.1219 51.3532 88.0727 51.4701C88.021 51.5896 87.9952 51.7506 87.9952 51.9558V52.6779Z" fill="white"/>
<path d="M91.9846 53.8259C91.8838 53.8259 91.8191 53.7792 91.7907 53.6883L90.8935 51.0337C90.8573 50.9246 90.8935 50.8545 90.9995 50.8208C91.1029 50.7896 91.1727 50.8234 91.2064 50.9272L92.0777 53.4935H91.9432L92.7758 50.9766C92.8042 50.8883 92.8689 50.8415 92.9671 50.8415C93.0654 50.8415 93.1197 50.8883 93.1481 50.9792L93.9264 53.4857H93.7868L94.7021 50.9272C94.7434 50.8182 94.8158 50.7844 94.9192 50.8208C95.0253 50.8623 95.0589 50.9324 95.0201 51.0389L94.0376 53.6909C94.004 53.7818 93.9367 53.8285 93.8411 53.8285C93.7325 53.8285 93.6652 53.7818 93.6368 53.6909L92.9154 51.3688H92.9801L92.1863 53.6909C92.1682 53.7454 92.1423 53.7792 92.1061 53.8C92.0699 53.8182 92.0286 53.8285 91.9846 53.8285V53.8259Z" fill="white"/>
<path d="M96.5275 53.8259C96.2276 53.8259 96.0052 53.7558 95.8656 53.6156C95.7234 53.4753 95.6536 53.2545 95.6536 52.9532V49.561C95.6536 49.4493 95.7104 49.3948 95.8216 49.3948C95.9328 49.3948 95.9871 49.4493 95.9871 49.561V52.9532C95.9871 53.1584 96.0259 53.3013 96.1009 53.3766C96.1758 53.4519 96.3181 53.4909 96.5249 53.4909C96.6387 53.4909 96.6981 53.5454 96.6981 53.6571C96.6981 53.7688 96.6438 53.8259 96.5301 53.8259H96.5275Z" fill="white"/>
<path d="M97.5022 52.4467V52.6805C97.5022 52.9818 97.5617 53.1922 97.6832 53.3117C97.8022 53.4311 98.0142 53.4935 98.3167 53.4935H98.839C99.1053 53.4935 99.3018 53.4597 99.4233 53.3896C99.5449 53.3194 99.6172 53.2 99.6405 53.0311C99.6483 52.9766 99.6664 52.9376 99.6922 52.9091C99.7181 52.8805 99.7595 52.8675 99.8138 52.8675C99.8681 52.8675 99.912 52.8831 99.9404 52.9143C99.9689 52.9454 99.9792 52.9896 99.9741 53.0441C99.9456 53.3117 99.8396 53.5117 99.6535 53.6389C99.4673 53.7662 99.1958 53.8311 98.839 53.8311H98.3167C97.9211 53.8311 97.6289 53.7402 97.4454 53.5558C97.2618 53.3714 97.1687 53.0805 97.1687 52.6857V51.9636C97.1687 51.561 97.2618 51.2675 97.4454 51.0831C97.6289 50.8987 97.9211 50.8078 98.3167 50.813H98.839C99.2346 50.813 99.5242 50.9039 99.7077 51.0883C99.8913 51.2727 99.9818 51.5636 99.9818 51.961V52.2805C99.9818 52.3922 99.9275 52.4493 99.8163 52.4493H97.5022V52.4467ZM98.3167 51.1428C98.0142 51.1376 97.8022 51.1974 97.6832 51.3169C97.5643 51.4363 97.5022 51.6519 97.5022 51.9584V52.1117H99.6483V51.9584C99.6483 51.6545 99.5888 51.4415 99.4699 51.322C99.3509 51.2026 99.1389 51.1428 98.8364 51.1428H98.3141H98.3167Z" fill="white"/>
<path d="M102.019 53.826C101.624 53.826 101.332 53.7325 101.148 53.5481C100.964 53.3636 100.871 53.0701 100.871 52.6727V51.9584C100.871 51.561 100.964 51.2701 101.148 51.0857C101.332 50.9013 101.624 50.8104 102.019 50.8104H103.351V49.5636C103.351 49.4519 103.408 49.3974 103.519 49.3974C103.63 49.3974 103.684 49.4519 103.684 49.5636V53.6597C103.684 53.7714 103.63 53.8286 103.519 53.8286C103.408 53.8286 103.351 53.7714 103.351 53.6597V53.3844C103.26 53.5325 103.126 53.6416 102.95 53.7169C102.774 53.7922 102.544 53.8286 102.26 53.8286H102.019V53.826ZM102.019 53.4909H102.26C102.591 53.4909 102.854 53.439 103.054 53.3325C103.253 53.226 103.351 53.0675 103.351 52.8571V51.1403H102.019C101.717 51.1403 101.505 51.2 101.386 51.3221C101.267 51.4442 101.205 51.6545 101.205 51.9558V52.6701C101.205 52.974 101.264 53.187 101.386 53.3065C101.507 53.426 101.717 53.4883 102.019 53.4883V53.4909Z" fill="white"/>
<path d="M105.422 55.1038C105.171 55.1038 104.98 55.0519 104.851 54.948C104.719 54.8441 104.641 54.6831 104.618 54.4597C104.613 54.4051 104.623 54.361 104.654 54.3298C104.685 54.2986 104.724 54.2831 104.778 54.2831C104.833 54.2831 104.871 54.296 104.9 54.3246C104.928 54.3532 104.946 54.3948 104.954 54.4493C104.97 54.5714 105.014 54.6571 105.083 54.7012C105.156 54.7454 105.269 54.7688 105.425 54.7688H106.606C106.792 54.7688 106.919 54.735 106.986 54.6675C107.054 54.5999 107.087 54.4727 107.087 54.2831V53.3688C106.989 53.5168 106.852 53.6311 106.673 53.709C106.495 53.787 106.27 53.8259 105.996 53.8259H105.753C105.357 53.8259 105.065 53.735 104.882 53.5506C104.698 53.3662 104.605 53.0753 104.605 52.6805V51.9584C104.605 51.5558 104.695 51.2649 104.879 51.0805C105.063 50.8961 105.352 50.8077 105.753 50.8077H106.275C106.482 50.8077 106.653 50.8363 106.782 50.8909C106.911 50.9454 107.012 51.0337 107.087 51.1506V50.974C107.087 50.8623 107.144 50.8077 107.255 50.8077C107.366 50.8077 107.421 50.8623 107.421 50.974V54.2831C107.421 54.5636 107.356 54.7714 107.224 54.9038C107.092 55.0363 106.888 55.1038 106.606 55.1038H105.425H105.422ZM105.753 53.4909H105.996C106.327 53.4909 106.591 53.4389 106.79 53.335C106.989 53.2311 107.087 53.0727 107.087 52.8597V51.7922C107.087 51.5506 107.02 51.3844 106.888 51.2883C106.754 51.1922 106.552 51.1454 106.278 51.1454H105.756C105.453 51.1454 105.241 51.2051 105.122 51.322C105.003 51.4389 104.941 51.6519 104.941 51.9584V52.6805C104.941 52.9818 105.001 53.1922 105.122 53.3116C105.244 53.4311 105.453 53.4935 105.756 53.4935L105.753 53.4909Z" fill="white"/>
<path d="M108.675 52.4467V52.6805C108.675 52.9818 108.734 53.1922 108.853 53.3117C108.972 53.4311 109.184 53.4935 109.486 53.4935H110.009C110.275 53.4935 110.471 53.4597 110.593 53.3896C110.715 53.3194 110.787 53.2 110.81 53.0311C110.818 52.9766 110.836 52.9376 110.862 52.9091C110.888 52.8805 110.929 52.8675 110.983 52.8675C111.038 52.8675 111.082 52.8831 111.11 52.9143C111.139 52.9454 111.149 52.9896 111.144 53.0441C111.115 53.3117 111.009 53.5117 110.823 53.6389C110.637 53.7662 110.365 53.8311 110.009 53.8311H109.486C109.091 53.8311 108.799 53.7402 108.615 53.5558C108.431 53.3714 108.338 53.0805 108.338 52.6857V51.9636C108.338 51.561 108.431 51.2675 108.615 51.0831C108.799 50.8987 109.091 50.8078 109.486 50.813H110.009C110.404 50.813 110.696 50.9039 110.877 51.0883C111.061 51.2727 111.151 51.5636 111.151 51.961V52.2805C111.151 52.3922 111.097 52.4493 110.986 52.4493H108.672L108.675 52.4467ZM109.489 51.1428C109.186 51.1376 108.974 51.1974 108.855 51.3169C108.737 51.4363 108.677 51.6519 108.677 51.9584V52.1117H110.823V51.9584C110.823 51.6545 110.764 51.4415 110.645 51.322C110.526 51.2026 110.314 51.1428 110.011 51.1428H109.489Z" fill="white"/>
<path d="M114.492 53.8259C114.161 53.8259 113.918 53.748 113.766 53.5948C113.613 53.4415 113.535 53.1974 113.535 52.8649C113.535 52.5324 113.613 52.2883 113.768 52.1324C113.923 51.9766 114.164 51.8987 114.492 51.8987H115.94C115.935 51.6181 115.873 51.4207 115.751 51.309C115.63 51.1974 115.423 51.1402 115.131 51.1402H114.761C114.492 51.1402 114.296 51.1688 114.169 51.2259C114.045 51.2831 113.967 51.3818 113.936 51.5194C113.921 51.5714 113.903 51.6103 113.877 51.6363C113.853 51.6597 113.815 51.6727 113.76 51.6727C113.706 51.6727 113.662 51.6571 113.631 51.6259C113.6 51.5948 113.59 51.5532 113.597 51.4987C113.626 51.2545 113.734 51.0779 113.926 50.9688C114.117 50.8571 114.394 50.8026 114.758 50.8026H115.128C115.524 50.8026 115.813 50.8935 115.997 51.0779C116.18 51.2623 116.271 51.5532 116.271 51.9506V53.6493C116.271 53.761 116.217 53.8181 116.105 53.8181C115.994 53.8181 115.937 53.761 115.937 53.6493V53.3324C115.733 53.6571 115.371 53.8181 114.846 53.8181H114.489L114.492 53.8259ZM114.492 53.4909H114.849C115.053 53.4909 115.234 53.4675 115.392 53.4233C115.547 53.3766 115.674 53.3039 115.769 53.2026C115.865 53.1013 115.922 52.9636 115.943 52.7948V52.2389H114.495C114.259 52.2389 114.096 52.2831 114.006 52.374C113.915 52.4649 113.872 52.6285 113.872 52.8675C113.872 53.1064 113.915 53.2675 114.006 53.3584C114.096 53.4493 114.259 53.4935 114.495 53.4935L114.492 53.4909Z" fill="white"/>
<path d="M117.447 53.8259C117.336 53.8259 117.279 53.7688 117.279 53.6571V50.974C117.279 50.8623 117.336 50.8077 117.447 50.8077C117.559 50.8077 117.613 50.8623 117.613 50.974V51.2805C117.815 50.9662 118.179 50.8077 118.707 50.8077H118.885C119.281 50.8077 119.57 50.8986 119.754 51.0831C119.937 51.2675 120.028 51.5584 120.028 51.9558V53.6545C120.028 53.7662 119.973 53.8233 119.862 53.8233C119.751 53.8233 119.694 53.7662 119.694 53.6545V51.9558C119.694 51.6519 119.635 51.4389 119.516 51.3194C119.397 51.1999 119.185 51.1402 118.885 51.1402H118.707C118.378 51.1402 118.12 51.1922 117.931 51.2961C117.742 51.3999 117.636 51.5636 117.613 51.7844V53.6545C117.613 53.7662 117.559 53.8233 117.447 53.8233V53.8259Z" fill="white"/>
<path d="M122.096 53.826C121.701 53.826 121.408 53.7325 121.225 53.5481C121.041 53.3636 120.948 53.0701 120.948 52.6727V51.9584C120.948 51.561 121.041 51.2701 121.225 51.0857C121.408 50.9013 121.701 50.8104 122.096 50.8104H123.428V49.5636C123.428 49.4519 123.485 49.3974 123.596 49.3974C123.707 49.3974 123.761 49.4519 123.761 49.5636V53.6597C123.761 53.7714 123.707 53.8286 123.596 53.8286C123.485 53.8286 123.428 53.7714 123.428 53.6597V53.3844C123.337 53.5325 123.203 53.6416 123.027 53.7169C122.851 53.7922 122.621 53.8286 122.337 53.8286H122.096V53.826ZM122.096 53.4909H122.337C122.668 53.4909 122.931 53.439 123.13 53.3325C123.33 53.226 123.428 53.0675 123.428 52.8571V51.1403H122.096C121.794 51.1403 121.582 51.2 121.463 51.3221C121.344 51.4442 121.282 51.6545 121.282 51.9558V52.6701C121.282 52.974 121.341 53.187 121.463 53.3065C121.584 53.426 121.794 53.4883 122.096 53.4883V53.4909Z" fill="white"/>
<path d="M126.895 53.8207C126.634 53.8207 126.435 53.7636 126.298 53.6519C126.161 53.5402 126.078 53.3688 126.05 53.1376C126.044 53.0831 126.055 53.0389 126.086 53.0078C126.117 52.9766 126.158 52.961 126.215 52.961C126.267 52.961 126.308 52.974 126.334 53.0026C126.36 53.0311 126.378 53.0727 126.386 53.1272C126.404 53.2597 126.453 53.3506 126.531 53.4026C126.608 53.4545 126.73 53.4805 126.895 53.4805H127.937C128.134 53.4805 128.271 53.4441 128.343 53.3688C128.418 53.2935 128.454 53.1584 128.454 52.961C128.454 52.7636 128.418 52.6233 128.343 52.548C128.268 52.4727 128.134 52.4363 127.937 52.4363H126.905C126.629 52.4363 126.425 52.3688 126.29 52.2363C126.156 52.1039 126.088 51.8987 126.088 51.6207C126.088 51.3428 126.156 51.1298 126.287 50.9974C126.422 50.8649 126.626 50.7974 126.905 50.7974H127.903C128.382 50.7974 128.648 51.0103 128.702 51.4363C128.71 51.4909 128.7 51.535 128.669 51.5662C128.638 51.5974 128.596 51.6129 128.54 51.6129C128.483 51.6129 128.446 51.6 128.421 51.5714C128.395 51.5428 128.377 51.5039 128.366 51.4493C128.351 51.3298 128.309 51.2467 128.237 51.2026C128.165 51.1584 128.056 51.135 127.903 51.135H126.905C126.722 51.135 126.595 51.1688 126.525 51.2363C126.456 51.3039 126.422 51.4337 126.422 51.6233C126.422 51.8129 126.458 51.9298 126.528 52C126.598 52.0701 126.724 52.1039 126.905 52.1039H127.937C128.229 52.1039 128.444 52.174 128.583 52.3142C128.721 52.4545 128.79 52.6701 128.79 52.9636C128.79 53.2571 128.721 53.4701 128.583 53.6103C128.446 53.7506 128.229 53.8207 127.937 53.8207H126.895Z" fill="white"/>
<path d="M129.91 52.4467V52.6805C129.91 52.9818 129.969 53.1922 130.091 53.3117C130.212 53.4311 130.422 53.4935 130.724 53.4935H131.247C131.513 53.4935 131.71 53.4597 131.831 53.3896C131.953 53.3194 132.025 53.2 132.048 53.0311C132.056 52.9766 132.074 52.9376 132.1 52.9091C132.126 52.8805 132.167 52.8675 132.221 52.8675C132.276 52.8675 132.32 52.8831 132.348 52.9143C132.377 52.9454 132.387 52.9896 132.382 53.0441C132.353 53.3117 132.247 53.5117 132.061 53.6389C131.875 53.7662 131.604 53.8311 131.247 53.8311H130.724C130.329 53.8311 130.037 53.7402 129.853 53.5558C129.669 53.3714 129.576 53.0805 129.576 52.6857V51.9636C129.576 51.561 129.669 51.2675 129.853 51.0831C130.037 50.8987 130.329 50.8078 130.724 50.813H131.247C131.642 50.813 131.934 50.9039 132.115 51.0883C132.299 51.2727 132.39 51.5636 132.39 51.961V52.2805C132.39 52.3922 132.335 52.4493 132.224 52.4493H129.91V52.4467ZM130.724 51.1428C130.422 51.1376 130.21 51.1974 130.091 51.3169C129.972 51.4363 129.91 51.6519 129.91 51.9584V52.1117H132.056V51.9584C132.056 51.6545 131.997 51.4415 131.878 51.322C131.759 51.2026 131.547 51.1428 131.244 51.1428H130.722H130.724Z" fill="white"/>
<path d="M133.535 53.8259C133.424 53.8259 133.367 53.7688 133.367 53.6571V50.974C133.367 50.8623 133.424 50.8077 133.535 50.8077C133.646 50.8077 133.7 50.8623 133.7 50.974V51.4649C133.812 51.2519 133.969 51.0883 134.179 50.9766C134.388 50.8623 134.634 50.8077 134.921 50.8077C135.032 50.8077 135.089 50.8623 135.089 50.974C135.089 51.0857 135.032 51.1428 134.921 51.1428C134.543 51.1428 134.251 51.2285 134.042 51.3999C133.835 51.5714 133.719 51.8155 133.698 52.1324V53.6571C133.698 53.7688 133.644 53.8259 133.532 53.8259H133.535Z" fill="white"/>
<path d="M136.793 53.6987C136.769 53.7506 136.741 53.7844 136.707 53.8C136.674 53.8156 136.635 53.826 136.588 53.826C136.495 53.826 136.431 53.7818 136.392 53.6961L135.213 51.0416C135.169 50.9377 135.2 50.8649 135.306 50.8234C135.404 50.7818 135.477 50.8104 135.523 50.9143L136.7 53.5584H136.495L137.749 50.9091C137.773 50.8597 137.804 50.8286 137.842 50.813C137.881 50.7974 137.925 50.8 137.972 50.8234C138.075 50.8701 138.104 50.9455 138.057 51.0467L136.795 53.6987H136.793Z" fill="white"/>
<path d="M138.794 50.2233C138.647 50.2233 138.574 50.148 138.574 49.9974V49.8519C138.574 49.7065 138.647 49.6337 138.794 49.6337H138.934C139.078 49.6337 139.151 49.7065 139.151 49.8519V49.9974C139.151 50.148 139.078 50.2233 138.934 50.2233H138.794ZM138.864 53.8259C138.753 53.8259 138.696 53.7688 138.696 53.6571V50.974C138.696 50.8623 138.753 50.8078 138.864 50.8078C138.975 50.8078 139.029 50.8623 139.029 50.974V53.6571C139.029 53.7688 138.975 53.8259 138.864 53.8259Z" fill="white"/>
<path d="M141.152 53.8259C140.757 53.8259 140.464 53.7324 140.281 53.548C140.097 53.3636 140.004 53.0701 140.004 52.6727V51.9506C140.004 51.5532 140.095 51.2597 140.278 51.0779C140.462 50.8961 140.754 50.8026 141.152 50.8078H141.674C141.987 50.8078 142.225 50.8597 142.388 50.9662C142.554 51.0727 142.652 51.2363 142.683 51.4623C142.691 51.5195 142.678 51.5636 142.647 51.5922C142.616 51.6207 142.572 51.6363 142.517 51.6363C142.466 51.6363 142.429 51.6233 142.404 51.5974C142.378 51.5714 142.36 51.5324 142.347 51.4805C142.323 51.3584 142.261 51.2701 142.158 51.2182C142.055 51.1662 141.894 51.1402 141.674 51.1402H141.152C140.85 51.135 140.638 51.1922 140.519 51.3117C140.4 51.4311 140.338 51.6415 140.338 51.948V52.6701C140.338 52.974 140.397 53.187 140.519 53.3065C140.64 53.4259 140.85 53.4883 141.152 53.4883H141.674C141.894 53.4883 142.057 53.4623 142.158 53.4104C142.259 53.3584 142.323 53.2701 142.347 53.1454C142.36 53.0935 142.378 53.0545 142.404 53.0285C142.429 53.0026 142.468 52.9896 142.517 52.9896C142.572 52.9896 142.616 53.0052 142.647 53.0363C142.678 53.0675 142.691 53.1117 142.683 53.1662C142.652 53.3922 142.554 53.5584 142.388 53.6649C142.223 53.7714 141.985 53.8233 141.674 53.8233H141.152V53.8259Z" fill="white"/>
<path d="M143.844 52.4467V52.6805C143.844 52.9818 143.903 53.1922 144.025 53.3117C144.146 53.4311 144.355 53.4935 144.658 53.4935H145.18C145.447 53.4935 145.643 53.4597 145.765 53.3896C145.886 53.3194 145.959 53.2 145.982 53.0311C145.99 52.9766 146.008 52.9376 146.034 52.9091C146.059 52.8805 146.101 52.8675 146.155 52.8675C146.209 52.8675 146.251 52.8831 146.282 52.9143C146.313 52.9454 146.321 52.9896 146.315 53.0441C146.287 53.3117 146.181 53.5117 145.995 53.6389C145.809 53.7662 145.537 53.8311 145.18 53.8311H144.658C144.262 53.8311 143.97 53.7402 143.787 53.5558C143.603 53.3714 143.51 53.0805 143.51 52.6857V51.9636C143.51 51.561 143.603 51.2675 143.787 51.0831C143.97 50.8987 144.262 50.8078 144.658 50.813H145.18C145.576 50.813 145.868 50.9039 146.049 51.0883C146.233 51.2727 146.323 51.5636 146.323 51.961V52.2805C146.323 52.3922 146.269 52.4493 146.158 52.4493H143.844V52.4467ZM144.658 51.1428C144.355 51.1376 144.143 51.1974 144.025 51.3169C143.906 51.4363 143.844 51.6519 143.844 51.9584V52.1117H145.99V51.9584C145.99 51.6545 145.93 51.4415 145.811 51.322C145.692 51.2026 145.48 51.1428 145.178 51.1428H144.655H144.658Z" fill="white"/>
<path d="M147.957 53.8207C147.696 53.8207 147.497 53.7636 147.36 53.6519C147.223 53.5402 147.14 53.3688 147.112 53.1376C147.107 53.0831 147.117 53.0389 147.148 53.0078C147.177 52.9766 147.22 52.961 147.277 52.961C147.329 52.961 147.37 52.974 147.396 53.0026C147.422 53.0311 147.44 53.0727 147.448 53.1272C147.466 53.2597 147.515 53.3506 147.593 53.4026C147.67 53.4545 147.792 53.4805 147.957 53.4805H148.999C149.196 53.4805 149.333 53.4441 149.405 53.3688C149.48 53.2935 149.516 53.1584 149.516 52.961C149.516 52.7636 149.48 52.6233 149.405 52.548C149.33 52.4727 149.196 52.4363 148.999 52.4363H147.968C147.691 52.4363 147.487 52.3688 147.352 52.2363C147.218 52.1039 147.151 51.8987 147.151 51.6207C147.151 51.3428 147.218 51.1298 147.35 50.9974C147.484 50.8649 147.688 50.7974 147.968 50.7974H148.966C149.444 50.7974 149.71 51.0103 149.765 51.4363C149.772 51.4909 149.762 51.535 149.731 51.5662C149.7 51.5974 149.656 51.6129 149.602 51.6129C149.547 51.6129 149.509 51.6 149.483 51.5714C149.457 51.5428 149.439 51.5039 149.426 51.4493C149.41 51.3298 149.369 51.2467 149.297 51.2026C149.224 51.1584 149.116 51.135 148.963 51.135H147.965C147.782 51.135 147.655 51.1688 147.585 51.2363C147.515 51.3039 147.482 51.4337 147.482 51.6233C147.482 51.8129 147.518 51.9298 147.588 52C147.657 52.0701 147.784 52.1039 147.965 52.1039H148.997C149.289 52.1039 149.504 52.174 149.643 52.3142C149.78 52.4545 149.85 52.6701 149.85 52.9636C149.85 53.2571 149.78 53.4701 149.643 53.6103C149.506 53.7506 149.289 53.8207 148.997 53.8207H147.955H147.957Z" fill="white"/>
<path d="M80.8356 61.6389C80.7218 61.6389 80.6675 61.5818 80.6675 61.4701V58.9558H80.4012C80.2874 58.9558 80.2332 58.8987 80.2332 58.787C80.2332 58.6753 80.29 58.6208 80.4012 58.6208H80.6675V58.3402C80.6675 57.948 80.758 57.6623 80.939 57.4805C81.12 57.2987 81.407 57.2078 81.7948 57.2078C81.9034 57.2078 81.9577 57.2623 81.9577 57.374C81.9577 57.4857 81.9034 57.5428 81.7948 57.5428C81.4975 57.5428 81.2907 57.6 81.1743 57.7169C81.058 57.8337 80.9985 58.0389 80.9985 58.3376V58.6182H81.7871C81.8983 58.6182 81.9552 58.6727 81.9552 58.7844C81.9552 58.8961 81.8983 58.9532 81.7871 58.9532H80.9985V61.4675C80.9985 61.5792 80.9442 61.6363 80.833 61.6363L80.8356 61.6389Z" fill="white"/>
<path d="M83.4471 61.6389C83.0515 61.6389 82.7593 61.548 82.5757 61.3636C82.3922 61.1792 82.2991 60.8883 82.2991 60.4935V59.7714C82.2991 59.3688 82.3922 59.0753 82.5757 58.8909C82.7593 58.7065 83.0515 58.6156 83.4471 58.6208H83.9694C84.365 58.6208 84.6571 58.7117 84.8381 58.8961C85.0217 59.0805 85.1122 59.3714 85.1122 59.7688V60.4831C85.1122 60.8805 85.0217 61.174 84.8381 61.3584C84.6545 61.5428 84.365 61.6363 83.9694 61.6363H83.4471V61.6389ZM82.6326 60.4909C82.6326 60.7922 82.6921 61.0026 82.8136 61.1221C82.9351 61.2415 83.1446 61.3039 83.4471 61.3039H83.9694C84.2719 61.3039 84.4839 61.2441 84.6028 61.1221C84.7218 61.0026 84.7812 60.7896 84.7812 60.4857V59.7714C84.7812 59.4675 84.7218 59.2545 84.6028 59.135C84.4839 59.0156 84.2719 58.9558 83.9694 58.9558H83.4471C83.2428 58.9558 83.0825 58.9792 82.9636 59.0285C82.8446 59.0805 82.7593 59.1662 82.7102 59.2831C82.6585 59.4026 82.6326 59.5636 82.6326 59.7688V60.4909Z" fill="white"/>
<path d="M86.2601 61.6389C86.1489 61.6389 86.092 61.5818 86.092 61.4701V58.787C86.092 58.6753 86.1489 58.6207 86.2601 58.6207C86.3713 58.6207 86.4256 58.6753 86.4256 58.787V59.2779C86.5368 59.0649 86.6945 58.9012 86.9039 58.7896C87.1133 58.6753 87.3616 58.6207 87.646 58.6207C87.7572 58.6207 87.814 58.6753 87.814 58.787C87.814 58.8986 87.7572 58.9558 87.646 58.9558C87.2685 58.9558 86.9763 59.0415 86.7695 59.2129C86.5626 59.3844 86.4463 59.6285 86.4256 59.9454V61.4701C86.4256 61.5818 86.3713 61.6389 86.2601 61.6389Z" fill="white"/>
<path d="M91.0591 61.6389C90.6687 61.6389 90.3843 61.548 90.2033 61.3662C90.0223 61.1844 89.9318 60.8987 89.9318 60.5091V58.9532H89.5543C89.4405 58.9532 89.3862 58.8961 89.3862 58.7844C89.3862 58.6727 89.4431 58.6182 89.5543 58.6182H89.9318V57.9324C89.9318 57.8208 89.9861 57.7636 90.0973 57.7636C90.2084 57.7636 90.2653 57.8208 90.2653 57.9324V58.6182H91.0643C91.1755 58.6182 91.2298 58.6727 91.2298 58.7844C91.2298 58.8961 91.1755 58.9532 91.0643 58.9532H90.2653V60.5091C90.2653 60.8078 90.3222 61.013 90.4386 61.1298C90.5549 61.2441 90.7618 61.3013 91.0565 61.3013C91.1186 61.3013 91.1625 61.3143 91.1884 61.3428C91.2142 61.3714 91.2272 61.413 91.2272 61.4675C91.2272 61.5792 91.1703 61.6363 91.0565 61.6363L91.0591 61.6389Z" fill="white"/>
<path d="M92.1527 61.6389C92.0415 61.6389 91.9846 61.5818 91.9846 61.4701V57.374C91.9846 57.2623 92.0415 57.2078 92.1527 57.2078C92.2639 57.2078 92.3182 57.2623 92.3182 57.374V59.0935C92.5198 58.7792 92.8844 58.6208 93.4119 58.6208H93.5903C93.9859 58.6208 94.2754 58.7117 94.459 58.8961C94.6426 59.0805 94.7331 59.3714 94.7331 59.7688V61.4675C94.7331 61.5792 94.6788 61.6363 94.5676 61.6363C94.4564 61.6363 94.3996 61.5792 94.3996 61.4675V59.7688C94.3996 59.4649 94.3401 59.2519 94.2211 59.1324C94.1022 59.013 93.8902 58.9532 93.5903 58.9532H93.4119C93.0835 58.9532 92.8249 59.0052 92.6362 59.1091C92.4474 59.213 92.3414 59.3766 92.3182 59.5974V61.4675C92.3182 61.5792 92.2639 61.6363 92.1527 61.6363V61.6389Z" fill="white"/>
<path d="M95.9871 60.2597V60.4935C95.9871 60.7948 96.0466 61.0052 96.1681 61.1246C96.2896 61.2441 96.4991 61.3065 96.8016 61.3065H97.3238C97.5902 61.3065 97.7867 61.2727 97.9082 61.2026C98.0297 61.1324 98.1021 61.013 98.1254 60.8441C98.1331 60.7896 98.1512 60.7506 98.1771 60.722C98.2029 60.6935 98.2443 60.6805 98.2986 60.6805C98.3529 60.6805 98.3969 60.6961 98.4253 60.7272C98.4538 60.7584 98.4641 60.8026 98.4589 60.8571C98.4305 61.1246 98.3245 61.3246 98.1383 61.4519C97.9521 61.5792 97.6807 61.6441 97.3238 61.6441H96.8016C96.406 61.6441 96.1138 61.5532 95.9302 61.3688C95.7466 61.1844 95.6536 60.8935 95.6536 60.4987V59.7766C95.6536 59.374 95.7466 59.0805 95.9302 58.8961C96.1138 58.7117 96.406 58.6207 96.8016 58.6259H97.3238C97.7194 58.6259 98.0116 58.7169 98.1926 58.9013C98.3762 59.0857 98.4667 59.3766 98.4667 59.774V60.0935C98.4667 60.2052 98.4124 60.2623 98.3012 60.2623H95.9871V60.2597ZM96.8016 58.9558C96.4991 58.9506 96.287 59.0104 96.1681 59.1298C96.0492 59.2493 95.9871 59.4649 95.9871 59.7714V59.9246H98.1331V59.7714C98.1331 59.4675 98.0737 59.2545 97.9547 59.135C97.8358 59.0156 97.6238 58.9558 97.3213 58.9558H96.799H96.8016Z" fill="white"/>
<path d="M100.592 61.6233C100.491 61.5792 100.46 61.5038 100.499 61.4L102.076 57.6519C102.11 57.5636 102.172 57.522 102.265 57.522H102.283C102.371 57.522 102.43 57.5688 102.467 57.6519L104.044 61.4C104.085 61.5038 104.057 61.5792 103.956 61.6233C103.853 61.6649 103.78 61.6363 103.739 61.535L103.315 60.5298H101.231L100.807 61.535C100.765 61.6363 100.69 61.6675 100.587 61.6233H100.592ZM101.37 60.1922H103.178L102.275 58.0519L101.373 60.1922H101.37Z" fill="white"/>
<path d="M104.863 61.639C104.812 61.639 104.77 61.6234 104.739 61.5948C104.708 61.5662 104.695 61.5247 104.695 61.4701V57.6883C104.695 57.6364 104.711 57.5948 104.739 57.5636C104.768 57.5351 104.809 57.5195 104.863 57.5195C104.918 57.5195 104.954 57.5351 104.985 57.5636C105.013 57.5948 105.029 57.6338 105.029 57.6883V61.4701C105.029 61.5221 105.013 61.5636 104.985 61.5948C104.956 61.626 104.915 61.639 104.863 61.639Z" fill="white"/>
<path d="M108.623 61.6389C108.227 61.6389 107.935 61.5454 107.752 61.361C107.568 61.1766 107.475 60.8831 107.475 60.4857V59.7636C107.475 59.3662 107.565 59.0727 107.749 58.8909C107.933 58.7091 108.225 58.6156 108.623 58.6207H109.145C109.458 58.6207 109.696 58.6727 109.859 58.7792C110.024 58.8857 110.122 59.0493 110.154 59.2753C110.161 59.3324 110.148 59.3766 110.117 59.4052C110.086 59.4337 110.042 59.4493 109.988 59.4493C109.936 59.4493 109.9 59.4363 109.874 59.4104C109.848 59.3844 109.83 59.3454 109.817 59.2935C109.794 59.1714 109.732 59.0831 109.629 59.0311C109.525 58.9792 109.365 58.9532 109.145 58.9532H108.623C108.32 58.948 108.108 59.0052 107.989 59.1246C107.87 59.2441 107.811 59.4545 107.811 59.761V60.4831C107.811 60.787 107.87 61 107.989 61.1194C108.108 61.2389 108.32 61.3013 108.623 61.3013H109.145C109.365 61.3013 109.528 61.2753 109.629 61.2233C109.729 61.1714 109.794 61.0831 109.817 60.9584C109.83 60.9065 109.848 60.8675 109.874 60.8415C109.9 60.8156 109.939 60.8026 109.988 60.8026C110.042 60.8026 110.086 60.8182 110.117 60.8493C110.148 60.8805 110.161 60.9246 110.154 60.9792C110.122 61.2052 110.024 61.3714 109.859 61.4779C109.693 61.5844 109.455 61.6363 109.145 61.6363H108.623V61.6389Z" fill="white"/>
<path d="M112.126 61.6389C111.731 61.6389 111.439 61.548 111.255 61.3636C111.071 61.1792 110.978 60.8883 110.978 60.4935V59.7714C110.978 59.3688 111.071 59.0753 111.255 58.8909C111.439 58.7065 111.731 58.6156 112.126 58.6208H112.649C113.044 58.6208 113.336 58.7117 113.517 58.8961C113.701 59.0805 113.791 59.3714 113.791 59.7688V60.4831C113.791 60.8805 113.701 61.174 113.517 61.3584C113.334 61.5428 113.044 61.6363 112.649 61.6363H112.126V61.6389ZM111.312 60.4909C111.312 60.7922 111.371 61.0026 111.493 61.1221C111.614 61.2415 111.824 61.3039 112.126 61.3039H112.649C112.951 61.3039 113.163 61.2441 113.282 61.1221C113.401 61.0026 113.46 60.7896 113.46 60.4857V59.7714C113.46 59.4675 113.401 59.2545 113.282 59.135C113.163 59.0156 112.951 58.9558 112.649 58.9558H112.126C111.922 58.9558 111.762 58.9792 111.643 59.0285C111.524 59.0805 111.439 59.1662 111.389 59.2831C111.338 59.4026 111.312 59.5636 111.312 59.7688V60.4909Z" fill="white"/>
<path d="M118.138 58.6156C118.479 58.6156 118.725 58.7039 118.872 58.8779C119.019 59.0519 119.092 59.3402 119.092 59.7428V61.4779C119.092 61.5896 119.038 61.6441 118.926 61.6441C118.815 61.6441 118.758 61.5896 118.758 61.4779V59.7428C118.758 59.4623 118.712 59.2597 118.616 59.1351C118.52 59.0104 118.363 58.9506 118.138 58.9506H117.874C117.595 58.9506 117.398 59.013 117.277 59.1351C117.155 59.2571 117.096 59.4597 117.096 59.7428V61.4779C117.096 61.5896 117.042 61.6441 116.93 61.6441C116.819 61.6441 116.762 61.5896 116.762 61.4779V59.7428C116.762 59.4623 116.716 59.2597 116.62 59.1351C116.524 59.0104 116.367 58.9506 116.142 58.9506H115.878C115.601 58.9506 115.402 59.013 115.281 59.1351C115.159 59.2571 115.102 59.4597 115.102 59.7428V61.4779C115.102 61.5896 115.048 61.6441 114.937 61.6441C114.826 61.6441 114.769 61.5896 114.769 61.4779V58.787C114.769 58.6753 114.826 58.6208 114.937 58.6208C115.048 58.6208 115.102 58.6753 115.102 58.787V59.0364C115.195 58.8857 115.307 58.7766 115.436 58.7117C115.565 58.6467 115.725 58.613 115.925 58.613H116.144C116.367 58.613 116.545 58.6519 116.68 58.7299C116.814 58.8078 116.92 58.9351 117 59.1117C117.093 58.9351 117.207 58.8078 117.344 58.7299C117.478 58.6519 117.657 58.613 117.874 58.613H118.138V58.6156Z" fill="white"/>
<path d="M123.464 58.6156C123.805 58.6156 124.051 58.7039 124.198 58.8779C124.346 59.0519 124.418 59.3402 124.418 59.7428V61.4779C124.418 61.5896 124.364 61.6441 124.253 61.6441C124.141 61.6441 124.085 61.5896 124.085 61.4779V59.7428C124.085 59.4623 124.038 59.2597 123.942 59.1351C123.847 59.0104 123.689 58.9506 123.464 58.9506H123.2C122.921 58.9506 122.725 59.013 122.603 59.1351C122.481 59.2571 122.422 59.4597 122.422 59.7428V61.4779C122.422 61.5896 122.368 61.6441 122.257 61.6441C122.145 61.6441 122.088 61.5896 122.088 61.4779V59.7428C122.088 59.4623 122.042 59.2597 121.946 59.1351C121.851 59.0104 121.693 58.9506 121.468 58.9506H121.204C120.928 58.9506 120.728 59.013 120.607 59.1351C120.485 59.2571 120.429 59.4597 120.429 59.7428V61.4779C120.429 61.5896 120.374 61.6441 120.263 61.6441C120.152 61.6441 120.095 61.5896 120.095 61.4779V58.787C120.095 58.6753 120.152 58.6208 120.263 58.6208C120.374 58.6208 120.429 58.6753 120.429 58.787V59.0364C120.522 58.8857 120.633 58.7766 120.762 58.7117C120.891 58.6467 121.052 58.613 121.251 58.613H121.47C121.693 58.613 121.871 58.6519 122.006 58.7299C122.14 58.8078 122.246 58.9351 122.326 59.1117C122.419 58.9351 122.533 58.8078 122.67 58.7299C122.805 58.6519 122.983 58.613 123.2 58.613H123.464V58.6156Z" fill="white"/>
<path d="M127.948 58.6207C128.061 58.6207 128.116 58.6779 128.116 58.7896V61.4727C128.116 61.5844 128.059 61.6389 127.948 61.6389C127.836 61.6389 127.782 61.5844 127.782 61.4727V61.1662C127.58 61.4805 127.216 61.6389 126.688 61.6389H126.51C126.114 61.6389 125.822 61.548 125.641 61.3636C125.46 61.1792 125.367 60.8883 125.367 60.4909V58.7922C125.367 58.6779 125.421 58.6233 125.533 58.6233C125.644 58.6233 125.701 58.6805 125.701 58.7922V60.4909C125.701 60.7948 125.76 61.0077 125.882 61.1272C126.001 61.2467 126.213 61.3064 126.513 61.3064H126.691C127.019 61.3064 127.278 61.2545 127.467 61.1506C127.655 61.0467 127.761 60.8831 127.785 60.6623V58.7922C127.785 58.6779 127.839 58.6233 127.95 58.6233L127.948 58.6207Z" fill="white"/>
<path d="M129.349 61.6389C129.235 61.6389 129.181 61.5818 129.181 61.4701V58.787C129.181 58.6753 129.238 58.6207 129.349 58.6207C129.46 58.6207 129.514 58.6753 129.514 58.787V59.0935C129.716 58.7792 130.081 58.6207 130.608 58.6207H130.787C131.182 58.6207 131.474 58.7116 131.655 58.8961C131.839 59.0805 131.929 59.3714 131.929 59.7688V61.4675C131.929 61.5792 131.875 61.6363 131.764 61.6363C131.653 61.6363 131.596 61.5792 131.596 61.4675V59.7688C131.596 59.4649 131.536 59.2519 131.415 59.1324C131.296 59.0129 131.084 58.9532 130.784 58.9532H130.606C130.277 58.9532 130.019 59.0051 129.83 59.109C129.641 59.2129 129.535 59.3766 129.512 59.5973V61.4675C129.512 61.5792 129.458 61.6363 129.346 61.6363L129.349 61.6389Z" fill="white"/>
<path d="M133.033 58.0363C132.886 58.0363 132.813 57.961 132.813 57.8104V57.6649C132.813 57.5194 132.886 57.4467 133.033 57.4467H133.173C133.318 57.4467 133.39 57.5194 133.39 57.6649V57.8104C133.39 57.961 133.318 58.0363 133.173 58.0363H133.033ZM133.103 61.6389C132.989 61.6389 132.935 61.5818 132.935 61.4701V58.787C132.935 58.6753 132.992 58.6207 133.103 58.6207C133.214 58.6207 133.269 58.6753 133.269 58.787V61.4701C133.269 61.5818 133.214 61.6389 133.103 61.6389Z" fill="white"/>
<path d="M135.559 61.6389C135.169 61.6389 134.885 61.548 134.704 61.3662C134.523 61.1844 134.432 60.8987 134.432 60.5091V58.9532H134.055C133.941 58.9532 133.886 58.8961 133.886 58.7844C133.886 58.6727 133.943 58.6182 134.055 58.6182H134.432V57.9324C134.432 57.8208 134.486 57.7636 134.598 57.7636C134.709 57.7636 134.766 57.8208 134.766 57.9324V58.6182H135.565C135.676 58.6182 135.73 58.6727 135.73 58.7844C135.73 58.8961 135.676 58.9532 135.565 58.9532H134.766V60.5091C134.766 60.8078 134.822 61.013 134.939 61.1298C135.055 61.2441 135.262 61.3013 135.557 61.3013C135.619 61.3013 135.663 61.3143 135.689 61.3428C135.714 61.3714 135.727 61.413 135.727 61.4675C135.727 61.5792 135.671 61.6363 135.557 61.6363L135.559 61.6389Z" fill="white"/>
<path d="M137.24 62.9169C136.963 62.9169 136.757 62.8493 136.625 62.7169C136.493 62.5818 136.426 62.374 136.426 62.0909C136.426 61.9792 136.48 61.9247 136.591 61.9247C136.702 61.9247 136.759 61.9792 136.759 62.0909C136.759 62.2831 136.793 62.413 136.86 62.4805C136.927 62.548 137.054 62.5818 137.238 62.5818H138.339C138.525 62.5818 138.652 62.548 138.722 62.4805C138.791 62.413 138.823 62.2831 138.823 62.0909V61.213C138.701 61.3714 138.551 61.4857 138.367 61.548C138.184 61.613 137.972 61.6441 137.729 61.6441H137.55C137.16 61.6441 136.876 61.5532 136.695 61.3714C136.514 61.1896 136.423 60.9065 136.423 60.5195V58.7844C136.423 58.6727 136.477 58.6156 136.589 58.6156C136.7 58.6156 136.757 58.6727 136.757 58.7844V60.5195C136.757 60.8156 136.814 61.0208 136.93 61.1351C137.046 61.2493 137.253 61.3065 137.548 61.3065H137.726C138.096 61.3065 138.373 61.2415 138.551 61.1091C138.729 60.9792 138.82 60.7818 138.82 60.5169V58.7818C138.82 58.6701 138.874 58.613 138.985 58.613C139.097 58.613 139.153 58.6701 139.153 58.7818V62.0883C139.153 62.3714 139.086 62.5792 138.954 62.7143C138.823 62.8493 138.616 62.9143 138.336 62.9143H137.235L137.24 62.9169Z" fill="white"/>
</g>
<defs>
<linearGradient id="paint0_linear_298_3717" x1="1.02906" y1="45.652" x2="61.7396" y2="34.996" gradientUnits="userSpaceOnUse">
<stop stop-color="#0047BB"/>
<stop offset="0.46" stop-color="#0047BB"/>
<stop offset="0.53" stop-color="#6689C1"/>
<stop offset="0.58" stop-color="#AAB4C6"/>
<stop offset="0.61" stop-color="#C5C6C8"/>
<stop offset="0.84" stop-color="#E8DD4D"/>
<stop offset="1" stop-color="#FFED00"/>
</linearGradient>
<clipPath id="clip0_298_3717">
<rect width="150" height="75" fill="white"/>
</clipPath>
</defs>
</svg>
