<svg width="150" height="76" viewBox="0 0 150 76" fill="none" xmlns="http://www.w3.org/2000/svg">
<g clip-path="url(#clip0_347_1375)">
<path d="M28.0951 44.3805C27.5133 44.1545 27.3375 43.7519 27.5702 43.1727L32.7672 30.3156C32.987 29.8325 33.3283 29.5909 33.7937 29.5909H33.8376C34.3108 29.6117 34.6314 29.8532 34.7995 30.3156L40.0844 43.1727C40.3171 43.7494 40.149 44.1519 39.5828 44.3805C39.0088 44.6065 38.608 44.4403 38.3805 43.8766L37.2015 41.0039H30.3988L29.2741 43.8766C29.0491 44.4481 28.6561 44.6143 28.0951 44.3805ZM31.1202 39.1597H36.4491L33.7316 32.513L31.1228 39.1597H31.1202Z" fill="white"/>
<path d="M43.6681 44.4688C43.3553 44.4688 43.1226 44.3935 42.9752 44.2429C42.8252 44.0922 42.7502 43.861 42.7502 43.5468V30.5364C42.7502 30.2143 42.8252 29.9805 42.9752 29.8351C43.1252 29.6896 43.3553 29.6169 43.6681 29.6169C43.981 29.6169 44.2214 29.6896 44.3662 29.8351C44.511 29.9805 44.5834 30.2143 44.5834 30.5364V43.5468C44.5834 43.861 44.511 44.0922 44.3662 44.2429C44.2214 44.3935 43.9887 44.4688 43.6681 44.4688Z" fill="white"/>
<path d="M56.6347 44.4688C55.4557 44.4688 54.5791 44.1831 54.0051 43.6117C53.4337 43.0403 53.1467 42.1649 53.1467 40.9857V38.913C53.1467 37.7156 53.4337 36.8325 54.0051 36.2636C54.5766 35.6948 55.4531 35.4117 56.6347 35.4117H58.0929C59.2797 35.4117 60.1562 35.6974 60.7251 36.2688C61.2939 36.8403 61.5783 37.7234 61.5783 38.913V40.9675C61.5783 42.1519 61.2939 43.0325 60.7251 43.6065C60.1562 44.1805 59.2771 44.4688 58.0929 44.4688H56.6347ZM54.6412 40.9857C54.6412 41.7545 54.7808 42.2766 55.0601 42.5545C55.3393 42.8325 55.8642 42.9701 56.6347 42.9701H58.0929C58.8686 42.9701 59.3961 42.8299 59.6727 42.5493C59.9494 42.2688 60.0864 41.7416 60.0864 40.9675V38.913C60.0864 38.1338 59.9494 37.6039 59.6727 37.326C59.3961 37.048 58.8712 36.9104 58.0929 36.9104H56.6347C56.1176 36.9104 55.7168 36.9675 55.4298 37.0844C55.1428 37.2013 54.9385 37.4039 54.8196 37.6922C54.7007 37.9805 54.6412 38.3883 54.6412 38.9104V40.9831V40.9857Z" fill="#0047BB"/>
<path d="M65.1181 44.4688C64.6217 44.4688 64.3708 44.2195 64.3708 43.7182V36.1597C64.3708 35.6584 64.6191 35.4091 65.1181 35.4091C65.6171 35.4091 65.8653 35.6584 65.8653 36.1597V36.4558C66.4936 35.7597 67.4193 35.4117 68.6396 35.4117H69.1387C70.3254 35.4117 71.202 35.6974 71.7708 36.2688C72.3396 36.8403 72.624 37.7234 72.624 38.913V43.7208C72.624 44.2221 72.3758 44.4714 71.8768 44.4714C71.3778 44.4714 71.1296 44.2221 71.1296 43.7208V38.913C71.1296 38.1338 70.9874 37.6039 70.7081 37.326C70.4263 37.0481 69.904 36.9104 69.1387 36.9104H68.6396C67.9286 36.9104 67.3081 36.9935 66.7806 37.1571C66.2532 37.3208 65.9481 37.5779 65.8653 37.9312V43.7208C65.8653 44.2221 65.6171 44.4714 65.1181 44.4714V44.4688Z" fill="#0047BB"/>
<path d="M81.5185 44.4688C81.0195 44.4688 80.7712 44.2195 80.7712 43.7182V33.1026C80.7712 32.6013 81.0195 32.352 81.5185 32.352H85.8054C87.3541 32.352 88.4918 32.7208 89.2235 33.4559C89.9552 34.1909 90.3224 35.3364 90.3224 36.8922V39.9312C90.3224 41.487 89.9604 42.6299 89.2338 43.3675C88.5073 44.1026 87.3645 44.4714 85.8054 44.4714H81.5185V44.4688ZM82.2657 42.9675H85.8054C86.5629 42.9675 87.1654 42.874 87.6049 42.687C88.0471 42.5 88.3599 42.1831 88.5487 41.739C88.7348 41.2948 88.8305 40.6922 88.8305 39.9286V36.8896C88.8305 36.1338 88.7374 35.5338 88.5487 35.0896C88.3625 34.6455 88.0471 34.3286 87.6049 34.139C87.1628 33.9494 86.5629 33.8533 85.8054 33.8533H82.2657V42.9675Z" fill="white"/>
<path d="M94.1825 40.5571V40.9857C94.1825 41.7545 94.3221 42.2766 94.6013 42.5545C94.8806 42.8325 95.4054 42.9701 96.1759 42.9701H97.6342C98.2392 42.9701 98.6865 42.913 98.9761 42.8013C99.2657 42.687 99.4596 42.4896 99.5553 42.2039C99.6199 41.9779 99.7104 41.8039 99.8268 41.687C99.9431 41.5675 100.119 41.5078 100.357 41.5078C100.595 41.5078 100.796 41.5727 100.926 41.7052C101.055 41.8351 101.096 42.0273 101.05 42.2766C100.92 43.0143 100.569 43.5675 100 43.9286C99.4312 44.2922 98.6426 44.474 97.6342 44.474H96.1759C94.9969 44.474 94.1204 44.1883 93.5464 43.6169C92.975 43.0455 92.688 42.1701 92.688 40.9909V38.9182C92.688 37.7078 92.975 36.8195 93.5464 36.2506C94.1178 35.6818 94.9943 35.4039 96.1759 35.4143H97.6342C98.821 35.4143 99.6975 35.7 100.266 36.2662C100.835 36.8351 101.12 37.7182 101.12 38.9156V39.8091C101.12 40.3104 100.871 40.5597 100.372 40.5597H94.1825V40.5571ZM96.1759 36.913C95.4054 36.9 94.8806 37.0351 94.6013 37.3156C94.3221 37.5961 94.1825 38.1286 94.1825 38.9156V39.0584H99.6251V38.9156C99.6251 38.1364 99.4881 37.6065 99.2114 37.3286C98.9348 37.0506 98.4099 36.913 97.6316 36.913H96.1733H96.1759Z" fill="white"/>
<path d="M113.784 35.4091C114.903 35.4091 115.71 35.674 116.199 36.2039C116.687 36.7338 116.933 37.6117 116.933 38.8403V43.7182C116.933 44.2195 116.685 44.4688 116.186 44.4688C115.687 44.4688 115.439 44.2195 115.439 43.7182V38.8403C115.439 38.1623 115.309 37.6688 115.051 37.3649C114.792 37.061 114.371 36.9104 113.784 36.9104H113.055C112.38 36.9104 111.896 37.061 111.604 37.3649C111.315 37.6688 111.17 38.1597 111.17 38.8403V43.7182C111.17 44.2195 110.922 44.4688 110.423 44.4688C109.923 44.4688 109.675 44.2195 109.675 43.7182V38.8403C109.675 38.1623 109.546 37.6688 109.287 37.3649C109.029 37.061 108.607 36.9104 108.02 36.9104H107.291C106.617 36.9104 106.133 37.061 105.841 37.3649C105.551 37.6688 105.404 38.1597 105.404 38.8403V43.7182C105.404 44.2195 105.156 44.4688 104.657 44.4688C104.158 44.4688 103.909 44.2195 103.909 43.7182V36.1597C103.909 35.6584 104.158 35.4091 104.657 35.4091C105.156 35.4091 105.404 35.6584 105.404 36.1597V36.5701C105.719 36.1597 106.063 35.8636 106.441 35.6818C106.818 35.5 107.266 35.4091 107.788 35.4091H108.018C108.752 35.4091 109.331 35.513 109.753 35.7182C110.174 35.9234 110.495 36.2558 110.712 36.7156C111.028 36.2455 111.361 35.9104 111.713 35.7104C112.064 35.5104 112.512 35.4117 113.052 35.4117H113.781L113.784 35.4091Z" fill="white"/>
<path d="M122.394 44.4688C121.398 44.4688 120.656 44.2247 120.17 43.7364C119.684 43.2481 119.441 42.5026 119.441 41.5026C119.441 40.5026 119.682 39.7571 120.165 39.2688C120.649 38.7805 121.391 38.5364 122.394 38.5364H126.156C126.12 37.9104 125.957 37.4844 125.667 37.2532C125.378 37.0247 124.879 36.9104 124.173 36.9104H123.141C122.549 36.9104 122.107 36.9493 121.815 37.0299C121.525 37.1104 121.321 37.2558 121.202 37.4636C121.096 37.713 120.985 37.887 120.874 37.9831C120.762 38.0792 120.592 38.126 120.367 38.126C120.119 38.126 119.922 38.0558 119.78 37.9156C119.638 37.7753 119.596 37.5883 119.656 37.3571C119.834 36.6844 120.206 36.1909 120.773 35.8792C121.339 35.5675 122.13 35.4091 123.144 35.4091H124.175C125.362 35.4091 126.239 35.6948 126.807 36.2662C127.376 36.8377 127.661 37.7208 127.661 38.9104V43.7182C127.661 44.2195 127.413 44.4688 126.913 44.4688C126.414 44.4688 126.166 44.2195 126.166 43.7182V43.3156C125.53 44.0844 124.607 44.4688 123.392 44.4688H122.396H122.394ZM122.394 42.9675H123.389C123.829 42.9675 124.24 42.9286 124.625 42.848C125.011 42.7675 125.341 42.6195 125.618 42.4065C125.892 42.1909 126.076 41.8844 126.166 41.487V40.0403H122.396C121.81 40.0403 121.419 40.139 121.225 40.3338C121.034 40.5312 120.936 40.9208 120.936 41.5052C120.936 42.0896 121.031 42.487 121.225 42.6792C121.419 42.874 121.807 42.9701 122.396 42.9701L122.394 42.9675Z" fill="white"/>
<path d="M131.446 44.4688C130.95 44.4688 130.699 44.2195 130.699 43.7182V36.1597C130.699 35.6584 130.947 35.4091 131.446 35.4091C131.945 35.4091 132.193 35.6584 132.193 36.1597V36.4558C132.821 35.7597 133.747 35.4117 134.968 35.4117H135.467C136.653 35.4117 137.53 35.6974 138.099 36.2688C138.667 36.8403 138.952 37.7234 138.952 38.913V43.7208C138.952 44.2221 138.704 44.4714 138.205 44.4714C137.706 44.4714 137.457 44.2221 137.457 43.7208V38.913C137.457 38.1338 137.315 37.6039 137.036 37.326C136.754 37.0481 136.232 36.9104 135.467 36.9104H134.968C134.256 36.9104 133.636 36.9935 133.108 37.1571C132.581 37.3208 132.276 37.5779 132.193 37.9312V43.7208C132.193 44.2221 131.945 44.4714 131.446 44.4714V44.4688Z" fill="white"/>
<path d="M145.054 44.4688C143.875 44.4688 142.998 44.1805 142.424 43.6065C141.853 43.0325 141.566 42.152 141.566 40.9675V38.913C141.566 37.7208 141.853 36.8403 142.424 36.2688C142.996 35.6974 143.872 35.4117 145.054 35.4117H148.503V32.6429C148.503 32.1416 148.751 31.8922 149.25 31.8922C149.749 31.8922 149.997 32.1416 149.997 32.6429V43.7208C149.997 44.2221 149.749 44.4714 149.25 44.4714C148.751 44.4714 148.503 44.2221 148.503 43.7208V43.5961C148.224 43.8818 147.859 44.1 147.409 44.2481C146.959 44.3961 146.398 44.4714 145.729 44.4714H145.054V44.4688ZM145.054 42.9675H145.729C146.512 42.9675 147.169 42.8662 147.704 42.6636C148.239 42.461 148.506 42.152 148.506 41.7338V36.9104H145.056C144.286 36.9104 143.761 37.0507 143.482 37.3338C143.203 37.6169 143.063 38.1416 143.063 38.9104V40.9649C143.063 41.739 143.205 42.2662 143.484 42.5468C143.766 42.8273 144.289 42.9675 145.054 42.9675Z" fill="white"/>
<path d="M63.551 63.6429C63.8122 63.3805 63.8199 62.952 63.5562 62.6896L53.1337 52.2169C52.8726 51.9546 52.4356 51.9546 52.1848 52.2169C51.9237 52.4792 51.9159 52.9078 52.1796 53.1701L62.6021 63.6429C62.734 63.7753 62.9072 63.8403 63.0804 63.8403C63.2537 63.8403 63.4269 63.7753 63.5536 63.6429H63.551Z" fill="#C5C6C8"/>
<path d="M55.9287 69.5208C56.2494 69.3338 56.3579 68.9208 56.1744 68.5987L48.8003 55.7701C48.6064 55.4454 48.1927 55.3364 47.8824 55.5234C47.5618 55.7104 47.4532 56.1234 47.6368 56.4454L55.0109 69.274C55.1376 69.4896 55.3625 69.6117 55.5926 69.6117C55.709 69.6117 55.8227 69.5831 55.9287 69.5208Z" fill="#C5C6C8"/>
<path d="M47.0474 73.2143C47.4042 73.1182 47.6188 72.7467 47.5257 72.3883L43.7094 58.0818C43.6085 57.7208 43.2207 57.5026 42.8846 57.6039C42.5278 57.7 42.3132 58.0714 42.4063 58.4299L46.2226 72.7363C46.3053 73.0402 46.5742 73.2377 46.8741 73.2377C46.931 73.2377 46.9905 73.2299 47.0474 73.2143Z" fill="#C5C6C8"/>
<path d="M38.189 73.7987V58.9883C38.189 58.6169 37.8891 58.313 37.5167 58.313C37.1444 58.313 36.8445 58.6169 36.8445 58.9883V73.7987C36.8445 74.1701 37.1444 74.474 37.5167 74.474C37.8891 74.474 38.189 74.1701 38.189 73.7987Z" fill="#C5C6C8"/>
<path d="M28.8138 72.7364L32.6301 58.4299C32.7258 58.0714 32.5086 57.7 32.1518 57.6039C31.7949 57.513 31.4278 57.7208 31.327 58.0818L27.5106 72.3883C27.415 72.7468 27.6322 73.1182 27.989 73.2143C28.0459 73.2299 28.1053 73.2377 28.1622 73.2377C28.4621 73.2377 28.7284 73.0403 28.8138 72.7364Z" fill="#C5C6C8"/>
<path d="M20.028 69.274L27.3969 56.4455C27.5805 56.1208 27.4693 55.7104 27.1513 55.5234C26.8333 55.3364 26.417 55.4481 26.2334 55.7701L18.8645 68.5987C18.6809 68.9234 18.7921 69.3338 19.1101 69.5208C19.2161 69.5805 19.3299 69.6117 19.4462 69.6117C19.6764 69.6117 19.9039 69.4896 20.028 69.274Z" fill="#C5C6C8"/>
<path d="M12.4391 63.6429L22.8616 53.1701C23.1227 52.9078 23.1176 52.4792 22.8564 52.2169C22.6056 51.9546 22.1687 51.9546 21.9075 52.2169L11.485 62.6896C11.2239 62.952 11.2291 63.3805 11.4902 63.6429C11.6169 63.7753 11.7901 63.8403 11.9634 63.8403C12.1366 63.8403 12.3098 63.7753 12.4417 63.6429H12.4391Z" fill="#C5C6C8"/>
<path d="M6.54929 56.2299L19.3195 48.8247C19.6401 48.6377 19.7487 48.2247 19.5651 47.9026C19.3764 47.5779 18.9575 47.4688 18.6472 47.6558L5.87704 55.061C5.55642 55.2481 5.44783 55.661 5.63141 55.9831C5.7581 56.1987 5.98305 56.3208 6.21316 56.3208C6.32951 56.3208 6.44328 56.2922 6.54929 56.2299Z" fill="#C5C6C8"/>
<path d="M37.5167 16.661C37.1444 16.661 36.8445 16.3571 36.8445 15.9857V1.17532C36.8445 0.803896 37.1444 0.5 37.5167 0.5C37.8891 0.5 38.189 0.803896 38.189 1.17532V15.9857C38.189 16.3571 37.8891 16.661 37.5167 16.661Z" fill="white"/>
<path d="M43.7093 16.8922L47.5256 2.58571C47.6213 2.22726 47.4041 1.85584 47.0473 1.75973C46.6853 1.66363 46.3233 1.87921 46.2225 2.23765L42.4061 16.5441C42.3105 16.9026 42.5277 17.274 42.8845 17.3701C42.9414 17.3857 43.0008 17.3935 43.0577 17.3935C43.3576 17.3935 43.624 17.1961 43.7093 16.8922Z" fill="white"/>
<path d="M48.8002 19.2039L56.1743 6.37533C56.3579 6.05325 56.2467 5.64026 55.9287 5.45325C55.6081 5.27143 55.1995 5.37533 55.0108 5.7L47.6367 18.5286C47.4531 18.8507 47.5643 19.2636 47.8823 19.4507C47.9883 19.5104 48.1021 19.5416 48.2185 19.5416C48.4486 19.5416 48.6761 19.4195 48.8002 19.2039Z" fill="white"/>
<path d="M53.1313 22.7598L63.5537 12.287C63.8149 12.0247 63.8097 11.5961 63.5486 11.3338C63.2978 11.0714 62.8608 11.0714 62.5997 11.3338L52.1772 21.8065C51.916 22.0688 51.9212 22.4974 52.1823 22.7598C52.309 22.8922 52.4823 22.9572 52.6555 22.9572C52.8287 22.9572 53.002 22.8922 53.1338 22.7598H53.1313Z" fill="white"/>
<path d="M56.3916 27.3208L69.1618 19.9156C69.4824 19.7286 69.591 19.3156 69.4074 18.9935C69.2135 18.6688 68.805 18.5597 68.4895 18.7468L55.7193 26.152C55.3987 26.339 55.2901 26.752 55.4737 27.074C55.6004 27.2896 55.8253 27.4117 56.0554 27.4117C56.1718 27.4117 56.2856 27.3831 56.3916 27.3208Z" fill="white"/>
<path d="M2.77695 47.5364L17.0158 43.7026C17.3726 43.6065 17.5872 43.2351 17.4941 42.8766C17.3933 42.513 17.0054 42.2948 16.6693 42.3987L2.43048 46.2325C2.07367 46.3286 1.85907 46.7 1.95215 47.0584C2.03489 47.3623 2.30379 47.5597 2.60372 47.5597C2.6606 47.5597 2.72007 47.5519 2.77695 47.5364Z" fill="#C5C6C8"/>
<path d="M16.7907 37.487C16.7907 37.1156 16.4907 36.8117 16.1184 36.8117H1.37025C0.997926 36.8117 0.697998 37.1156 0.697998 37.487C0.697998 37.8585 0.997926 38.1624 1.37025 38.1624H16.1184C16.4907 38.1624 16.7907 37.8585 16.7907 37.487Z" fill="#C5C6C8"/>
<path d="M17.494 32.0948C17.5897 31.7364 17.3725 31.3649 17.0156 31.2688L2.77685 27.4351C2.43038 27.3441 2.05805 27.5519 1.95205 27.913C1.85638 28.2714 2.07357 28.6428 2.43038 28.7389L16.6692 32.5727C16.7261 32.5883 16.7855 32.5961 16.8424 32.5961C17.1423 32.5961 17.4087 32.3987 17.494 32.0948Z" fill="#C5C6C8"/>
<path d="M19.5677 27.074C19.7513 26.7519 19.6401 26.3389 19.3221 26.1519L6.5519 18.7467C6.23129 18.5597 5.82277 18.6714 5.63402 18.9935C5.45044 19.3156 5.56162 19.7286 5.87965 19.9156L18.6498 27.3208C18.7558 27.3805 18.8696 27.4117 18.986 27.4117C19.2161 27.4117 19.4436 27.2896 19.5677 27.074Z" fill="#C5C6C8"/>
<path d="M22.8564 22.7598C23.1176 22.4974 23.1253 22.0688 22.8616 21.8065L12.4391 11.3338C12.178 11.0714 11.741 11.0714 11.4902 11.3338C11.2291 11.5961 11.2213 12.0247 11.485 12.287L21.9075 22.7598C22.0394 22.8922 22.2126 22.9572 22.3859 22.9572C22.5591 22.9572 22.7323 22.8922 22.859 22.7598H22.8564Z" fill="white"/>
<path d="M27.1511 19.4532C27.4717 19.2662 27.5803 18.8558 27.3967 18.5312L20.0278 5.70259C19.8339 5.37532 19.4254 5.27402 19.1099 5.45584C18.7893 5.64285 18.6807 6.05324 18.8643 6.37791L26.2332 19.2065C26.3599 19.4221 26.5849 19.5441 26.815 19.5441C26.9313 19.5441 27.0451 19.5156 27.1511 19.4532Z" fill="white"/>
<path d="M32.1516 17.3701C32.5084 17.274 32.723 16.9026 32.63 16.5442L28.8136 2.23768C28.7128 1.87404 28.3301 1.65326 27.9888 1.75975C27.632 1.85586 27.4174 2.22729 27.5105 2.58573L31.3268 16.8922C31.4096 17.1961 31.6785 17.3935 31.9784 17.3935C32.0353 17.3935 32.0947 17.3857 32.1516 17.3701Z" fill="white"/>
<path d="M43.0603 17.7182C42.9776 17.7182 42.8871 17.7078 42.8043 17.6844C42.2743 17.5416 41.9588 16.9935 42.101 16.461L44.0738 9.05325C44.216 8.52338 44.7564 8.19611 45.2916 8.34676C45.8217 8.48962 46.1371 9.03767 45.9949 9.57014L44.0221 16.9779C43.9006 17.4247 43.5024 17.7182 43.0629 17.7182H43.0603ZM49.0795 19.3649L52.0555 14.1883C52.3296 13.7104 52.1667 13.1026 51.6935 12.8247C51.2152 12.5442 50.6076 12.713 50.3335 13.1909L47.3575 18.3675C47.0835 18.8455 47.2463 19.4533 47.7195 19.7312C47.8772 19.8247 48.0505 19.8662 48.2185 19.8662C48.5598 19.8662 48.896 19.687 49.0795 19.3649ZM53.2785 22.913L56.5286 19.6507C56.8751 19.3026 56.8751 18.739 56.5338 18.3909C56.1873 18.0429 55.6262 18.0429 55.2798 18.3909L52.0297 21.6533C51.6832 22.0013 51.6832 22.5649 52.0245 22.913C52.1977 23.087 52.4279 23.1727 52.6554 23.1727C52.8829 23.1727 53.1079 23.087 53.2811 22.913H53.2785ZM56.4691 27.461L59.4658 25.7234C59.864 25.4922 60.001 24.9805 59.7709 24.5805C59.546 24.1831 59.0366 24.0403 58.6384 24.274L55.6417 26.0117C55.2436 26.2429 55.1065 26.7546 55.3366 27.1546C55.4892 27.4247 55.7658 27.5701 56.0554 27.5701C56.1976 27.5701 56.3398 27.5364 56.4691 27.4585V27.461ZM64.3888 64.4818C65.1127 63.7546 65.1127 62.5727 64.3888 61.8455L53.9663 51.3727C53.2423 50.6455 52.0659 50.6455 51.3419 51.3727C50.618 52.1 50.618 53.2818 51.3419 54.0091L61.7644 64.4818C62.1264 64.8455 62.6047 65.0273 63.0753 65.0273C63.5459 65.0273 64.0242 64.8455 64.3862 64.4818H64.3888ZM56.495 70.5C57.356 70.0013 57.6507 68.8948 57.1517 68.0299L49.7776 55.2013C49.2786 54.3286 48.1616 54.0351 47.3162 54.539C46.4552 55.0377 46.1604 56.1442 46.6594 57.0091L54.0335 69.8377C54.3645 70.4169 54.9721 70.7416 55.5926 70.7416C55.9029 70.7416 56.2131 70.6663 56.495 70.5ZM47.3265 74.2559C48.2599 74.0065 48.8106 73.0429 48.5598 72.1078L44.7435 57.8013C44.503 56.8688 43.5671 56.3208 42.6078 56.5598C41.6744 56.8091 41.1237 57.7727 41.3745 58.7078L45.1908 73.0143C45.3951 73.7987 46.1035 74.3156 46.8766 74.3156C47.024 74.3156 47.1765 74.2948 47.3291 74.2559H47.3265ZM39.2129 73.7961V58.9857C39.2129 58.0481 38.4528 57.2844 37.5168 57.2844C36.5808 57.2844 35.8207 58.0455 35.8207 58.9857V73.7961C35.8207 74.7338 36.5808 75.4974 37.5168 75.4974C38.4528 75.4974 39.2129 74.7364 39.2129 73.7961ZM29.7497 72.9857L33.566 58.6792C33.7962 57.7987 33.2764 56.8974 32.4051 56.6637C31.5389 56.4299 30.6366 56.9494 30.3961 57.8273L26.5798 72.1338C26.3497 73.0143 26.8694 73.9156 27.7407 74.1494C27.8829 74.1883 28.0251 74.2065 28.1647 74.2065C28.8887 74.2065 29.5506 73.7208 29.7497 72.9857ZM20.8217 69.726L28.1906 56.8974C28.625 56.1364 28.3638 55.1598 27.6088 54.7234C26.8487 54.287 25.8817 54.539 25.4421 55.3052L18.0732 68.1338C17.6388 68.8948 17.9 69.8714 18.655 70.3078C18.9058 70.4533 19.1747 70.5208 19.4488 70.5208C19.9943 70.5208 20.5295 70.2351 20.8243 69.7234L20.8217 69.726ZM13.0443 64.2481L23.4667 53.7753C24.064 53.1753 24.064 52.1987 23.4667 51.5987C22.8695 50.9987 21.9025 50.9987 21.3052 51.5987L10.8827 62.0714C10.2854 62.6714 10.2854 63.6481 10.8827 64.2481C11.1826 64.5494 11.5705 64.7 11.9635 64.7C12.3565 64.7 12.7443 64.5494 13.0443 64.2481ZM6.95522 56.9234L19.7254 49.5182C20.4287 49.1078 20.6743 48.2013 20.2658 47.487C19.8573 46.7753 18.9549 46.5364 18.2439 46.9442L5.47368 54.3494C4.7704 54.7598 4.52477 55.6662 4.93329 56.3805C5.20736 56.8559 5.70379 57.1208 6.21315 57.1208C6.46396 57.1208 6.71734 57.0585 6.95263 56.9234H6.95522ZM2.97083 48.2611L17.2096 44.4273C17.9698 44.2247 18.4223 43.4377 18.218 42.6766C18.0138 41.913 17.2148 41.4481 16.4753 41.6636L2.23653 45.4974C1.47637 45.7 1.02389 46.487 1.22815 47.2481C1.39621 47.8896 1.9728 48.3104 2.60368 48.3104C2.7252 48.3104 2.84931 48.2948 2.97083 48.2611ZM17.4889 37.4818C17.4889 36.7234 16.8735 36.1052 16.1185 36.1052H1.37036C0.615369 36.1052 0 36.7234 0 37.4818C0 38.2403 0.615369 38.8585 1.37036 38.8585H16.1185C16.8735 38.8585 17.4889 38.2403 17.4889 37.4818ZM18.1146 32.2584C18.3033 31.552 17.8896 30.8273 17.1864 30.6377L2.94756 26.8039C2.20809 26.6195 1.52032 27.0377 1.33675 27.739C1.148 28.4455 1.56169 29.1701 2.26497 29.3597L16.5038 33.1935C16.6201 33.2221 16.7339 33.2377 16.8451 33.2377C17.4268 33.2377 17.9569 32.8481 18.1146 32.2559V32.2584ZM20.077 27.3649C20.4287 26.7572 20.2193 25.9805 19.6142 25.6299L6.84145 18.2273C6.23384 17.874 5.46075 18.0818 5.11945 18.6922C4.76781 19.3 4.97725 20.0766 5.58227 20.4273L18.355 27.8299C18.5541 27.9468 18.7687 27.9987 18.9859 27.9987C19.4203 27.9987 19.8469 27.7727 20.077 27.3649ZM23.2418 23.1364C23.715 22.661 23.715 21.8922 23.2418 21.4169L13.4735 11.6013C13.0003 11.126 12.235 11.126 11.7618 11.6013C11.2887 12.0766 11.2887 12.8455 11.7618 13.3208L21.5301 23.1364C21.7654 23.3727 22.0757 23.4922 22.386 23.4922C22.6962 23.4922 23.0065 23.3727 23.2418 23.1364ZM27.3942 19.8636C27.945 19.5442 28.1337 18.8325 27.8183 18.2792L21.5043 7.29221C21.1785 6.73637 20.4701 6.54676 19.9245 6.86884C19.3738 7.18832 19.185 7.90001 19.5005 8.45325L25.8145 19.4403C26.0291 19.8117 26.4169 20.0195 26.8177 20.0195C27.0168 20.0195 27.2107 19.9701 27.3942 19.8636ZM32.2655 17.7805C32.8524 17.6221 33.204 17.0143 33.0463 16.4221L30.1867 5.68962C30.029 5.10001 29.4265 4.75715 28.837 4.9078C28.2501 5.06624 27.8984 5.67403 28.0562 6.26624L30.9158 16.9987C31.0477 17.4922 31.4924 17.8195 31.9811 17.8195C32.0767 17.8195 32.1698 17.8065 32.2655 17.7831V17.7805ZM38.5691 15.9779V6.56234C38.5691 5.98053 38.096 5.5104 37.5194 5.5104C36.9428 5.5104 36.4696 5.98053 36.4696 6.56234V15.9857C36.4696 16.5675 36.9428 17.0377 37.5194 17.0377C38.096 17.0377 38.5691 16.5675 38.5691 15.9857V15.9779Z" fill="url(#paint0_linear_347_1375)"/>
<path d="M80.7838 54.326C80.67 54.326 80.6157 54.2688 80.6157 54.1571V50.3779C80.6157 50.2662 80.6726 50.2091 80.7838 50.2091C80.895 50.2091 80.9493 50.2662 80.9493 50.3779V52.2143L82.8393 50.2688C82.9169 50.1909 82.9919 50.1883 83.072 50.2662C83.1548 50.3442 83.1573 50.4221 83.0772 50.5052L81.6525 51.9727L83.328 54.061C83.3978 54.1494 83.3901 54.2273 83.3047 54.2974C83.2168 54.3675 83.1393 54.3597 83.072 54.274L81.4173 52.2143L80.9467 52.6974V54.1571C80.9467 54.2688 80.8924 54.326 80.7812 54.326H80.7838Z" fill="white"/>
<path d="M84.1607 54.326C84.0496 54.326 83.9927 54.2688 83.9927 54.1572V51.474C83.9927 51.3623 84.0496 51.3078 84.1607 51.3078C84.2719 51.3078 84.3262 51.3623 84.3262 51.474V51.7805C84.5279 51.4662 84.8925 51.3078 85.4199 51.3078H85.5983C85.9939 51.3078 86.2835 51.3987 86.4671 51.5831C86.6507 51.7675 86.7412 52.0584 86.7412 52.4559V54.1546C86.7412 54.2662 86.6869 54.3234 86.5757 54.3234C86.4645 54.3234 86.4076 54.2662 86.4076 54.1546V52.4559C86.4076 52.152 86.3481 51.939 86.2292 51.8195C86.1103 51.7 85.8982 51.6403 85.5983 51.6403H85.4199C85.0915 51.6403 84.833 51.6922 84.6442 51.7961C84.4555 51.9 84.3495 52.0636 84.3262 52.2844V54.1546C84.3262 54.2662 84.2719 54.3234 84.1607 54.3234V54.326Z" fill="white"/>
<path d="M88.8096 54.326C88.414 54.326 88.1218 54.2351 87.9383 54.0507C87.7547 53.8662 87.6616 53.5753 87.6616 53.1805V52.4584C87.6616 52.0558 87.7547 51.7623 87.9383 51.5779C88.1218 51.3935 88.414 51.3026 88.8096 51.3078H89.3319C89.7275 51.3078 90.0197 51.3987 90.2007 51.5831C90.3842 51.7675 90.4747 52.0584 90.4747 52.4558V53.1701C90.4747 53.5675 90.3842 53.861 90.2007 54.0455C90.0171 54.2299 89.7275 54.3234 89.3319 54.3234H88.8096V54.326ZM87.9952 53.1779C87.9952 53.4792 88.0546 53.6896 88.1761 53.8091C88.2977 53.9286 88.5071 53.9909 88.8096 53.9909H89.3319C89.6344 53.9909 89.8464 53.9312 89.9654 53.8091C90.0843 53.6896 90.1438 53.4766 90.1438 53.1727V52.4584C90.1438 52.1545 90.0843 51.9416 89.9654 51.8221C89.8464 51.7026 89.6344 51.6429 89.3319 51.6429H88.8096C88.6054 51.6429 88.445 51.6662 88.3261 51.7156C88.2072 51.7675 88.1219 51.8533 88.0727 51.9701C88.021 52.0896 87.9952 52.2507 87.9952 52.4558V53.1779Z" fill="white"/>
<path d="M91.9846 54.326C91.8838 54.326 91.8191 54.2792 91.7907 54.1883L90.8935 51.5338C90.8573 51.4247 90.8935 51.3546 90.9995 51.3208C91.1029 51.2896 91.1727 51.3234 91.2064 51.4273L92.0777 53.9935H91.9432L92.7758 51.4766C92.8042 51.3883 92.8689 51.3416 92.9671 51.3416C93.0654 51.3416 93.1197 51.3883 93.1481 51.4792L93.9264 53.9857H93.7868L94.7021 51.4273C94.7434 51.3182 94.8158 51.2844 94.9192 51.3208C95.0253 51.3623 95.0589 51.4325 95.0201 51.539L94.0376 54.1909C94.004 54.2818 93.9367 54.3286 93.8411 54.3286C93.7325 54.3286 93.6652 54.2818 93.6368 54.1909L92.9154 51.8688H92.9801L92.1863 54.1909C92.1682 54.2455 92.1423 54.2792 92.1061 54.3C92.0699 54.3182 92.0286 54.3286 91.9846 54.3286V54.326Z" fill="white"/>
<path d="M96.5275 54.326C96.2276 54.326 96.0052 54.2558 95.8656 54.1156C95.7234 53.9753 95.6536 53.7545 95.6536 53.4532V50.061C95.6536 49.9494 95.7104 49.8948 95.8216 49.8948C95.9328 49.8948 95.9871 49.9494 95.9871 50.061V53.4532C95.9871 53.6584 96.0259 53.8013 96.1009 53.8766C96.1758 53.9519 96.3181 53.9909 96.5249 53.9909C96.6387 53.9909 96.6981 54.0455 96.6981 54.1571C96.6981 54.2688 96.6438 54.326 96.5301 54.326H96.5275Z" fill="white"/>
<path d="M97.5022 52.9467V53.1805C97.5022 53.4818 97.5617 53.6922 97.6832 53.8117C97.8022 53.9312 98.0142 53.9935 98.3167 53.9935H98.839C99.1053 53.9935 99.3018 53.9597 99.4233 53.8896C99.5449 53.8195 99.6172 53.7 99.6405 53.5312C99.6483 53.4766 99.6664 53.4377 99.6922 53.4091C99.7181 53.3805 99.7595 53.3675 99.8138 53.3675C99.8681 53.3675 99.912 53.3831 99.9404 53.4143C99.9689 53.4455 99.9792 53.4896 99.9741 53.5442C99.9456 53.8117 99.8396 54.0117 99.6535 54.139C99.4673 54.2662 99.1958 54.3312 98.839 54.3312H98.3167C97.9211 54.3312 97.6289 54.2403 97.4454 54.0558C97.2618 53.8714 97.1687 53.5805 97.1687 53.1857V52.4636C97.1687 52.061 97.2618 51.7675 97.4454 51.5831C97.6289 51.3987 97.9211 51.3078 98.3167 51.313H98.839C99.2346 51.313 99.5242 51.4039 99.7077 51.5883C99.8913 51.7727 99.9818 52.0636 99.9818 52.461V52.7805C99.9818 52.8922 99.9275 52.9493 99.8163 52.9493H97.5022V52.9467ZM98.3167 51.6429C98.0142 51.6377 97.8022 51.6974 97.6832 51.8169C97.5643 51.9364 97.5022 52.1519 97.5022 52.4584V52.6117H99.6483V52.4584C99.6483 52.1545 99.5888 51.9416 99.4699 51.8221C99.3509 51.7026 99.1389 51.6429 98.8364 51.6429H98.3141H98.3167Z" fill="white"/>
<path d="M102.019 54.326C101.624 54.326 101.332 54.2325 101.148 54.0481C100.964 53.8636 100.871 53.5701 100.871 53.1727V52.4584C100.871 52.061 100.964 51.7701 101.148 51.5857C101.332 51.4013 101.624 51.3104 102.019 51.3104H103.351V50.0636C103.351 49.9519 103.408 49.8974 103.519 49.8974C103.63 49.8974 103.684 49.9519 103.684 50.0636V54.1597C103.684 54.2714 103.63 54.3286 103.519 54.3286C103.408 54.3286 103.351 54.2714 103.351 54.1597V53.8844C103.26 54.0325 103.126 54.1416 102.95 54.2169C102.774 54.2922 102.544 54.3286 102.26 54.3286H102.019V54.326ZM102.019 53.9909H102.26C102.591 53.9909 102.854 53.939 103.054 53.8325C103.253 53.726 103.351 53.5675 103.351 53.3571V51.6403H102.019C101.717 51.6403 101.505 51.7 101.386 51.8221C101.267 51.9442 101.205 52.1545 101.205 52.4558V53.1701C101.205 53.474 101.264 53.687 101.386 53.8065C101.507 53.926 101.717 53.9883 102.019 53.9883V53.9909Z" fill="white"/>
<path d="M105.422 55.6039C105.171 55.6039 104.98 55.552 104.851 55.4481C104.719 55.3442 104.641 55.1831 104.618 54.9597C104.613 54.9052 104.623 54.861 104.654 54.8299C104.685 54.7987 104.724 54.7831 104.778 54.7831C104.833 54.7831 104.871 54.7961 104.9 54.8247C104.928 54.8533 104.946 54.8948 104.954 54.9494C104.97 55.0714 105.014 55.1572 105.083 55.2013C105.156 55.2455 105.269 55.2688 105.425 55.2688H106.606C106.792 55.2688 106.919 55.2351 106.986 55.1675C107.054 55.1 107.087 54.9727 107.087 54.7831V53.8688C106.989 54.0169 106.852 54.1312 106.673 54.2091C106.495 54.287 106.27 54.326 105.996 54.326H105.753C105.357 54.326 105.065 54.2351 104.882 54.0507C104.698 53.8662 104.605 53.5753 104.605 53.1805V52.4584C104.605 52.0559 104.695 51.7649 104.879 51.5805C105.063 51.3961 105.352 51.3078 105.753 51.3078H106.275C106.482 51.3078 106.653 51.3364 106.782 51.3909C106.911 51.4455 107.012 51.5338 107.087 51.6507V51.474C107.087 51.3623 107.144 51.3078 107.255 51.3078C107.366 51.3078 107.421 51.3623 107.421 51.474V54.7831C107.421 55.0636 107.356 55.2714 107.224 55.4039C107.092 55.5364 106.888 55.6039 106.606 55.6039H105.425H105.422ZM105.753 53.9909H105.996C106.327 53.9909 106.591 53.939 106.79 53.8351C106.989 53.7312 107.087 53.5727 107.087 53.3597V52.2922C107.087 52.0507 107.02 51.8844 106.888 51.7883C106.754 51.6922 106.552 51.6455 106.278 51.6455H105.756C105.453 51.6455 105.241 51.7052 105.122 51.8221C105.003 51.939 104.941 52.152 104.941 52.4584V53.1805C104.941 53.4818 105.001 53.6922 105.122 53.8117C105.244 53.9312 105.453 53.9935 105.756 53.9935L105.753 53.9909Z" fill="white"/>
<path d="M108.675 52.9467V53.1805C108.675 53.4818 108.734 53.6922 108.853 53.8117C108.972 53.9312 109.184 53.9935 109.486 53.9935H110.009C110.275 53.9935 110.471 53.9597 110.593 53.8896C110.715 53.8195 110.787 53.7 110.81 53.5312C110.818 53.4766 110.836 53.4377 110.862 53.4091C110.888 53.3805 110.929 53.3675 110.983 53.3675C111.038 53.3675 111.082 53.3831 111.11 53.4143C111.139 53.4455 111.149 53.4896 111.144 53.5442C111.115 53.8117 111.009 54.0117 110.823 54.139C110.637 54.2662 110.365 54.3312 110.009 54.3312H109.486C109.091 54.3312 108.799 54.2403 108.615 54.0558C108.431 53.8714 108.338 53.5805 108.338 53.1857V52.4636C108.338 52.061 108.431 51.7675 108.615 51.5831C108.799 51.3987 109.091 51.3078 109.486 51.313H110.009C110.404 51.313 110.696 51.4039 110.877 51.5883C111.061 51.7727 111.151 52.0636 111.151 52.461V52.7805C111.151 52.8922 111.097 52.9493 110.986 52.9493H108.672L108.675 52.9467ZM109.489 51.6429C109.186 51.6377 108.974 51.6974 108.855 51.8169C108.737 51.9364 108.677 52.1519 108.677 52.4584V52.6117H110.823V52.4584C110.823 52.1545 110.764 51.9416 110.645 51.8221C110.526 51.7026 110.314 51.6429 110.011 51.6429H109.489Z" fill="white"/>
<path d="M114.492 54.326C114.161 54.326 113.918 54.2481 113.766 54.0948C113.613 53.9416 113.535 53.6974 113.535 53.365C113.535 53.0325 113.613 52.7883 113.768 52.6325C113.923 52.4766 114.164 52.3987 114.492 52.3987H115.94C115.935 52.1182 115.873 51.9208 115.751 51.8091C115.63 51.6974 115.423 51.6403 115.131 51.6403H114.761C114.492 51.6403 114.296 51.6688 114.169 51.726C114.045 51.7831 113.967 51.8818 113.936 52.0195C113.921 52.0714 113.903 52.1104 113.877 52.1364C113.853 52.1598 113.815 52.1727 113.76 52.1727C113.706 52.1727 113.662 52.1572 113.631 52.126C113.6 52.0948 113.59 52.0533 113.597 51.9987C113.626 51.7546 113.734 51.5779 113.926 51.4688C114.117 51.3572 114.394 51.3026 114.758 51.3026H115.128C115.524 51.3026 115.813 51.3935 115.997 51.5779C116.18 51.7624 116.271 52.0533 116.271 52.4507V54.1494C116.271 54.2611 116.217 54.3182 116.105 54.3182C115.994 54.3182 115.937 54.2611 115.937 54.1494V53.8325C115.733 54.1572 115.371 54.3182 114.846 54.3182H114.489L114.492 54.326ZM114.492 53.9909H114.849C115.053 53.9909 115.234 53.9675 115.392 53.9234C115.547 53.8766 115.674 53.8039 115.769 53.7026C115.865 53.6013 115.922 53.4637 115.943 53.2948V52.739H114.495C114.259 52.739 114.096 52.7831 114.006 52.874C113.915 52.965 113.872 53.1286 113.872 53.3675C113.872 53.6065 113.915 53.7675 114.006 53.8585C114.096 53.9494 114.259 53.9935 114.495 53.9935L114.492 53.9909Z" fill="white"/>
<path d="M117.447 54.326C117.336 54.326 117.279 54.2688 117.279 54.1572V51.474C117.279 51.3623 117.336 51.3078 117.447 51.3078C117.559 51.3078 117.613 51.3623 117.613 51.474V51.7805C117.815 51.4662 118.179 51.3078 118.707 51.3078H118.885C119.281 51.3078 119.57 51.3987 119.754 51.5831C119.937 51.7675 120.028 52.0584 120.028 52.4559V54.1546C120.028 54.2662 119.973 54.3234 119.862 54.3234C119.751 54.3234 119.694 54.2662 119.694 54.1546V52.4559C119.694 52.152 119.635 51.939 119.516 51.8195C119.397 51.7 119.185 51.6403 118.885 51.6403H118.707C118.378 51.6403 118.12 51.6922 117.931 51.7961C117.742 51.9 117.636 52.0636 117.613 52.2844V54.1546C117.613 54.2662 117.559 54.3234 117.447 54.3234V54.326Z" fill="white"/>
<path d="M122.096 54.326C121.701 54.326 121.408 54.2325 121.225 54.0481C121.041 53.8636 120.948 53.5701 120.948 53.1727V52.4584C120.948 52.061 121.041 51.7701 121.225 51.5857C121.408 51.4013 121.701 51.3104 122.096 51.3104H123.428V50.0636C123.428 49.9519 123.485 49.8974 123.596 49.8974C123.707 49.8974 123.761 49.9519 123.761 50.0636V54.1597C123.761 54.2714 123.707 54.3286 123.596 54.3286C123.485 54.3286 123.428 54.2714 123.428 54.1597V53.8844C123.337 54.0325 123.203 54.1416 123.027 54.2169C122.851 54.2922 122.621 54.3286 122.337 54.3286H122.096V54.326ZM122.096 53.9909H122.337C122.668 53.9909 122.931 53.939 123.13 53.8325C123.33 53.726 123.428 53.5675 123.428 53.3571V51.6403H122.096C121.794 51.6403 121.582 51.7 121.463 51.8221C121.344 51.9442 121.282 52.1545 121.282 52.4558V53.1701C121.282 53.474 121.341 53.687 121.463 53.8065C121.584 53.926 121.794 53.9883 122.096 53.9883V53.9909Z" fill="white"/>
<path d="M126.895 54.3208C126.634 54.3208 126.435 54.2636 126.298 54.1519C126.161 54.0402 126.078 53.8688 126.05 53.6377C126.044 53.5831 126.055 53.539 126.086 53.5078C126.117 53.4766 126.158 53.461 126.215 53.461C126.267 53.461 126.308 53.474 126.334 53.5026C126.36 53.5312 126.378 53.5727 126.386 53.6273C126.404 53.7597 126.453 53.8506 126.531 53.9026C126.608 53.9545 126.73 53.9805 126.895 53.9805H127.937C128.134 53.9805 128.271 53.9441 128.343 53.8688C128.418 53.7935 128.454 53.6584 128.454 53.461C128.454 53.2636 128.418 53.1234 128.343 53.048C128.268 52.9727 128.134 52.9364 127.937 52.9364H126.905C126.629 52.9364 126.425 52.8688 126.29 52.7364C126.156 52.6039 126.088 52.3987 126.088 52.1208C126.088 51.8428 126.156 51.6299 126.287 51.4974C126.422 51.3649 126.626 51.2974 126.905 51.2974H127.903C128.382 51.2974 128.648 51.5104 128.702 51.9364C128.71 51.9909 128.7 52.0351 128.669 52.0662C128.638 52.0974 128.596 52.113 128.54 52.113C128.483 52.113 128.446 52.1 128.421 52.0714C128.395 52.0428 128.377 52.0039 128.366 51.9493C128.351 51.8299 128.309 51.7467 128.237 51.7026C128.165 51.6584 128.056 51.6351 127.903 51.6351H126.905C126.722 51.6351 126.595 51.6688 126.525 51.7364C126.456 51.8039 126.422 51.9338 126.422 52.1234C126.422 52.313 126.458 52.4299 126.528 52.5C126.598 52.5701 126.724 52.6039 126.905 52.6039H127.937C128.229 52.6039 128.444 52.674 128.583 52.8143C128.721 52.9545 128.79 53.1701 128.79 53.4636C128.79 53.7571 128.721 53.9701 128.583 54.1104C128.446 54.2506 128.229 54.3208 127.937 54.3208H126.895Z" fill="white"/>
<path d="M129.91 52.9467V53.1805C129.91 53.4818 129.969 53.6922 130.091 53.8117C130.212 53.9312 130.422 53.9935 130.724 53.9935H131.247C131.513 53.9935 131.71 53.9597 131.831 53.8896C131.953 53.8195 132.025 53.7 132.048 53.5312C132.056 53.4766 132.074 53.4377 132.1 53.4091C132.126 53.3805 132.167 53.3675 132.221 53.3675C132.276 53.3675 132.32 53.3831 132.348 53.4143C132.377 53.4455 132.387 53.4896 132.382 53.5442C132.353 53.8117 132.247 54.0117 132.061 54.139C131.875 54.2662 131.604 54.3312 131.247 54.3312H130.724C130.329 54.3312 130.037 54.2403 129.853 54.0558C129.669 53.8714 129.576 53.5805 129.576 53.1857V52.4636C129.576 52.061 129.669 51.7675 129.853 51.5831C130.037 51.3987 130.329 51.3078 130.724 51.313H131.247C131.642 51.313 131.934 51.4039 132.115 51.5883C132.299 51.7727 132.39 52.0636 132.39 52.461V52.7805C132.39 52.8922 132.335 52.9493 132.224 52.9493H129.91V52.9467ZM130.724 51.6429C130.422 51.6377 130.21 51.6974 130.091 51.8169C129.972 51.9364 129.91 52.1519 129.91 52.4584V52.6117H132.056V52.4584C132.056 52.1545 131.997 51.9416 131.878 51.8221C131.759 51.7026 131.547 51.6429 131.244 51.6429H130.722H130.724Z" fill="white"/>
<path d="M133.535 54.326C133.424 54.326 133.367 54.2688 133.367 54.1572V51.474C133.367 51.3623 133.424 51.3078 133.535 51.3078C133.646 51.3078 133.7 51.3623 133.7 51.474V51.9649C133.812 51.752 133.969 51.5883 134.179 51.4766C134.388 51.3623 134.634 51.3078 134.921 51.3078C135.032 51.3078 135.089 51.3623 135.089 51.474C135.089 51.5857 135.032 51.6429 134.921 51.6429C134.543 51.6429 134.251 51.7286 134.042 51.9C133.835 52.0714 133.719 52.3156 133.698 52.6325V54.1572C133.698 54.2688 133.644 54.326 133.532 54.326H133.535Z" fill="white"/>
<path d="M136.793 54.1987C136.769 54.2506 136.741 54.2844 136.707 54.3C136.674 54.3156 136.635 54.326 136.588 54.326C136.495 54.326 136.431 54.2818 136.392 54.1961L135.213 51.5416C135.169 51.4377 135.2 51.3649 135.306 51.3234C135.404 51.2818 135.477 51.3104 135.523 51.4143L136.7 54.0584H136.495L137.749 51.4091C137.773 51.3597 137.804 51.3286 137.842 51.313C137.881 51.2974 137.925 51.3 137.972 51.3234C138.075 51.3701 138.104 51.4455 138.057 51.5467L136.795 54.1987H136.793Z" fill="white"/>
<path d="M138.794 50.7234C138.647 50.7234 138.574 50.648 138.574 50.4974V50.3519C138.574 50.2065 138.647 50.1338 138.794 50.1338H138.934C139.078 50.1338 139.151 50.2065 139.151 50.3519V50.4974C139.151 50.648 139.078 50.7234 138.934 50.7234H138.794ZM138.864 54.326C138.753 54.326 138.696 54.2688 138.696 54.1571V51.474C138.696 51.3623 138.753 51.3078 138.864 51.3078C138.975 51.3078 139.029 51.3623 139.029 51.474V54.1571C139.029 54.2688 138.975 54.326 138.864 54.326Z" fill="white"/>
<path d="M141.152 54.326C140.757 54.326 140.464 54.2325 140.281 54.0481C140.097 53.8636 140.004 53.5701 140.004 53.1727V52.4506C140.004 52.0532 140.095 51.7597 140.278 51.5779C140.462 51.3961 140.754 51.3026 141.152 51.3078H141.674C141.987 51.3078 142.225 51.3597 142.388 51.4662C142.554 51.5727 142.652 51.7364 142.683 51.9623C142.691 52.0195 142.678 52.0636 142.647 52.0922C142.616 52.1208 142.572 52.1364 142.517 52.1364C142.466 52.1364 142.429 52.1234 142.404 52.0974C142.378 52.0714 142.36 52.0325 142.347 51.9805C142.323 51.8584 142.261 51.7701 142.158 51.7182C142.055 51.6662 141.894 51.6403 141.674 51.6403H141.152C140.85 51.6351 140.638 51.6922 140.519 51.8117C140.4 51.9312 140.338 52.1416 140.338 52.4481V53.1701C140.338 53.474 140.397 53.687 140.519 53.8065C140.64 53.926 140.85 53.9883 141.152 53.9883H141.674C141.894 53.9883 142.057 53.9623 142.158 53.9104C142.259 53.8584 142.323 53.7701 142.347 53.6455C142.36 53.5935 142.378 53.5545 142.404 53.5286C142.429 53.5026 142.468 53.4896 142.517 53.4896C142.572 53.4896 142.616 53.5052 142.647 53.5364C142.678 53.5675 142.691 53.6117 142.683 53.6662C142.652 53.8922 142.554 54.0584 142.388 54.1649C142.223 54.2714 141.985 54.3234 141.674 54.3234H141.152V54.326Z" fill="white"/>
<path d="M143.844 52.9467V53.1805C143.844 53.4818 143.903 53.6922 144.025 53.8117C144.146 53.9312 144.355 53.9935 144.658 53.9935H145.18C145.447 53.9935 145.643 53.9597 145.765 53.8896C145.886 53.8195 145.959 53.7 145.982 53.5312C145.99 53.4766 146.008 53.4377 146.034 53.4091C146.059 53.3805 146.101 53.3675 146.155 53.3675C146.209 53.3675 146.251 53.3831 146.282 53.4143C146.313 53.4455 146.321 53.4896 146.315 53.5442C146.287 53.8117 146.181 54.0117 145.995 54.139C145.809 54.2662 145.537 54.3312 145.18 54.3312H144.658C144.262 54.3312 143.97 54.2403 143.787 54.0558C143.603 53.8714 143.51 53.5805 143.51 53.1857V52.4636C143.51 52.061 143.603 51.7675 143.787 51.5831C143.97 51.3987 144.262 51.3078 144.658 51.313H145.18C145.576 51.313 145.868 51.4039 146.049 51.5883C146.233 51.7727 146.323 52.0636 146.323 52.461V52.7805C146.323 52.8922 146.269 52.9493 146.158 52.9493H143.844V52.9467ZM144.658 51.6429C144.355 51.6377 144.143 51.6974 144.025 51.8169C143.906 51.9364 143.844 52.1519 143.844 52.4584V52.6117H145.99V52.4584C145.99 52.1545 145.93 51.9416 145.811 51.8221C145.692 51.7026 145.48 51.6429 145.178 51.6429H144.655H144.658Z" fill="white"/>
<path d="M147.957 54.3208C147.696 54.3208 147.497 54.2636 147.36 54.1519C147.223 54.0402 147.14 53.8688 147.112 53.6377C147.107 53.5831 147.117 53.539 147.148 53.5078C147.177 53.4766 147.22 53.461 147.277 53.461C147.329 53.461 147.37 53.474 147.396 53.5026C147.422 53.5312 147.44 53.5727 147.448 53.6273C147.466 53.7597 147.515 53.8506 147.593 53.9026C147.67 53.9545 147.792 53.9805 147.957 53.9805H148.999C149.196 53.9805 149.333 53.9441 149.405 53.8688C149.48 53.7935 149.516 53.6584 149.516 53.461C149.516 53.2636 149.48 53.1234 149.405 53.048C149.33 52.9727 149.196 52.9364 148.999 52.9364H147.968C147.691 52.9364 147.487 52.8688 147.352 52.7364C147.218 52.6039 147.151 52.3987 147.151 52.1208C147.151 51.8428 147.218 51.6299 147.35 51.4974C147.484 51.3649 147.688 51.2974 147.968 51.2974H148.966C149.444 51.2974 149.71 51.5104 149.765 51.9364C149.772 51.9909 149.762 52.0351 149.731 52.0662C149.7 52.0974 149.656 52.113 149.602 52.113C149.547 52.113 149.509 52.1 149.483 52.0714C149.457 52.0428 149.439 52.0039 149.426 51.9493C149.41 51.8299 149.369 51.7467 149.297 51.7026C149.224 51.6584 149.116 51.6351 148.963 51.6351H147.965C147.782 51.6351 147.655 51.6688 147.585 51.7364C147.515 51.8039 147.482 51.9338 147.482 52.1234C147.482 52.313 147.518 52.4299 147.588 52.5C147.657 52.5701 147.784 52.6039 147.965 52.6039H148.997C149.289 52.6039 149.504 52.674 149.643 52.8143C149.78 52.9545 149.85 53.1701 149.85 53.4636C149.85 53.7571 149.78 53.9701 149.643 54.1104C149.506 54.2506 149.289 54.3208 148.997 54.3208H147.955H147.957Z" fill="white"/>
<path d="M80.8356 62.139C80.7218 62.139 80.6675 62.0818 80.6675 61.9701V59.4558H80.4012C80.2874 59.4558 80.2332 59.3987 80.2332 59.287C80.2332 59.1753 80.29 59.1208 80.4012 59.1208H80.6675V58.8403C80.6675 58.4481 80.758 58.1623 80.939 57.9805C81.12 57.7987 81.407 57.7078 81.7948 57.7078C81.9034 57.7078 81.9577 57.7623 81.9577 57.874C81.9577 57.9857 81.9034 58.0429 81.7948 58.0429C81.4975 58.0429 81.2907 58.1 81.1743 58.2169C81.058 58.3338 80.9985 58.539 80.9985 58.8377V59.1182H81.7871C81.8983 59.1182 81.9552 59.1727 81.9552 59.2844C81.9552 59.3961 81.8983 59.4532 81.7871 59.4532H80.9985V61.9675C80.9985 62.0792 80.9442 62.1364 80.833 62.1364L80.8356 62.139Z" fill="white"/>
<path d="M83.4471 62.139C83.0515 62.139 82.7593 62.0481 82.5757 61.8636C82.3922 61.6792 82.2991 61.3883 82.2991 60.9935V60.2714C82.2991 59.8688 82.3922 59.5753 82.5757 59.3909C82.7593 59.2065 83.0515 59.1156 83.4471 59.1208H83.9694C84.365 59.1208 84.6571 59.2117 84.8381 59.3961C85.0217 59.5805 85.1122 59.8714 85.1122 60.2688V60.9831C85.1122 61.3805 85.0217 61.674 84.8381 61.8584C84.6545 62.0429 84.365 62.1364 83.9694 62.1364H83.4471V62.139ZM82.6326 60.9909C82.6326 61.2922 82.6921 61.5026 82.8136 61.6221C82.9351 61.7416 83.1446 61.8039 83.4471 61.8039H83.9694C84.2719 61.8039 84.4839 61.7442 84.6028 61.6221C84.7218 61.5026 84.7812 61.2896 84.7812 60.9857V60.2714C84.7812 59.9675 84.7218 59.7546 84.6028 59.6351C84.4839 59.5156 84.2719 59.4558 83.9694 59.4558H83.4471C83.2428 59.4558 83.0825 59.4792 82.9636 59.5286C82.8446 59.5805 82.7593 59.6662 82.7102 59.7831C82.6585 59.9026 82.6326 60.0636 82.6326 60.2688V60.9909Z" fill="white"/>
<path d="M86.2601 62.139C86.1489 62.139 86.092 62.0818 86.092 61.9701V59.287C86.092 59.1753 86.1489 59.1208 86.2601 59.1208C86.3713 59.1208 86.4256 59.1753 86.4256 59.287V59.7779C86.5368 59.5649 86.6945 59.4013 86.9039 59.2896C87.1133 59.1753 87.3616 59.1208 87.646 59.1208C87.7572 59.1208 87.814 59.1753 87.814 59.287C87.814 59.3987 87.7572 59.4559 87.646 59.4559C87.2685 59.4559 86.9763 59.5416 86.7695 59.713C86.5626 59.8844 86.4463 60.1286 86.4256 60.4455V61.9701C86.4256 62.0818 86.3713 62.139 86.2601 62.139Z" fill="white"/>
<path d="M91.0591 62.139C90.6687 62.139 90.3843 62.0481 90.2033 61.8662C90.0223 61.6844 89.9318 61.3987 89.9318 61.0091V59.4533H89.5543C89.4405 59.4533 89.3862 59.3961 89.3862 59.2844C89.3862 59.1727 89.4431 59.1182 89.5543 59.1182H89.9318V58.4325C89.9318 58.3208 89.9861 58.2636 90.0973 58.2636C90.2084 58.2636 90.2653 58.3208 90.2653 58.4325V59.1182H91.0643C91.1755 59.1182 91.2298 59.1727 91.2298 59.2844C91.2298 59.3961 91.1755 59.4533 91.0643 59.4533H90.2653V61.0091C90.2653 61.3078 90.3222 61.513 90.4386 61.6299C90.5549 61.7442 90.7618 61.8013 91.0565 61.8013C91.1186 61.8013 91.1625 61.8143 91.1884 61.8429C91.2142 61.8714 91.2272 61.913 91.2272 61.9675C91.2272 62.0792 91.1703 62.1364 91.0565 62.1364L91.0591 62.139Z" fill="white"/>
<path d="M92.1527 62.139C92.0415 62.139 91.9846 62.0818 91.9846 61.9701V57.874C91.9846 57.7623 92.0415 57.7078 92.1527 57.7078C92.2639 57.7078 92.3182 57.7623 92.3182 57.874V59.5935C92.5198 59.2792 92.8844 59.1208 93.4119 59.1208H93.5903C93.9859 59.1208 94.2754 59.2117 94.459 59.3961C94.6426 59.5805 94.7331 59.8714 94.7331 60.2688V61.9675C94.7331 62.0792 94.6788 62.1364 94.5676 62.1364C94.4564 62.1364 94.3996 62.0792 94.3996 61.9675V60.2688C94.3996 59.9649 94.3401 59.752 94.2211 59.6325C94.1022 59.513 93.8902 59.4532 93.5903 59.4532H93.4119C93.0835 59.4532 92.8249 59.5052 92.6362 59.6091C92.4474 59.713 92.3414 59.8766 92.3182 60.0974V61.9675C92.3182 62.0792 92.2639 62.1364 92.1527 62.1364V62.139Z" fill="white"/>
<path d="M95.9871 60.7597V60.9935C95.9871 61.2948 96.0466 61.5052 96.1681 61.6247C96.2896 61.7442 96.4991 61.8065 96.8016 61.8065H97.3238C97.5902 61.8065 97.7867 61.7727 97.9082 61.7026C98.0297 61.6325 98.1021 61.513 98.1254 61.3442C98.1331 61.2896 98.1512 61.2506 98.1771 61.2221C98.2029 61.1935 98.2443 61.1805 98.2986 61.1805C98.3529 61.1805 98.3969 61.1961 98.4253 61.2273C98.4538 61.2584 98.4641 61.3026 98.4589 61.3571C98.4305 61.6247 98.3245 61.8247 98.1383 61.9519C97.9521 62.0792 97.6807 62.1442 97.3238 62.1442H96.8016C96.406 62.1442 96.1138 62.0532 95.9302 61.8688C95.7466 61.6844 95.6536 61.3935 95.6536 60.9987V60.2766C95.6536 59.874 95.7466 59.5805 95.9302 59.3961C96.1138 59.2117 96.406 59.1208 96.8016 59.126H97.3238C97.7194 59.126 98.0116 59.2169 98.1926 59.4013C98.3762 59.5857 98.4667 59.8766 98.4667 60.274V60.5935C98.4667 60.7052 98.4124 60.7623 98.3012 60.7623H95.9871V60.7597ZM96.8016 59.4558C96.4991 59.4506 96.287 59.5104 96.1681 59.6299C96.0492 59.7493 95.9871 59.9649 95.9871 60.2714V60.4247H98.1331V60.2714C98.1331 59.9675 98.0737 59.7545 97.9547 59.6351C97.8358 59.5156 97.6238 59.4558 97.3213 59.4558H96.799H96.8016Z" fill="white"/>
<path d="M100.592 62.1234C100.491 62.0792 100.46 62.0039 100.499 61.9L102.076 58.152C102.11 58.0637 102.172 58.0221 102.265 58.0221H102.283C102.371 58.0221 102.43 58.0688 102.467 58.152L104.044 61.9C104.085 62.0039 104.057 62.0792 103.956 62.1234C103.853 62.1649 103.78 62.1364 103.739 62.0351L103.315 61.0299H101.231L100.807 62.0351C100.765 62.1364 100.69 62.1675 100.587 62.1234H100.592ZM101.37 60.6922H103.178L102.275 58.552L101.373 60.6922H101.37Z" fill="white"/>
<path d="M104.863 62.139C104.812 62.139 104.77 62.1234 104.739 62.0948C104.708 62.0662 104.695 62.0247 104.695 61.9701V58.1883C104.695 58.1364 104.711 58.0948 104.739 58.0636C104.768 58.0351 104.809 58.0195 104.863 58.0195C104.918 58.0195 104.954 58.0351 104.985 58.0636C105.013 58.0948 105.029 58.1338 105.029 58.1883V61.9701C105.029 62.0221 105.013 62.0636 104.985 62.0948C104.956 62.126 104.915 62.139 104.863 62.139Z" fill="white"/>
<path d="M108.623 62.139C108.227 62.139 107.935 62.0455 107.752 61.861C107.568 61.6766 107.475 61.3831 107.475 60.9857V60.2636C107.475 59.8662 107.565 59.5727 107.749 59.3909C107.933 59.2091 108.225 59.1156 108.623 59.1208H109.145C109.458 59.1208 109.696 59.1727 109.859 59.2792C110.024 59.3857 110.122 59.5494 110.154 59.7753C110.161 59.8325 110.148 59.8766 110.117 59.9052C110.086 59.9338 110.042 59.9494 109.988 59.9494C109.936 59.9494 109.9 59.9364 109.874 59.9104C109.848 59.8844 109.83 59.8455 109.817 59.7935C109.794 59.6714 109.732 59.5831 109.629 59.5312C109.525 59.4792 109.365 59.4532 109.145 59.4532H108.623C108.32 59.4481 108.108 59.5052 107.989 59.6247C107.87 59.7442 107.811 59.9545 107.811 60.261V60.9831C107.811 61.287 107.87 61.5 107.989 61.6195C108.108 61.739 108.32 61.8013 108.623 61.8013H109.145C109.365 61.8013 109.528 61.7753 109.629 61.7234C109.729 61.6714 109.794 61.5831 109.817 61.4584C109.83 61.4065 109.848 61.3675 109.874 61.3416C109.9 61.3156 109.939 61.3026 109.988 61.3026C110.042 61.3026 110.086 61.3182 110.117 61.3494C110.148 61.3805 110.161 61.4247 110.154 61.4792C110.122 61.7052 110.024 61.8714 109.859 61.9779C109.693 62.0844 109.455 62.1364 109.145 62.1364H108.623V62.139Z" fill="white"/>
<path d="M112.126 62.139C111.731 62.139 111.439 62.0481 111.255 61.8636C111.071 61.6792 110.978 61.3883 110.978 60.9935V60.2714C110.978 59.8688 111.071 59.5753 111.255 59.3909C111.439 59.2065 111.731 59.1156 112.126 59.1208H112.649C113.044 59.1208 113.336 59.2117 113.517 59.3961C113.701 59.5805 113.791 59.8714 113.791 60.2688V60.9831C113.791 61.3805 113.701 61.674 113.517 61.8584C113.334 62.0429 113.044 62.1364 112.649 62.1364H112.126V62.139ZM111.312 60.9909C111.312 61.2922 111.371 61.5026 111.493 61.6221C111.614 61.7416 111.824 61.8039 112.126 61.8039H112.649C112.951 61.8039 113.163 61.7442 113.282 61.6221C113.401 61.5026 113.46 61.2896 113.46 60.9857V60.2714C113.46 59.9675 113.401 59.7546 113.282 59.6351C113.163 59.5156 112.951 59.4558 112.649 59.4558H112.126C111.922 59.4558 111.762 59.4792 111.643 59.5286C111.524 59.5805 111.439 59.6662 111.389 59.7831C111.338 59.9026 111.312 60.0636 111.312 60.2688V60.9909Z" fill="white"/>
<path d="M118.138 59.1156C118.479 59.1156 118.725 59.2039 118.872 59.3779C119.019 59.552 119.092 59.8403 119.092 60.2429V61.9779C119.092 62.0896 119.038 62.1442 118.926 62.1442C118.815 62.1442 118.758 62.0896 118.758 61.9779V60.2429C118.758 59.9624 118.712 59.7598 118.616 59.6351C118.52 59.5104 118.363 59.4507 118.138 59.4507H117.874C117.595 59.4507 117.398 59.513 117.277 59.6351C117.155 59.7572 117.096 59.9598 117.096 60.2429V61.9779C117.096 62.0896 117.042 62.1442 116.93 62.1442C116.819 62.1442 116.762 62.0896 116.762 61.9779V60.2429C116.762 59.9624 116.716 59.7598 116.62 59.6351C116.524 59.5104 116.367 59.4507 116.142 59.4507H115.878C115.601 59.4507 115.402 59.513 115.281 59.6351C115.159 59.7572 115.102 59.9598 115.102 60.2429V61.9779C115.102 62.0896 115.048 62.1442 114.937 62.1442C114.826 62.1442 114.769 62.0896 114.769 61.9779V59.287C114.769 59.1753 114.826 59.1208 114.937 59.1208C115.048 59.1208 115.102 59.1753 115.102 59.287V59.5364C115.195 59.3857 115.307 59.2766 115.436 59.2117C115.565 59.1468 115.725 59.113 115.925 59.113H116.144C116.367 59.113 116.545 59.152 116.68 59.2299C116.814 59.3078 116.92 59.4351 117 59.6117C117.093 59.4351 117.207 59.3078 117.344 59.2299C117.478 59.152 117.657 59.113 117.874 59.113H118.138V59.1156Z" fill="white"/>
<path d="M123.464 59.1156C123.805 59.1156 124.051 59.2039 124.198 59.3779C124.346 59.552 124.418 59.8403 124.418 60.2429V61.9779C124.418 62.0896 124.364 62.1442 124.253 62.1442C124.141 62.1442 124.085 62.0896 124.085 61.9779V60.2429C124.085 59.9624 124.038 59.7598 123.942 59.6351C123.847 59.5104 123.689 59.4507 123.464 59.4507H123.2C122.921 59.4507 122.725 59.513 122.603 59.6351C122.481 59.7572 122.422 59.9598 122.422 60.2429V61.9779C122.422 62.0896 122.368 62.1442 122.257 62.1442C122.145 62.1442 122.088 62.0896 122.088 61.9779V60.2429C122.088 59.9624 122.042 59.7598 121.946 59.6351C121.851 59.5104 121.693 59.4507 121.468 59.4507H121.204C120.928 59.4507 120.728 59.513 120.607 59.6351C120.485 59.7572 120.429 59.9598 120.429 60.2429V61.9779C120.429 62.0896 120.374 62.1442 120.263 62.1442C120.152 62.1442 120.095 62.0896 120.095 61.9779V59.287C120.095 59.1753 120.152 59.1208 120.263 59.1208C120.374 59.1208 120.429 59.1753 120.429 59.287V59.5364C120.522 59.3857 120.633 59.2766 120.762 59.2117C120.891 59.1468 121.052 59.113 121.251 59.113H121.47C121.693 59.113 121.871 59.152 122.006 59.2299C122.14 59.3078 122.246 59.4351 122.326 59.6117C122.419 59.4351 122.533 59.3078 122.67 59.2299C122.805 59.152 122.983 59.113 123.2 59.113H123.464V59.1156Z" fill="white"/>
<path d="M127.948 59.1208C128.061 59.1208 128.116 59.1779 128.116 59.2896V61.9727C128.116 62.0844 128.059 62.139 127.948 62.139C127.836 62.139 127.782 62.0844 127.782 61.9727V61.6662C127.58 61.9805 127.216 62.139 126.688 62.139H126.51C126.114 62.139 125.822 62.0481 125.641 61.8636C125.46 61.6792 125.367 61.3883 125.367 60.9909V59.2922C125.367 59.1779 125.421 59.1234 125.533 59.1234C125.644 59.1234 125.701 59.1805 125.701 59.2922V60.9909C125.701 61.2948 125.76 61.5078 125.882 61.6273C126.001 61.7468 126.213 61.8065 126.513 61.8065H126.691C127.019 61.8065 127.278 61.7546 127.467 61.6507C127.655 61.5468 127.761 61.3831 127.785 61.1623V59.2922C127.785 59.1779 127.839 59.1234 127.95 59.1234L127.948 59.1208Z" fill="white"/>
<path d="M129.349 62.139C129.235 62.139 129.181 62.0818 129.181 61.9701V59.287C129.181 59.1753 129.238 59.1208 129.349 59.1208C129.46 59.1208 129.514 59.1753 129.514 59.287V59.5935C129.716 59.2792 130.081 59.1208 130.608 59.1208H130.787C131.182 59.1208 131.474 59.2117 131.655 59.3961C131.839 59.5805 131.929 59.8714 131.929 60.2688V61.9675C131.929 62.0792 131.875 62.1364 131.764 62.1364C131.653 62.1364 131.596 62.0792 131.596 61.9675V60.2688C131.596 59.9649 131.536 59.752 131.415 59.6325C131.296 59.513 131.084 59.4533 130.784 59.4533H130.606C130.277 59.4533 130.019 59.5052 129.83 59.6091C129.641 59.713 129.535 59.8766 129.512 60.0974V61.9675C129.512 62.0792 129.458 62.1364 129.346 62.1364L129.349 62.139Z" fill="white"/>
<path d="M133.033 58.5364C132.886 58.5364 132.813 58.461 132.813 58.3104V58.1649C132.813 58.0195 132.886 57.9467 133.033 57.9467H133.173C133.318 57.9467 133.39 58.0195 133.39 58.1649V58.3104C133.39 58.461 133.318 58.5364 133.173 58.5364H133.033ZM133.103 62.139C132.989 62.139 132.935 62.0818 132.935 61.9701V59.287C132.935 59.1753 132.992 59.1208 133.103 59.1208C133.214 59.1208 133.269 59.1753 133.269 59.287V61.9701C133.269 62.0818 133.214 62.139 133.103 62.139Z" fill="white"/>
<path d="M135.559 62.139C135.169 62.139 134.885 62.0481 134.704 61.8662C134.523 61.6844 134.432 61.3987 134.432 61.0091V59.4533H134.055C133.941 59.4533 133.886 59.3961 133.886 59.2844C133.886 59.1727 133.943 59.1182 134.055 59.1182H134.432V58.4325C134.432 58.3208 134.486 58.2636 134.598 58.2636C134.709 58.2636 134.766 58.3208 134.766 58.4325V59.1182H135.565C135.676 59.1182 135.73 59.1727 135.73 59.2844C135.73 59.3961 135.676 59.4533 135.565 59.4533H134.766V61.0091C134.766 61.3078 134.822 61.513 134.939 61.6299C135.055 61.7442 135.262 61.8013 135.557 61.8013C135.619 61.8013 135.663 61.8143 135.689 61.8429C135.714 61.8714 135.727 61.913 135.727 61.9675C135.727 62.0792 135.671 62.1364 135.557 62.1364L135.559 62.139Z" fill="white"/>
<path d="M137.24 63.4169C136.963 63.4169 136.757 63.3494 136.625 63.2169C136.493 63.0818 136.426 62.874 136.426 62.5909C136.426 62.4792 136.48 62.4247 136.591 62.4247C136.702 62.4247 136.759 62.4792 136.759 62.5909C136.759 62.7831 136.793 62.913 136.86 62.9805C136.927 63.0481 137.054 63.0818 137.238 63.0818H138.339C138.525 63.0818 138.652 63.0481 138.722 62.9805C138.791 62.913 138.823 62.7831 138.823 62.5909V61.713C138.701 61.8714 138.551 61.9857 138.367 62.0481C138.184 62.113 137.972 62.1442 137.729 62.1442H137.55C137.16 62.1442 136.876 62.0533 136.695 61.8714C136.514 61.6896 136.423 61.4065 136.423 61.0195V59.2844C136.423 59.1727 136.477 59.1156 136.589 59.1156C136.7 59.1156 136.757 59.1727 136.757 59.2844V61.0195C136.757 61.3156 136.814 61.5208 136.93 61.6351C137.046 61.7494 137.253 61.8065 137.548 61.8065H137.726C138.096 61.8065 138.373 61.7416 138.551 61.6091C138.729 61.4792 138.82 61.2818 138.82 61.0169V59.2818C138.82 59.1701 138.874 59.113 138.985 59.113C139.097 59.113 139.153 59.1701 139.153 59.2818V62.5883C139.153 62.8714 139.086 63.0792 138.954 63.2143C138.823 63.3494 138.616 63.4143 138.336 63.4143H137.235L137.24 63.4169Z" fill="white"/>
</g>
<defs>
<linearGradient id="paint0_linear_347_1375" x1="1.02906" y1="46.152" x2="61.7396" y2="35.496" gradientUnits="userSpaceOnUse">
<stop stop-color="#0047BB"/>
<stop offset="0.46" stop-color="#0047BB"/>
<stop offset="0.53" stop-color="#6689C1"/>
<stop offset="0.58" stop-color="#AAB4C6"/>
<stop offset="0.61" stop-color="#C5C6C8"/>
<stop offset="0.84" stop-color="#E8DD4D"/>
<stop offset="1" stop-color="#FFED00"/>
</linearGradient>
<clipPath id="clip0_347_1375">
<rect width="150" height="75" fill="white" transform="translate(0 0.5)"/>
</clipPath>
</defs>
</svg>
