<svg width="130" height="65" viewBox="0 0 130 65" fill="none" xmlns="http://www.w3.org/2000/svg">
<g clip-path="url(#clip0_592_2327)">
<path d="M24.3487 37.8567C23.8445 37.6618 23.6922 37.3145 23.8938 36.8148L28.3979 25.7226C28.5884 25.3058 28.8842 25.0974 29.2875 25.0974H29.3256C29.7357 25.1153 30.0136 25.3237 30.1592 25.7226L34.7395 36.8148C34.9412 37.3122 34.7955 37.6596 34.3048 37.8567C33.8073 38.0517 33.46 37.9083 33.2628 37.422L32.241 34.9437H26.3453L25.3705 37.422C25.1756 37.915 24.835 38.0584 24.3487 37.8567ZM26.9705 33.3527H31.5889L29.2337 27.6184L26.9727 33.3527H26.9705Z" fill="white"/>
<path d="M37.8453 37.933C37.5742 37.933 37.3725 37.868 37.2448 37.738C37.1148 37.6081 37.0498 37.4086 37.0498 37.1375V25.9131C37.0498 25.6353 37.1148 25.4336 37.2448 25.3081C37.3747 25.1826 37.5742 25.1199 37.8453 25.1199C38.1164 25.1199 38.3248 25.1826 38.4503 25.3081C38.5758 25.4336 38.6386 25.6353 38.6386 25.9131V37.1375C38.6386 37.4086 38.5758 37.6081 38.4503 37.738C38.3248 37.868 38.1232 37.933 37.8453 37.933Z" fill="white"/>
<path d="M49.0829 37.9329C48.0611 37.9329 47.3015 37.6865 46.804 37.1935C46.3065 36.7005 46.0601 35.9453 46.0601 34.928V33.1398C46.0601 32.1068 46.3088 31.3449 46.804 30.8541C47.2992 30.3634 48.0589 30.1191 49.0829 30.1191H50.3468C51.3753 30.1191 52.135 30.3656 52.628 30.8586C53.1209 31.3516 53.3674 32.1135 53.3674 33.1398V34.9123C53.3674 35.9341 53.1209 36.6938 52.628 37.189C52.135 37.6842 51.3731 37.9329 50.3468 37.9329H49.0829ZM47.3553 34.928C47.3553 35.5913 47.4763 36.0417 47.7183 36.2814C47.9603 36.5212 48.4152 36.64 49.0829 36.64H50.3468C51.019 36.64 51.4762 36.519 51.7159 36.277C51.9557 36.035 52.0745 35.5801 52.0745 34.9123V33.1398C52.0745 32.4675 51.9557 32.0104 51.7159 31.7706C51.4762 31.5309 51.0213 31.4121 50.3468 31.4121H49.0829C48.6348 31.4121 48.2875 31.4614 48.0387 31.5622C47.79 31.6631 47.613 31.8379 47.5099 32.0866C47.4068 32.3353 47.3553 32.6871 47.3553 33.1376V34.9257V34.928Z" fill="white"/>
<path d="M56.4352 37.933C56.005 37.933 55.7876 37.7179 55.7876 37.2854V30.7645C55.7876 30.3321 56.0027 30.1169 56.4352 30.1169C56.8677 30.1169 57.0828 30.3321 57.0828 30.7645V31.02C57.6273 30.4195 58.4295 30.1192 59.4872 30.1192H59.9197C60.9482 30.1192 61.7079 30.3657 62.2009 30.8587C62.6939 31.3516 62.9404 32.1135 62.9404 33.1398V37.2876C62.9404 37.7201 62.7252 37.9352 62.2927 37.9352C61.8603 37.9352 61.6451 37.7201 61.6451 37.2876V33.1398C61.6451 32.4676 61.5219 32.0105 61.2799 31.7707C61.0356 31.5309 60.583 31.4121 59.9197 31.4121H59.4872C58.871 31.4121 58.3332 31.4839 57.8761 31.625C57.4189 31.7662 57.1545 31.988 57.0828 32.2928V37.2876C57.0828 37.7201 56.8677 37.9352 56.4352 37.9352V37.933Z" fill="white"/>
<path d="M70.6491 37.9329C70.2166 37.9329 70.0015 37.7178 70.0015 37.2853V28.127C70.0015 27.6945 70.2166 27.4794 70.6491 27.4794H74.3644C75.7066 27.4794 76.6926 27.7976 77.3268 28.4317C77.9609 29.0659 78.2791 30.0541 78.2791 31.3964V34.0181C78.2791 35.3604 77.9654 36.3464 77.3357 36.9828C76.706 37.6169 75.7156 37.9351 74.3644 37.9351H70.6491V37.9329ZM71.2967 36.6377H74.3644C75.0209 36.6377 75.5431 36.557 75.924 36.3957C76.3072 36.2343 76.5783 35.9609 76.7419 35.5778C76.9032 35.1946 76.9862 34.6747 76.9862 34.0159V31.3941C76.9862 30.742 76.9055 30.2244 76.7419 29.8412C76.5806 29.458 76.3072 29.1846 75.924 29.0211C75.5408 28.8575 75.0209 28.7746 74.3644 28.7746H71.2967V36.6377Z" fill="white"/>
<path d="M81.6243 34.5582V34.9279C81.6243 35.5912 81.7453 36.0416 81.9873 36.2814C82.2293 36.5212 82.6842 36.6399 83.352 36.6399H84.6158C85.1402 36.6399 85.5278 36.5906 85.7788 36.4943C86.0298 36.3957 86.1979 36.2254 86.2808 35.9789C86.3368 35.7839 86.4152 35.6338 86.5161 35.533C86.6169 35.4299 86.7693 35.3783 86.9754 35.3783C87.1816 35.3783 87.3564 35.4344 87.4684 35.5486C87.5805 35.6607 87.6163 35.8265 87.576 36.0416C87.4639 36.678 87.1592 37.1553 86.6662 37.4668C86.1732 37.7783 85.4897 37.9374 84.6158 37.9374H83.352C82.3302 37.9374 81.5705 37.6909 81.0731 37.1979C80.5756 36.7049 80.3291 35.9498 80.3291 34.9324V33.1442C80.3291 32.1 80.5778 31.3336 81.0731 30.8429C81.5683 30.3521 82.3279 30.1124 83.352 30.1213H84.6158C85.6444 30.1213 86.404 30.3678 86.897 30.8563C87.39 31.3471 87.6365 32.109 87.6365 33.142V33.9128C87.6365 34.3453 87.4214 34.5604 86.9889 34.5604H81.6243V34.5582ZM83.352 31.4143C82.6842 31.4031 82.2293 31.5196 81.9873 31.7616C81.7453 32.0036 81.6243 32.463 81.6243 33.142V33.2652H86.3413V33.142C86.3413 32.4697 86.2225 32.0126 85.9827 31.7728C85.743 31.5331 85.2881 31.4143 84.6136 31.4143H83.3497H83.352Z" fill="white"/>
<path d="M98.6124 30.1169C99.5827 30.1169 100.282 30.3455 100.705 30.8026C101.129 31.2598 101.342 32.0172 101.342 33.0771V37.2854C101.342 37.7179 101.127 37.933 100.694 37.933C100.262 37.933 100.047 37.7179 100.047 37.2854V33.0771C100.047 32.4922 99.9345 32.0665 99.7105 31.8043C99.4864 31.5421 99.1211 31.4121 98.6124 31.4121H97.9805C97.3957 31.4121 96.9766 31.5421 96.7234 31.8043C96.4725 32.0665 96.347 32.49 96.347 33.0771V37.2854C96.347 37.7179 96.1318 37.933 95.6994 37.933C95.2669 37.933 95.0518 37.7179 95.0518 37.2854V33.0771C95.0518 32.4922 94.9397 32.0665 94.7156 31.8043C94.4915 31.5421 94.1263 31.4121 93.6176 31.4121H92.9857C92.4008 31.4121 91.9818 31.5421 91.7286 31.8043C91.4776 32.0665 91.3499 32.49 91.3499 33.0771V37.2854C91.3499 37.7179 91.1348 37.933 90.7023 37.933C90.2698 37.933 90.0547 37.7179 90.0547 37.2854V30.7645C90.0547 30.3321 90.2698 30.1169 90.7023 30.1169C91.1348 30.1169 91.3499 30.3321 91.3499 30.7645V31.1186C91.6233 30.7645 91.9213 30.5091 92.2485 30.3522C92.5756 30.1954 92.9633 30.1169 93.4159 30.1169H93.6154C94.2518 30.1169 94.7537 30.2066 95.119 30.3836C95.4842 30.5606 95.7621 30.8475 95.9503 31.2441C96.2237 30.8385 96.5128 30.5494 96.8175 30.3769C97.1223 30.2043 97.51 30.1192 97.9783 30.1192H98.6102L98.6124 30.1169Z" fill="white"/>
<path d="M106.074 37.933C105.211 37.933 104.568 37.7224 104.147 37.3011C103.726 36.8798 103.515 36.2367 103.515 35.374C103.515 34.5112 103.724 33.8681 104.143 33.4468C104.562 33.0256 105.205 32.8149 106.074 32.8149H109.335C109.303 32.2749 109.162 31.9074 108.911 31.7079C108.66 31.5107 108.228 31.4121 107.616 31.4121H106.722C106.209 31.4121 105.825 31.4458 105.572 31.5152C105.321 31.5847 105.144 31.7102 105.041 31.8894C104.949 32.1046 104.853 32.2547 104.757 32.3376C104.66 32.4205 104.512 32.4609 104.317 32.4609C104.102 32.4609 103.932 32.4004 103.809 32.2794C103.685 32.1583 103.65 31.997 103.701 31.7976C103.856 31.2172 104.178 30.7914 104.669 30.5225C105.16 30.2536 105.846 30.1169 106.724 30.1169H107.618C108.647 30.1169 109.406 30.3634 109.899 30.8564C110.392 31.3494 110.639 32.1113 110.639 33.1376V37.2854C110.639 37.7179 110.424 37.933 109.991 37.933C109.559 37.933 109.344 37.7179 109.344 37.2854V36.9381C108.792 37.6013 107.992 37.933 106.939 37.933H106.076H106.074ZM106.074 36.6378H106.937C107.318 36.6378 107.674 36.6042 108.008 36.5347C108.342 36.4652 108.629 36.3375 108.868 36.1538C109.106 35.9678 109.265 35.7034 109.344 35.3605V34.1124H106.076C105.568 34.1124 105.229 34.1975 105.061 34.3656C104.895 34.5359 104.81 34.872 104.81 35.3762C104.81 35.8804 104.893 36.2232 105.061 36.3891C105.229 36.5571 105.566 36.64 106.076 36.64L106.074 36.6378Z" fill="white"/>
<path d="M113.92 37.933C113.489 37.933 113.272 37.7179 113.272 37.2854V30.7645C113.272 30.3321 113.487 30.1169 113.92 30.1169C114.352 30.1169 114.567 30.3321 114.567 30.7645V31.02C115.112 30.4195 115.914 30.1192 116.972 30.1192H117.404C118.433 30.1192 119.192 30.3657 119.685 30.8587C120.178 31.3516 120.425 32.1135 120.425 33.1398V37.2876C120.425 37.7201 120.21 37.9352 119.777 37.9352C119.345 37.9352 119.13 37.7201 119.13 37.2876V33.1398C119.13 32.4676 119.006 32.0105 118.764 31.7707C118.52 31.5309 118.067 31.4121 117.404 31.4121H116.972C116.355 31.4121 115.818 31.4839 115.36 31.625C114.903 31.7662 114.639 31.988 114.567 32.2928V37.2876C114.567 37.7201 114.352 37.9352 113.92 37.9352V37.933Z" fill="white"/>
<path d="M125.713 37.9329C124.691 37.9329 123.931 37.6842 123.434 37.1889C122.939 36.6937 122.69 35.9341 122.69 34.9123V33.1397C122.69 32.1112 122.939 31.3516 123.434 30.8586C123.929 30.3656 124.689 30.1191 125.713 30.1191H128.702V27.7304C128.702 27.2979 128.917 27.0828 129.35 27.0828C129.782 27.0828 129.997 27.2979 129.997 27.7304V37.2875C129.997 37.72 129.782 37.9351 129.35 37.9351C128.917 37.9351 128.702 37.72 128.702 37.2875V37.18C128.46 37.4265 128.144 37.6147 127.754 37.7424C127.364 37.8702 126.878 37.9351 126.298 37.9351H125.713V37.9329ZM125.713 36.6377H126.298C126.977 36.6377 127.546 36.5503 128.01 36.3755C128.474 36.2007 128.704 35.9341 128.704 35.5733V31.4121H125.715C125.047 31.4121 124.592 31.5331 124.35 31.7773C124.108 32.0216 123.987 32.4742 123.987 33.1375V34.91C123.987 35.5778 124.111 36.0327 124.353 36.2747C124.597 36.5167 125.05 36.6377 125.713 36.6377Z" fill="white"/>
<path d="M55.0778 54.4748C55.3041 54.2485 55.3108 53.8788 55.0823 53.6524L46.0494 44.6174C45.8231 44.3911 45.4444 44.3911 45.2271 44.6174C45.0007 44.8437 44.994 45.2134 45.2226 45.4398L54.2554 54.4748C54.3697 54.5891 54.5198 54.6451 54.6699 54.6451C54.8201 54.6451 54.9702 54.5891 55.08 54.4748H55.0778Z" fill="white"/>
<path d="M48.4717 59.5458C48.7495 59.3844 48.8436 59.0281 48.6845 58.7503L42.2937 47.6828C42.1256 47.4027 41.7671 47.3085 41.4982 47.4699C41.2203 47.6312 41.1262 47.9875 41.2853 48.2654L47.6762 59.3329C47.786 59.5189 47.9809 59.6242 48.1803 59.6242C48.2812 59.6242 48.3798 59.5995 48.4717 59.5458Z" fill="white"/>
<path d="M40.7745 62.7323C41.0838 62.6494 41.2698 62.3289 41.1891 62.0197L37.8816 49.6772C37.7942 49.3657 37.4581 49.1774 37.1668 49.2648C36.8576 49.3478 36.6716 49.6682 36.7522 49.9774L40.0597 62.32C40.1314 62.5821 40.3645 62.7524 40.6244 62.7524C40.6737 62.7524 40.7252 62.7457 40.7745 62.7323Z" fill="white"/>
<path d="M33.0974 63.2365V50.4592C33.0974 50.1388 32.8374 49.8766 32.5147 49.8766C32.1921 49.8766 31.9321 50.1388 31.9321 50.4592V63.2365C31.9321 63.5569 32.1921 63.8191 32.5147 63.8191C32.8374 63.8191 33.0974 63.5569 33.0974 63.2365Z" fill="white"/>
<path d="M24.9717 62.32L28.2792 49.9774C28.3621 49.6682 28.1739 49.3477 27.8646 49.2648C27.5554 49.1864 27.2372 49.3657 27.1498 49.6771L23.8423 62.0197C23.7594 62.3289 23.9477 62.6494 24.2569 62.7323C24.3062 62.7457 24.3577 62.7524 24.407 62.7524C24.667 62.7524 24.8978 62.5821 24.9717 62.32Z" fill="white"/>
<path d="M17.3576 59.3329L23.744 48.2654C23.9031 47.9853 23.8068 47.6312 23.5311 47.4699C23.2533 47.3085 22.8947 47.4049 22.7356 47.6828L16.3493 58.7503C16.1902 59.0304 16.2865 59.3844 16.5621 59.5458C16.654 59.5973 16.7526 59.6242 16.8534 59.6242C17.0529 59.6242 17.2501 59.5189 17.3576 59.3329Z" fill="white"/>
<path d="M10.7805 54.4748L19.8133 45.4398C20.0397 45.2134 20.0352 44.8437 19.8089 44.6174C19.5915 44.3911 19.2128 44.3911 18.9865 44.6174L9.95365 53.6524C9.72733 53.8788 9.73181 54.2485 9.95813 54.4748C10.0679 54.5891 10.2181 54.6451 10.3682 54.6451C10.5183 54.6451 10.6685 54.5891 10.7828 54.4748H10.7805Z" fill="white"/>
<path d="M5.676 48.0794L16.7435 41.6908C17.0214 41.5294 17.1155 41.1731 16.9564 40.8953C16.7928 40.6152 16.4298 40.5211 16.1609 40.6824L5.09338 47.071C4.81552 47.2324 4.7214 47.5887 4.8805 47.8665C4.9903 48.0525 5.18526 48.1578 5.38469 48.1578C5.48553 48.1578 5.58413 48.1332 5.676 48.0794Z" fill="white"/>
<path d="M32.5147 13.9425C32.1921 13.9425 31.9321 13.6803 31.9321 13.3599V0.582618C31.9321 0.262178 32.1921 0 32.5147 0C32.8374 0 33.0974 0.262178 33.0974 0.582618V13.3599C33.0974 13.6803 32.8374 13.9425 32.5147 13.9425Z" fill="white"/>
<path d="M37.8814 14.1419L41.1889 1.79935C41.2718 1.49011 41.0836 1.16967 40.7743 1.08676C40.4606 1.00385 40.1469 1.18984 40.0595 1.49907L36.752 13.8416C36.6691 14.1508 36.8573 14.4713 37.1666 14.5542C37.2159 14.5676 37.2674 14.5744 37.3167 14.5744C37.5766 14.5744 37.8074 14.4041 37.8814 14.1419Z" fill="white"/>
<path d="M42.2937 16.1363L48.6845 5.06881C48.8436 4.79094 48.7473 4.43465 48.4717 4.27331C48.1938 4.11645 47.8397 4.20608 47.6762 4.48619L41.2853 15.5537C41.1262 15.8316 41.2225 16.1878 41.4982 16.3492C41.59 16.4007 41.6886 16.4276 41.7895 16.4276C41.9889 16.4276 42.1861 16.3223 42.2937 16.1363Z" fill="white"/>
<path d="M46.0471 19.2039L55.0799 10.1689C55.3063 9.94256 55.3018 9.57283 55.0755 9.3465C54.8581 9.12018 54.4794 9.12018 54.2531 9.3465L45.2203 18.3816C44.9939 18.6079 44.9984 18.9776 45.2247 19.2039C45.3345 19.3182 45.4847 19.3743 45.6348 19.3743C45.7849 19.3743 45.9351 19.3182 46.0494 19.2039H46.0471Z" fill="white"/>
<path d="M48.8728 23.1389L59.9403 16.7502C60.2181 16.5889 60.3123 16.2326 60.1532 15.9547C59.9851 15.6746 59.631 15.5805 59.3577 15.7419L48.2902 22.1305C48.0123 22.2918 47.9182 22.6481 48.0773 22.926C48.1871 23.112 48.382 23.2173 48.5815 23.2173C48.6823 23.2173 48.7809 23.1926 48.8728 23.1389Z" fill="white"/>
<path d="M2.40651 40.5794L14.7468 37.2719C15.056 37.189 15.242 36.8686 15.1614 36.5593C15.074 36.2456 14.7378 36.0574 14.4465 36.147L2.10624 39.4545C1.797 39.5374 1.61101 39.8578 1.69168 40.1671C1.76339 40.4292 1.99644 40.5996 2.25638 40.5996C2.30567 40.5996 2.35721 40.5928 2.40651 40.5794Z" fill="white"/>
<path d="M14.552 31.9095C14.552 31.5891 14.292 31.3269 13.9693 31.3269H1.1876C0.864918 31.3269 0.60498 31.5891 0.60498 31.9095C0.60498 32.23 0.864918 32.4921 1.1876 32.4921H13.9693C14.292 32.4921 14.552 32.23 14.552 31.9095Z" fill="white"/>
<path d="M15.1616 27.2576C15.2445 26.9483 15.0563 26.6279 14.7471 26.545L2.40678 23.2375C2.10651 23.1591 1.78383 23.3383 1.69195 23.6498C1.60904 23.959 1.79727 24.2795 2.10651 24.3624L14.4468 27.6699C14.4961 27.6833 14.5476 27.69 14.5969 27.69C14.8569 27.69 15.0877 27.5197 15.1616 27.2576Z" fill="white"/>
<path d="M16.9588 22.926C17.1179 22.6481 17.0216 22.2918 16.7459 22.1305L5.67844 15.7419C5.40058 15.5805 5.04653 15.6769 4.88295 15.9547C4.72385 16.2326 4.8202 16.5889 5.09583 16.7502L16.1633 23.1389C16.2552 23.1904 16.3538 23.2173 16.4546 23.2173C16.6541 23.2173 16.8513 23.112 16.9588 22.926Z" fill="white"/>
<path d="M19.8092 19.2039C20.0355 18.9776 20.0423 18.6079 19.8137 18.3816L10.7809 9.3465C10.5546 9.12018 10.1759 9.12018 9.9585 9.3465C9.73217 9.57283 9.72545 9.94256 9.95401 10.1689L18.9868 19.2039C19.1011 19.3182 19.2513 19.3743 19.4014 19.3743C19.5515 19.3743 19.7017 19.3182 19.8115 19.2039H19.8092Z" fill="white"/>
<path d="M23.5311 16.3514C23.809 16.19 23.9031 15.836 23.744 15.5559L17.3576 4.48839C17.1896 4.20604 16.8355 4.11865 16.5621 4.27551C16.2843 4.43685 16.1902 4.7909 16.3493 5.07101L22.7356 16.1385C22.8454 16.3245 23.0404 16.4298 23.2398 16.4298C23.3407 16.4298 23.4393 16.4052 23.5311 16.3514Z" fill="white"/>
<path d="M27.8649 14.5542C28.1741 14.4713 28.3601 14.1508 28.2794 13.8416L24.9719 1.49907C24.8846 1.18535 24.5529 0.994883 24.2571 1.08676C23.9479 1.16967 23.7619 1.49011 23.8426 1.79934L27.15 14.1419C27.2217 14.4041 27.4548 14.5744 27.7147 14.5744C27.764 14.5744 27.8156 14.5676 27.8649 14.5542Z" fill="white"/>
<path d="M37.3189 14.8545C37.2472 14.8545 37.1688 14.8455 37.0971 14.8253C36.6377 14.7021 36.3643 14.2293 36.4876 13.7699L38.1973 7.37903C38.3206 6.9219 38.7889 6.63956 39.2528 6.76952C39.7121 6.89277 39.9855 7.36559 39.8623 7.82496L38.1525 14.2158C38.0472 14.6013 37.7021 14.8545 37.3212 14.8545H37.3189ZM42.5356 16.2752L45.1148 11.8092C45.3523 11.3969 45.2112 10.8725 44.8011 10.6327C44.3865 10.3907 43.8599 10.5364 43.6224 10.9487L41.0432 15.4147C40.8057 15.827 40.9468 16.3513 41.3569 16.5911C41.4936 16.6718 41.6437 16.7076 41.7894 16.7076C42.0852 16.7076 42.3765 16.553 42.5356 16.2752ZM46.1747 19.3361L48.9914 16.5217C49.2917 16.2214 49.2917 15.7351 48.9959 15.4348C48.6957 15.1346 48.2094 15.1346 47.9091 15.4348L45.0924 18.2493C44.7921 18.5496 44.7921 19.0359 45.0879 19.3361C45.238 19.4863 45.4375 19.5602 45.6347 19.5602C45.8319 19.5602 46.0268 19.4863 46.177 19.3361H46.1747ZM48.9399 23.2599L51.537 21.7607C51.8821 21.5613 52.0009 21.1199 51.8015 20.7748C51.6065 20.4319 51.1651 20.3087 50.82 20.5103L48.2228 22.0095C47.8778 22.2089 47.759 22.6503 47.9584 22.9954C48.0906 23.2285 48.3304 23.354 48.5814 23.354C48.7046 23.354 48.8279 23.3248 48.9399 23.2576V23.2599ZM55.8036 55.1985C56.431 54.5711 56.431 53.5515 55.8036 52.9241L46.7708 43.889C46.1433 43.2616 45.1238 43.2616 44.4963 43.889C43.8689 44.5164 43.8689 45.536 44.4963 46.1635L53.5291 55.1985C53.8429 55.5122 54.2574 55.6691 54.6652 55.6691C55.0731 55.6691 55.4876 55.5122 55.8014 55.1985H55.8036ZM48.9623 60.3905C49.7085 59.9603 49.964 59.0057 49.5315 58.2595L43.1406 47.192C42.7081 46.4391 41.7401 46.1859 41.0073 46.6206C40.2611 47.0508 40.0057 48.0054 40.4382 48.7516L46.829 59.8191C47.1159 60.3188 47.6425 60.5989 48.1803 60.5989C48.4492 60.5989 48.7181 60.534 48.9623 60.3905ZM41.0163 63.6308C41.8252 63.4157 42.3025 62.5843 42.0852 61.7776L38.7777 49.4351C38.5693 48.6306 37.7581 48.1578 36.9268 48.364C36.1178 48.5791 35.6405 49.4104 35.8579 50.2171L39.1654 62.5597C39.3424 63.2364 39.9564 63.6823 40.6264 63.6823C40.7541 63.6823 40.8863 63.6644 41.0185 63.6308H41.0163ZM33.9846 63.2342V50.4569C33.9846 49.648 33.3257 48.9892 32.5146 48.9892C31.7034 48.9892 31.0446 49.6457 31.0446 50.4569V63.2342C31.0446 64.0431 31.7034 64.7019 32.5146 64.7019C33.3257 64.7019 33.9846 64.0454 33.9846 63.2342ZM25.7831 62.535L29.0906 50.1925C29.29 49.4328 28.8396 48.6553 28.0844 48.4536C27.3337 48.2519 26.5517 48.7001 26.3433 49.4575L23.0358 61.8C22.8364 62.5597 23.2868 63.3372 24.042 63.5389C24.1652 63.5725 24.2884 63.5882 24.4095 63.5882C25.0369 63.5882 25.6105 63.1692 25.7831 62.535ZM18.0455 59.7228L24.4319 48.6553C24.8083 47.9987 24.582 47.1562 23.9277 46.7797C23.2689 46.4032 22.4308 46.6206 22.0498 47.2816L15.6635 58.3491C15.287 59.0057 15.5133 59.8483 16.1676 60.2247C16.385 60.3502 16.6181 60.4085 16.8556 60.4085C17.3284 60.4085 17.7923 60.162 18.0477 59.7205L18.0455 59.7228ZM11.305 54.9968L20.3378 45.9618C20.8555 45.4442 20.8555 44.6016 20.3378 44.084C19.8202 43.5663 18.9821 43.5663 18.4645 44.084L9.43169 53.119C8.91405 53.6367 8.91405 54.4792 9.43169 54.9968C9.69163 55.2568 10.0278 55.3868 10.3684 55.3868C10.709 55.3868 11.0451 55.2568 11.305 54.9968ZM6.02785 48.6777L17.0954 42.2891C17.7049 41.935 17.9177 41.153 17.5637 40.5367C17.2096 39.9227 16.4276 39.7166 15.8114 40.0684L4.74385 46.457C4.13435 46.8111 3.92147 47.5931 4.27552 48.2094C4.51305 48.6194 4.94329 48.848 5.38473 48.848C5.6021 48.848 5.8217 48.7942 6.02561 48.6777H6.02785ZM2.57472 41.2045L14.915 37.897C15.5738 37.7222 15.966 37.0433 15.7889 36.3867C15.6119 35.7279 14.9195 35.3268 14.2786 35.5128L1.93833 38.8202C1.27952 38.995 0.887372 39.674 1.0644 40.3306C1.21005 40.884 1.70976 41.2471 2.25652 41.2471C2.36184 41.2471 2.4694 41.2336 2.57472 41.2045ZM15.157 31.905C15.157 31.2507 14.6237 30.7174 13.9694 30.7174H1.18764C0.53332 30.7174 0 31.2507 0 31.905C0 32.5593 0.53332 33.0927 1.18764 33.0927H13.9694C14.6237 33.0927 15.157 32.5593 15.157 31.905ZM15.6993 27.3987C15.8629 26.7892 15.5044 26.164 14.8949 26.0004L2.55456 22.6929C1.91368 22.5338 1.31761 22.8946 1.15851 23.4996C0.994932 24.1091 1.35347 24.7343 1.96297 24.8979L14.3033 28.2054C14.4041 28.23 14.5027 28.2435 14.5991 28.2435C15.1033 28.2435 15.5626 27.9074 15.6993 27.3964V27.3987ZM17.4001 23.1769C17.7049 22.6526 17.5234 21.9826 16.999 21.6801L5.92926 15.2937C5.40266 14.9889 4.73265 15.1682 4.43686 15.6948C4.13211 16.2191 4.31361 16.8892 4.83797 17.1917L15.9077 23.5781C16.0803 23.6789 16.2662 23.7237 16.4545 23.7237C16.8309 23.7237 17.2007 23.5288 17.4001 23.1769ZM20.1429 19.5289C20.553 19.1188 20.553 18.4555 20.1429 18.0454L11.677 9.5773C11.2669 9.16722 10.6036 9.16722 10.1936 9.5773C9.7835 9.98737 9.7835 10.6507 10.1936 11.0607L18.6595 19.5289C18.8634 19.7328 19.1323 19.8359 19.4012 19.8359C19.6701 19.8359 19.939 19.7328 20.1429 19.5289ZM23.7417 16.7054C24.219 16.4298 24.3826 15.8158 24.1092 15.3385L18.6371 5.85974C18.3547 5.3802 17.7407 5.21662 17.2679 5.49449C16.7906 5.77011 16.627 6.3841 16.9004 6.8614L22.3725 16.3401C22.5585 16.6606 22.8946 16.8399 23.242 16.8399C23.4145 16.8399 23.5826 16.7973 23.7417 16.7054ZM27.9634 14.9082C28.4721 14.7716 28.7768 14.2472 28.6402 13.7363L26.1618 4.47715C26.0251 3.96848 25.503 3.67269 24.9921 3.80265C24.4834 3.93935 24.1786 4.4637 24.3153 4.97461L26.7937 14.2338C26.908 14.6595 27.2934 14.9419 27.7169 14.9419C27.7998 14.9419 27.8805 14.9307 27.9634 14.9105V14.9082ZM33.4266 13.3531V5.23007C33.4266 4.72812 33.0165 4.32253 32.5168 4.32253C32.0171 4.32253 31.607 4.72812 31.607 5.23007V13.3598C31.607 13.8618 32.0171 14.2674 32.5168 14.2674C33.0165 14.2674 33.4266 13.8618 33.4266 13.3598V13.3531Z" fill="white"/>
<path d="M70.0128 46.4369C69.9142 46.4369 69.8672 46.3876 69.8672 46.2912V43.0308C69.8672 42.9344 69.9165 42.8851 70.0128 42.8851C70.1092 42.8851 70.1563 42.9344 70.1563 43.0308V44.6151L71.7943 42.9367C71.8615 42.8695 71.9265 42.8672 71.996 42.9344C72.0677 43.0017 72.0699 43.0689 72.0005 43.1406L70.7658 44.4067L72.2178 46.2083C72.2783 46.2845 72.2716 46.3517 72.1977 46.4122C72.1215 46.4727 72.0542 46.466 71.996 46.3921L70.5618 44.6151L70.154 45.0319V46.2912C70.154 46.3876 70.107 46.4369 70.0106 46.4369H70.0128Z" fill="white"/>
<path d="M72.9396 46.4369C72.8432 46.4369 72.7939 46.3876 72.7939 46.2912V43.9764C72.7939 43.8801 72.8432 43.833 72.9396 43.833C73.036 43.833 73.083 43.8801 73.083 43.9764V44.2408C73.2578 43.9697 73.5738 43.833 74.0309 43.833H74.1855C74.5284 43.833 74.7793 43.9114 74.9384 44.0705C75.0975 44.2296 75.176 44.4806 75.176 44.8235V46.289C75.176 46.3853 75.1289 46.4346 75.0325 46.4346C74.9362 46.4346 74.8869 46.3853 74.8869 46.289V44.8235C74.8869 44.5613 74.8353 44.3775 74.7323 44.2745C74.6292 44.1714 74.4454 44.1198 74.1855 44.1198H74.0309C73.7463 44.1198 73.5222 44.1647 73.3586 44.2543C73.1951 44.3439 73.1032 44.4851 73.083 44.6756V46.289C73.083 46.3853 73.036 46.4346 72.9396 46.4346V46.4369Z" fill="white"/>
<path d="M76.9686 46.4369C76.6257 46.4369 76.3725 46.3585 76.2134 46.1994C76.0543 46.0403 75.9736 45.7893 75.9736 45.4487V44.8258C75.9736 44.4784 76.0543 44.2252 76.2134 44.0661C76.3725 43.907 76.6257 43.8286 76.9686 43.8331H77.4212C77.7641 43.8331 78.0173 43.9115 78.1741 44.0706C78.3332 44.2297 78.4117 44.4807 78.4117 44.8235V45.4397C78.4117 45.7826 78.3332 46.0358 78.1741 46.1949C78.015 46.354 77.7641 46.4347 77.4212 46.4347H76.9686V46.4369ZM76.2627 45.4465C76.2627 45.7064 76.3142 45.8879 76.4196 45.991C76.5249 46.0941 76.7064 46.1479 76.9686 46.1479H77.4212C77.6834 46.1479 77.8671 46.0963 77.9702 45.991C78.0733 45.8879 78.1248 45.7042 78.1248 45.442V44.8258C78.1248 44.5636 78.0733 44.3798 77.9702 44.2768C77.8671 44.1737 77.6834 44.1221 77.4212 44.1221H76.9686C76.7915 44.1221 76.6526 44.1423 76.5495 44.1849C76.4464 44.2297 76.3725 44.3036 76.3299 44.4045C76.2851 44.5076 76.2627 44.6465 76.2627 44.8235V45.4465Z" fill="white"/>
<path d="M79.7201 46.4369C79.6327 46.4369 79.5767 46.3966 79.5521 46.3182L78.7745 44.028C78.7431 43.9339 78.7745 43.8734 78.8664 43.8443C78.956 43.8174 79.0165 43.8465 79.0456 43.9362L79.8008 46.1501H79.6843L80.4058 43.9787C80.4305 43.9025 80.4865 43.8622 80.5716 43.8622C80.6568 43.8622 80.7039 43.9025 80.7285 43.981L81.403 46.1434H81.282L82.0752 43.9362C82.1111 43.842 82.1738 43.8129 82.2635 43.8443C82.3553 43.8801 82.3845 43.9406 82.3509 44.0325L81.4994 46.3204C81.4702 46.3988 81.412 46.4392 81.329 46.4392C81.2349 46.4392 81.1767 46.3988 81.152 46.3204L80.5268 44.3171H80.5828L79.8949 46.3204C79.8792 46.3675 79.8568 46.3966 79.8254 46.4145C79.7941 46.4302 79.7582 46.4392 79.7201 46.4392V46.4369Z" fill="white"/>
<path d="M83.6573 46.4369C83.3974 46.4369 83.2047 46.3764 83.0836 46.2554C82.9604 46.1344 82.8999 45.9439 82.8999 45.684V42.7574C82.8999 42.6611 82.9492 42.614 83.0456 42.614C83.1419 42.614 83.189 42.6611 83.189 42.7574V45.684C83.189 45.861 83.2226 45.9842 83.2876 46.0492C83.3525 46.1142 83.4758 46.1478 83.6551 46.1478C83.7537 46.1478 83.8052 46.1949 83.8052 46.2912C83.8052 46.3876 83.7581 46.4369 83.6595 46.4369H83.6573Z" fill="white"/>
<path d="M84.5024 45.2469V45.4486C84.5024 45.7086 84.554 45.8901 84.6593 45.9931C84.7624 46.0962 84.9461 46.15 85.2083 46.15H85.661C85.8918 46.15 86.0621 46.1209 86.1674 46.0604C86.2727 45.9999 86.3355 45.8968 86.3556 45.7511C86.3623 45.7041 86.378 45.6705 86.4004 45.6458C86.4228 45.6212 86.4587 45.61 86.5058 45.61C86.5528 45.61 86.5909 45.6234 86.6156 45.6503C86.6402 45.6772 86.6492 45.7153 86.6447 45.7623C86.62 45.9931 86.5282 46.1657 86.3668 46.2755C86.2055 46.3853 85.9702 46.4413 85.661 46.4413H85.2083C84.8655 46.4413 84.6122 46.3629 84.4532 46.2038C84.2941 46.0447 84.2134 45.7937 84.2134 45.4531V44.8302C84.2134 44.4828 84.2941 44.2296 84.4532 44.0705C84.6122 43.9114 84.8655 43.833 85.2083 43.8375H85.661C86.0038 43.8375 86.2548 43.9159 86.4139 44.075C86.573 44.2341 86.6514 44.4851 86.6514 44.8279V45.1035C86.6514 45.1999 86.6044 45.2492 86.508 45.2492H84.5024V45.2469ZM85.2083 44.122C84.9461 44.1176 84.7624 44.1691 84.6593 44.2722C84.5562 44.3753 84.5024 44.5613 84.5024 44.8257V44.9579H86.3623V44.8257C86.3623 44.5635 86.3108 44.3797 86.2077 44.2767C86.1046 44.1736 85.9209 44.122 85.6587 44.122H85.2061H85.2083Z" fill="white"/>
<path d="M88.4168 46.4368C88.074 46.4368 87.8207 46.3562 87.6616 46.1971C87.5025 46.038 87.4219 45.7848 87.4219 45.4419V44.8257C87.4219 44.4828 87.5025 44.2319 87.6616 44.0728C87.8207 43.9137 88.074 43.8352 88.4168 43.8352H89.5708V42.7596C89.5708 42.6633 89.6201 42.6162 89.7165 42.6162C89.8128 42.6162 89.8599 42.6633 89.8599 42.7596V46.2934C89.8599 46.3898 89.8128 46.4391 89.7165 46.4391C89.6201 46.4391 89.5708 46.3898 89.5708 46.2934V46.0559C89.4924 46.1836 89.3759 46.2777 89.2235 46.3427C89.0711 46.4077 88.8717 46.4391 88.6252 46.4391H88.4168V46.4368ZM88.4168 46.1478H88.6252C88.912 46.1478 89.1406 46.103 89.3131 46.0111C89.4857 45.9192 89.5708 45.7825 89.5708 45.601V44.1198H88.4168C88.1546 44.1198 87.9709 44.1714 87.8678 44.2767C87.7647 44.382 87.7109 44.5635 87.7109 44.8234V45.4397C87.7109 45.7018 87.7625 45.8856 87.8678 45.9887C87.9731 46.0918 88.1546 46.1455 88.4168 46.1455V46.1478Z" fill="white"/>
<path d="M91.3658 47.5394C91.1485 47.5394 90.9826 47.4945 90.8706 47.4049C90.7563 47.3153 90.6891 47.1763 90.6689 46.9836C90.6644 46.9366 90.6734 46.8985 90.7003 46.8716C90.7272 46.8447 90.7608 46.8313 90.8078 46.8313C90.8549 46.8313 90.8885 46.8425 90.9132 46.8671C90.9378 46.8918 90.9535 46.9276 90.9602 46.9747C90.9737 47.08 91.0118 47.1539 91.0723 47.192C91.135 47.2301 91.2336 47.2503 91.3681 47.2503H92.3921C92.5535 47.2503 92.6633 47.2212 92.7215 47.1629C92.7798 47.1046 92.8089 46.9948 92.8089 46.8313V46.0425C92.7238 46.1702 92.605 46.2688 92.4504 46.336C92.2958 46.4032 92.1008 46.4369 91.8633 46.4369H91.6526C91.3098 46.4369 91.0566 46.3584 90.8975 46.1993C90.7384 46.0402 90.6577 45.7893 90.6577 45.4487V44.8257C90.6577 44.4784 90.7361 44.2274 90.8952 44.0683C91.0543 43.9092 91.3053 43.833 91.6526 43.833H92.1053C92.2846 43.833 92.4325 43.8577 92.5445 43.9047C92.6565 43.9518 92.7439 44.028 92.8089 44.1288V43.9764C92.8089 43.8801 92.8582 43.833 92.9546 43.833C93.0509 43.833 93.098 43.8801 93.098 43.9764V46.8313C93.098 47.0733 93.042 47.2525 92.9277 47.3668C92.8134 47.4811 92.6364 47.5394 92.3921 47.5394H91.3681H91.3658ZM91.6526 46.1478H91.8633C92.1501 46.1478 92.3787 46.103 92.5512 46.0133C92.7238 45.9237 92.8089 45.787 92.8089 45.6033V44.6823C92.8089 44.4739 92.7507 44.3305 92.6364 44.2476C92.5198 44.1647 92.3451 44.1243 92.1075 44.1243H91.6549C91.3927 44.1243 91.209 44.1759 91.1059 44.2767C91.0028 44.3775 90.949 44.5613 90.949 44.8257V45.4487C90.949 45.7086 91.0006 45.8901 91.1059 45.9932C91.2112 46.0963 91.3927 46.15 91.6549 46.15L91.6526 46.1478Z" fill="white"/>
<path d="M94.1849 45.2469V45.4486C94.1849 45.7086 94.2364 45.8901 94.3395 45.9931C94.4426 46.0962 94.6263 46.15 94.8885 46.15H95.3411C95.5719 46.15 95.7422 46.1209 95.8476 46.0604C95.9529 45.9999 96.0156 45.8968 96.0358 45.7511C96.0425 45.7041 96.0582 45.6705 96.0806 45.6458C96.103 45.6212 96.1389 45.61 96.1859 45.61C96.233 45.61 96.2711 45.6234 96.2957 45.6503C96.3204 45.6772 96.3293 45.7153 96.3249 45.7623C96.3002 45.9931 96.2083 46.1657 96.047 46.2755C95.8857 46.3853 95.6504 46.4413 95.3411 46.4413H94.8885C94.5456 46.4413 94.2924 46.3629 94.1333 46.2038C93.9742 46.0447 93.8936 45.7937 93.8936 45.4531V44.8302C93.8936 44.4828 93.9742 44.2296 94.1333 44.0705C94.2924 43.9114 94.5456 43.833 94.8885 43.8375H95.3411C95.684 43.8375 95.9372 43.9159 96.0941 44.075C96.2532 44.2341 96.3316 44.4851 96.3316 44.8279V45.1035C96.3316 45.1999 96.2845 45.2492 96.1882 45.2492H94.1826L94.1849 45.2469ZM94.8907 44.122C94.6285 44.1176 94.4448 44.1691 94.3417 44.2722C94.2386 44.3753 94.1871 44.5613 94.1871 44.8257V44.9579H96.047V44.8257C96.047 44.5635 95.9955 44.3797 95.8924 44.2767C95.7893 44.1736 95.6056 44.122 95.3434 44.122H94.8907Z" fill="white"/>
<path d="M99.2266 46.4368C98.9397 46.4368 98.7291 46.3696 98.5969 46.2374C98.4647 46.1052 98.3975 45.8945 98.3975 45.6077C98.3975 45.3209 98.4647 45.1103 98.5991 44.9758C98.7336 44.8414 98.942 44.7741 99.2266 44.7741H100.481C100.477 44.5321 100.423 44.3618 100.318 44.2655C100.213 44.1691 100.033 44.1198 99.7801 44.1198H99.4596C99.2266 44.1198 99.0563 44.1445 98.9465 44.1937C98.8389 44.243 98.7717 44.3282 98.7448 44.447C98.7313 44.4918 98.7157 44.5254 98.6933 44.5478C98.6731 44.568 98.6395 44.5792 98.5924 44.5792C98.5454 44.5792 98.5073 44.5657 98.4804 44.5388C98.4535 44.5119 98.4445 44.4761 98.4512 44.429C98.4759 44.2184 98.57 44.066 98.7358 43.9719C98.9017 43.8755 99.1414 43.8285 99.4574 43.8285H99.7778C100.121 43.8285 100.372 43.9069 100.531 44.066C100.69 44.2251 100.768 44.4761 100.768 44.8189V46.2845C100.768 46.3808 100.721 46.4301 100.625 46.4301C100.528 46.4301 100.479 46.3808 100.479 46.2845V46.0111C100.302 46.2912 99.9885 46.4301 99.5336 46.4301H99.2243L99.2266 46.4368ZM99.2266 46.1478H99.5358C99.7128 46.1478 99.8697 46.1276 100.006 46.0895C100.141 46.0492 100.251 45.9864 100.334 45.899C100.416 45.8116 100.466 45.6929 100.484 45.5472V45.0677H99.2288C99.0249 45.0677 98.8837 45.1058 98.8053 45.1842C98.7269 45.2626 98.6888 45.4038 98.6888 45.61C98.6888 45.8161 98.7269 45.955 98.8053 46.0335C98.8837 46.1119 99.0249 46.15 99.2288 46.15L99.2266 46.1478Z" fill="white"/>
<path d="M101.788 46.4369C101.692 46.4369 101.643 46.3876 101.643 46.2912V43.9764C101.643 43.8801 101.692 43.833 101.788 43.833C101.885 43.833 101.932 43.8801 101.932 43.9764V44.2408C102.106 43.9697 102.422 43.833 102.88 43.833H103.034C103.377 43.833 103.628 43.9114 103.787 44.0705C103.946 44.2296 104.025 44.4806 104.025 44.8235V46.289C104.025 46.3853 103.978 46.4346 103.881 46.4346C103.785 46.4346 103.736 46.3853 103.736 46.289V44.8235C103.736 44.5613 103.684 44.3775 103.581 44.2745C103.478 44.1714 103.294 44.1198 103.034 44.1198H102.88C102.595 44.1198 102.371 44.1647 102.207 44.2543C102.044 44.3439 101.952 44.4851 101.932 44.6756V46.289C101.932 46.3853 101.885 46.4346 101.788 46.4346V46.4369Z" fill="white"/>
<path d="M105.817 46.4368C105.474 46.4368 105.221 46.3562 105.062 46.1971C104.903 46.038 104.822 45.7848 104.822 45.4419V44.8257C104.822 44.4828 104.903 44.2319 105.062 44.0728C105.221 43.9137 105.474 43.8352 105.817 43.8352H106.971V42.7596C106.971 42.6633 107.021 42.6162 107.117 42.6162C107.213 42.6162 107.26 42.6633 107.26 42.7596V46.2934C107.26 46.3898 107.213 46.4391 107.117 46.4391C107.021 46.4391 106.971 46.3898 106.971 46.2934V46.0559C106.893 46.1836 106.776 46.2777 106.624 46.3427C106.472 46.4077 106.272 46.4391 106.026 46.4391H105.817V46.4368ZM105.817 46.1478H106.026C106.312 46.1478 106.541 46.103 106.714 46.0111C106.886 45.9192 106.971 45.7825 106.971 45.601V44.1198H105.817C105.555 44.1198 105.371 44.1714 105.268 44.2767C105.165 44.382 105.111 44.5635 105.111 44.8234V45.4397C105.111 45.7018 105.163 45.8856 105.268 45.9887C105.374 46.0918 105.555 46.1455 105.817 46.1455V46.1478Z" fill="white"/>
<path d="M109.976 46.4324C109.75 46.4324 109.577 46.3831 109.458 46.2868C109.34 46.1904 109.268 46.0425 109.243 45.8431C109.239 45.796 109.248 45.7579 109.275 45.731C109.302 45.7042 109.337 45.6907 109.387 45.6907C109.432 45.6907 109.467 45.7019 109.49 45.7266C109.512 45.7512 109.528 45.7871 109.535 45.8341C109.55 45.9484 109.593 46.0268 109.66 46.0717C109.727 46.1165 109.833 46.1389 109.976 46.1389H110.879C111.049 46.1389 111.168 46.1075 111.231 46.0425C111.296 45.9775 111.327 45.861 111.327 45.6907C111.327 45.5204 111.296 45.3994 111.231 45.3344C111.166 45.2694 111.049 45.2381 110.879 45.2381H109.985C109.745 45.2381 109.568 45.1798 109.452 45.0655C109.335 44.9512 109.277 44.7742 109.277 44.5344C109.277 44.2947 109.335 44.1109 109.449 43.9966C109.566 43.8824 109.743 43.8241 109.985 43.8241H110.85C111.265 43.8241 111.495 44.0078 111.542 44.3753C111.549 44.4224 111.54 44.4605 111.513 44.4874C111.486 44.5143 111.451 44.5277 111.401 44.5277C111.352 44.5277 111.321 44.5165 111.298 44.4919C111.276 44.4672 111.26 44.4336 111.251 44.3865C111.238 44.2835 111.202 44.2118 111.139 44.1737C111.076 44.1356 110.982 44.1154 110.85 44.1154H109.985C109.826 44.1154 109.716 44.1445 109.656 44.2028C109.595 44.2611 109.566 44.3731 109.566 44.5367C109.566 44.7003 109.597 44.8011 109.658 44.8616C109.718 44.9221 109.828 44.9512 109.985 44.9512H110.879C111.132 44.9512 111.318 45.0117 111.439 45.1327C111.558 45.2538 111.619 45.4397 111.619 45.693C111.619 45.9462 111.558 46.1299 111.439 46.2509C111.321 46.3719 111.132 46.4324 110.879 46.4324H109.976Z" fill="white"/>
<path d="M112.589 45.2469V45.4486C112.589 45.7086 112.64 45.8901 112.746 45.9931C112.851 46.0962 113.033 46.15 113.295 46.15H113.747C113.978 46.15 114.148 46.1209 114.254 46.0604C114.359 45.9999 114.422 45.8968 114.442 45.7511C114.449 45.7041 114.464 45.6705 114.487 45.6458C114.509 45.6212 114.545 45.61 114.592 45.61C114.639 45.61 114.677 45.6234 114.702 45.6503C114.727 45.6772 114.736 45.7153 114.731 45.7623C114.706 45.9931 114.615 46.1657 114.453 46.2755C114.292 46.3853 114.057 46.4413 113.747 46.4413H113.295C112.952 46.4413 112.699 46.3629 112.54 46.2038C112.38 46.0447 112.3 45.7937 112.3 45.4531V44.8302C112.3 44.4828 112.38 44.2296 112.54 44.0705C112.699 43.9114 112.952 43.833 113.295 43.8375H113.747C114.09 43.8375 114.343 43.9159 114.5 44.075C114.659 44.2341 114.738 44.4851 114.738 44.8279V45.1035C114.738 45.1999 114.691 45.2492 114.594 45.2492H112.589V45.2469ZM113.295 44.122C113.033 44.1176 112.849 44.1691 112.746 44.2722C112.643 44.3753 112.589 44.5613 112.589 44.8257V44.9579H114.449V44.8257C114.449 44.5635 114.397 44.3797 114.294 44.2767C114.191 44.1736 114.007 44.122 113.745 44.122H113.292H113.295Z" fill="white"/>
<path d="M115.731 46.4369C115.634 46.4369 115.585 46.3876 115.585 46.2912V43.9764C115.585 43.8801 115.634 43.833 115.731 43.833C115.827 43.833 115.874 43.8801 115.874 43.9764V44.3999C115.97 44.2162 116.107 44.075 116.289 43.9787C116.47 43.8801 116.683 43.833 116.932 43.833C117.028 43.833 117.077 43.8801 117.077 43.9764C117.077 44.0728 117.028 44.1221 116.932 44.1221C116.605 44.1221 116.351 44.196 116.17 44.3439C115.991 44.4918 115.89 44.7025 115.872 44.9758V46.2912C115.872 46.3876 115.825 46.4369 115.728 46.4369H115.731Z" fill="white"/>
<path d="M118.554 46.327C118.534 46.3718 118.509 46.401 118.48 46.4144C118.451 46.4279 118.417 46.4368 118.377 46.4368C118.296 46.4368 118.24 46.3987 118.207 46.3248L117.185 44.0346C117.147 43.945 117.174 43.8823 117.265 43.8464C117.351 43.8106 117.413 43.8352 117.454 43.9248L118.473 46.206H118.296L119.383 43.9204C119.403 43.8778 119.43 43.8509 119.464 43.8375C119.497 43.824 119.535 43.8262 119.576 43.8464C119.665 43.8868 119.69 43.9517 119.65 44.0391L118.556 46.327H118.554Z" fill="white"/>
<path d="M120.289 43.3289C120.161 43.3289 120.098 43.2639 120.098 43.1339V43.0084C120.098 42.8829 120.161 42.8202 120.289 42.8202H120.41C120.535 42.8202 120.598 42.8829 120.598 43.0084V43.1339C120.598 43.2639 120.535 43.3289 120.41 43.3289H120.289ZM120.349 46.4369C120.253 46.4369 120.203 46.3876 120.203 46.2913V43.9765C120.203 43.8801 120.253 43.8331 120.349 43.8331C120.445 43.8331 120.493 43.8801 120.493 43.9765V46.2913C120.493 46.3876 120.445 46.4369 120.349 46.4369Z" fill="white"/>
<path d="M122.332 46.4369C121.989 46.4369 121.736 46.3562 121.577 46.1971C121.418 46.038 121.337 45.7848 121.337 45.442V44.819C121.337 44.4762 121.415 44.223 121.574 44.0661C121.734 43.9092 121.987 43.8286 122.332 43.8331H122.785C123.056 43.8331 123.262 43.8779 123.403 43.9698C123.546 44.0616 123.632 44.2028 123.658 44.3978C123.665 44.4471 123.654 44.4851 123.627 44.5098C123.6 44.5344 123.562 44.5479 123.515 44.5479C123.47 44.5479 123.439 44.5367 123.416 44.5143C123.394 44.4919 123.378 44.4583 123.367 44.4134C123.347 44.3081 123.293 44.2319 123.204 44.1871C123.114 44.1423 122.975 44.1199 122.785 44.1199H122.332C122.07 44.1154 121.886 44.1647 121.783 44.2678C121.68 44.3709 121.626 44.5524 121.626 44.8168V45.4397C121.626 45.7019 121.678 45.8857 121.783 45.9887C121.888 46.0918 122.07 46.1456 122.332 46.1456H122.785C122.975 46.1456 123.116 46.1232 123.204 46.0784C123.291 46.0336 123.347 45.9574 123.367 45.8498C123.378 45.805 123.394 45.7714 123.416 45.749C123.439 45.7266 123.472 45.7154 123.515 45.7154C123.562 45.7154 123.6 45.7288 123.627 45.7557C123.654 45.7826 123.665 45.8207 123.658 45.8677C123.632 46.0627 123.546 46.2061 123.403 46.298C123.26 46.3899 123.053 46.4347 122.785 46.4347H122.332V46.4369Z" fill="white"/>
<path d="M124.665 45.2469V45.4486C124.665 45.7086 124.716 45.8901 124.821 45.9931C124.927 46.0962 125.108 46.15 125.37 46.15H125.823C126.054 46.15 126.224 46.1209 126.33 46.0604C126.435 45.9999 126.498 45.8968 126.518 45.7511C126.524 45.7041 126.54 45.6705 126.563 45.6458C126.585 45.6212 126.621 45.61 126.668 45.61C126.715 45.61 126.751 45.6234 126.778 45.6503C126.805 45.6772 126.811 45.7153 126.807 45.7623C126.782 45.9931 126.69 46.1657 126.529 46.2755C126.368 46.3853 126.132 46.4413 125.823 46.4413H125.37C125.028 46.4413 124.774 46.3629 124.615 46.2038C124.456 46.0447 124.375 45.7937 124.375 45.4531V44.8302C124.375 44.4828 124.456 44.2296 124.615 44.0705C124.774 43.9114 125.028 43.833 125.37 43.8375H125.823C126.166 43.8375 126.419 43.9159 126.576 44.075C126.735 44.2341 126.814 44.4851 126.814 44.8279V45.1035C126.814 45.1999 126.766 45.2492 126.67 45.2492H124.665V45.2469ZM125.37 44.122C125.108 44.1176 124.925 44.1691 124.821 44.2722C124.718 44.3753 124.665 44.5613 124.665 44.8257V44.9579H126.524V44.8257C126.524 44.5635 126.473 44.3797 126.37 44.2767C126.267 44.1736 126.083 44.122 125.821 44.122H125.368H125.37Z" fill="white"/>
<path d="M128.23 46.4324C128.004 46.4324 127.831 46.3831 127.712 46.2868C127.594 46.1904 127.522 46.0425 127.497 45.8431C127.493 45.796 127.502 45.7579 127.529 45.731C127.553 45.7042 127.591 45.6907 127.641 45.6907C127.685 45.6907 127.721 45.7019 127.744 45.7266C127.766 45.7512 127.782 45.7871 127.789 45.8341C127.804 45.9484 127.847 46.0268 127.914 46.0717C127.981 46.1165 128.087 46.1389 128.23 46.1389H129.133C129.303 46.1389 129.422 46.1075 129.485 46.0425C129.55 45.9775 129.581 45.861 129.581 45.6907C129.581 45.5204 129.55 45.3994 129.485 45.3344C129.42 45.2694 129.303 45.2381 129.133 45.2381H128.239C127.999 45.2381 127.822 45.1798 127.706 45.0655C127.589 44.9512 127.531 44.7742 127.531 44.5344C127.531 44.2947 127.589 44.1109 127.703 43.9966C127.82 43.8824 127.997 43.8241 128.239 43.8241H129.104C129.518 43.8241 129.749 44.0078 129.796 44.3753C129.803 44.4224 129.794 44.4605 129.767 44.4874C129.74 44.5143 129.702 44.5277 129.655 44.5277C129.608 44.5277 129.574 44.5165 129.552 44.4919C129.53 44.4672 129.514 44.4336 129.503 44.3865C129.489 44.2835 129.453 44.2118 129.391 44.1737C129.328 44.1356 129.234 44.1154 129.102 44.1154H128.237C128.078 44.1154 127.968 44.1445 127.907 44.2028C127.847 44.2611 127.818 44.3731 127.818 44.5367C127.818 44.7003 127.849 44.8011 127.91 44.8616C127.97 44.9221 128.08 44.9512 128.237 44.9512H129.131C129.384 44.9512 129.57 45.0117 129.691 45.1327C129.81 45.2538 129.87 45.4397 129.87 45.693C129.87 45.9462 129.81 46.1299 129.691 46.2509C129.572 46.3719 129.384 46.4324 129.131 46.4324H128.228H128.23Z" fill="white"/>
<path d="M70.0578 53.1774C69.9592 53.1774 69.9121 53.1281 69.9121 53.0317V50.8626H69.6813C69.5827 50.8626 69.5356 50.8133 69.5356 50.7169C69.5356 50.6206 69.5849 50.5735 69.6813 50.5735H69.9121V50.3315C69.9121 49.9931 69.9905 49.7466 70.1474 49.5898C70.3043 49.4329 70.553 49.3545 70.8891 49.3545C70.9832 49.3545 71.0303 49.4015 71.0303 49.4979C71.0303 49.5943 70.9832 49.6436 70.8891 49.6436C70.6314 49.6436 70.4522 49.6929 70.3513 49.7937C70.2505 49.8945 70.1989 50.0716 70.1989 50.3293V50.5713H70.8824C70.9787 50.5713 71.028 50.6183 71.028 50.7147C71.028 50.811 70.9787 50.8603 70.8824 50.8603H70.1989V53.0295C70.1989 53.1258 70.1519 53.1751 70.0555 53.1751L70.0578 53.1774Z" fill="white"/>
<path d="M72.3211 53.1773C71.9783 53.1773 71.725 53.0988 71.5659 52.9397C71.4068 52.7806 71.3262 52.5297 71.3262 52.1891V51.5661C71.3262 51.2188 71.4068 50.9656 71.5659 50.8065C71.725 50.6474 71.9783 50.5689 72.3211 50.5734H72.7738C73.1166 50.5734 73.3698 50.6519 73.5267 50.811C73.6858 50.9701 73.7642 51.221 73.7642 51.5639V52.1801C73.7642 52.523 73.6858 52.7762 73.5267 52.9353C73.3676 53.0944 73.1166 53.175 72.7738 53.175H72.3211V53.1773ZM71.6152 52.1868C71.6152 52.4468 71.6668 52.6283 71.7721 52.7314C71.8774 52.8344 72.0589 52.8882 72.3211 52.8882H72.7738C73.0359 52.8882 73.2197 52.8367 73.3228 52.7314C73.4258 52.6283 73.4774 52.4445 73.4774 52.1823V51.5661C73.4774 51.3039 73.4258 51.1202 73.3228 51.0171C73.2197 50.914 73.0359 50.8625 72.7738 50.8625H72.3211C72.1441 50.8625 72.0051 50.8827 71.9021 50.9252C71.799 50.9701 71.725 51.044 71.6825 51.1448C71.6377 51.2479 71.6152 51.3868 71.6152 51.5639V52.1868Z" fill="white"/>
<path d="M74.7589 53.1773C74.6626 53.1773 74.6133 53.128 74.6133 53.0317V50.7169C74.6133 50.6205 74.6626 50.5735 74.7589 50.5735C74.8553 50.5735 74.9024 50.6205 74.9024 50.7169V51.1404C74.9987 50.9567 75.1354 50.8155 75.3169 50.7191C75.4984 50.6205 75.7135 50.5735 75.96 50.5735C76.0564 50.5735 76.1057 50.6205 76.1057 50.7169C76.1057 50.8133 76.0564 50.8626 75.96 50.8626C75.6329 50.8626 75.3796 50.9365 75.2004 51.0844C75.0211 51.2323 74.9203 51.4429 74.9024 51.7163V53.0317C74.9024 53.128 74.8553 53.1773 74.7589 53.1773Z" fill="white"/>
<path d="M78.9181 53.1773C78.5797 53.1773 78.3332 53.0989 78.1764 52.942C78.0195 52.7852 77.9411 52.5387 77.9411 52.2026V50.8603H77.6139C77.5153 50.8603 77.4683 50.811 77.4683 50.7146C77.4683 50.6183 77.5176 50.5712 77.6139 50.5712H77.9411V49.9796C77.9411 49.8833 77.9881 49.834 78.0845 49.834C78.1808 49.834 78.2301 49.8833 78.2301 49.9796V50.5712H78.9226C79.0189 50.5712 79.066 50.6183 79.066 50.7146C79.066 50.811 79.0189 50.8603 78.9226 50.8603H78.2301V52.2026C78.2301 52.4602 78.2794 52.6373 78.3803 52.7381C78.4811 52.8367 78.6604 52.886 78.9158 52.886C78.9696 52.886 79.0077 52.8972 79.0301 52.9219C79.0525 52.9465 79.0637 52.9824 79.0637 53.0294C79.0637 53.1258 79.0144 53.1751 78.9158 53.1751L78.9181 53.1773Z" fill="white"/>
<path d="M79.8659 53.1774C79.7695 53.1774 79.7202 53.1281 79.7202 53.0317V49.4979C79.7202 49.4015 79.7695 49.3545 79.8659 49.3545C79.9622 49.3545 80.0093 49.4015 80.0093 49.4979V50.9813C80.1841 50.7102 80.5 50.5735 80.9572 50.5735H81.1118C81.4546 50.5735 81.7056 50.6519 81.8647 50.811C82.0238 50.9701 82.1022 51.2211 82.1022 51.564V53.0295C82.1022 53.1258 82.0552 53.1751 81.9588 53.1751C81.8625 53.1751 81.8132 53.1258 81.8132 53.0295V51.564C81.8132 51.3018 81.7616 51.118 81.6585 51.015C81.5555 50.9119 81.3717 50.8603 81.1118 50.8603H80.9572C80.6726 50.8603 80.4485 50.9052 80.2849 50.9948C80.1213 51.0844 80.0294 51.2256 80.0093 51.4161V53.0295C80.0093 53.1258 79.9622 53.1751 79.8659 53.1751V53.1774Z" fill="white"/>
<path d="M83.189 51.9874V52.1891C83.189 52.449 83.2405 52.6305 83.3458 52.7336C83.4511 52.8367 83.6327 52.8905 83.8948 52.8905H84.3475C84.5783 52.8905 84.7486 52.8614 84.8539 52.8009C84.9592 52.7403 85.022 52.6373 85.0421 52.4916C85.0489 52.4446 85.0645 52.4109 85.087 52.3863C85.1094 52.3616 85.1452 52.3504 85.1923 52.3504C85.2393 52.3504 85.2774 52.3639 85.3021 52.3908C85.3267 52.4177 85.3357 52.4558 85.3312 52.5028C85.3066 52.7336 85.2147 52.9062 85.0533 53.016C84.892 53.1258 84.6567 53.1818 84.3475 53.1818H83.8948C83.552 53.1818 83.2988 53.1034 83.1397 52.9443C82.9806 52.7852 82.8999 52.5342 82.8999 52.1936V51.5706C82.8999 51.2233 82.9806 50.9701 83.1397 50.811C83.2988 50.6519 83.552 50.5735 83.8948 50.5779H84.3475C84.6903 50.5779 84.9435 50.6564 85.1004 50.8155C85.2595 50.9746 85.3379 51.2255 85.3379 51.5684V51.844C85.3379 51.9404 85.2909 51.9897 85.1945 51.9897H83.189V51.9874ZM83.8948 50.8625C83.6327 50.858 83.4489 50.9096 83.3458 51.0127C83.2427 51.1157 83.189 51.3017 83.189 51.5661V51.6984H85.0489V51.5661C85.0489 51.304 84.9973 51.1202 84.8942 51.0171C84.7912 50.9141 84.6074 50.8625 84.3452 50.8625H83.8926H83.8948Z" fill="white"/>
<path d="M87.1801 53.1639C87.0927 53.1258 87.0658 53.0608 87.0995 52.9712L88.4664 49.7377C88.4955 49.6615 88.5493 49.6256 88.6299 49.6256H88.6456C88.7218 49.6256 88.7734 49.6659 88.8047 49.7377L90.1716 52.9712C90.2075 53.0608 90.1828 53.1258 90.0955 53.1639C90.0058 53.1997 89.9431 53.1751 89.9072 53.0877L89.5397 52.2205H87.7336L87.3661 53.0877C87.3303 53.1751 87.2653 53.202 87.1756 53.1639H87.1801ZM87.8546 51.9292H89.421L88.6389 50.0827L87.8569 51.9292H87.8546Z" fill="white"/>
<path d="M90.882 53.1774C90.8372 53.1774 90.8013 53.1639 90.7744 53.1393C90.7475 53.1146 90.7363 53.0788 90.7363 53.0317V49.7691C90.7363 49.7243 90.7498 49.6884 90.7744 49.6615C90.7991 49.6369 90.8349 49.6234 90.882 49.6234C90.929 49.6234 90.9604 49.6369 90.9873 49.6615C91.012 49.6884 91.0254 49.722 91.0254 49.7691V53.0317C91.0254 53.0765 91.012 53.1124 90.9873 53.1393C90.9627 53.1662 90.9268 53.1774 90.882 53.1774Z" fill="white"/>
<path d="M94.1399 53.1773C93.7971 53.1773 93.5439 53.0966 93.3848 52.9375C93.2257 52.7784 93.145 52.5252 93.145 52.1823V51.5594C93.145 51.2165 93.2234 50.9633 93.3825 50.8065C93.5416 50.6474 93.7949 50.5689 94.1399 50.5734H94.5926C94.8637 50.5734 95.0699 50.6182 95.2111 50.7101C95.3545 50.802 95.4396 50.9432 95.4665 51.1381C95.4732 51.1874 95.462 51.2255 95.4352 51.2502C95.4083 51.2748 95.3702 51.2883 95.3231 51.2883C95.2783 51.2883 95.2469 51.277 95.2245 51.2546C95.2021 51.2322 95.1864 51.1986 95.1752 51.1538C95.1551 51.0485 95.1013 50.9723 95.0116 50.9275C94.922 50.8827 94.7831 50.8603 94.5926 50.8603H94.1399C93.8778 50.8558 93.694 50.9051 93.5909 51.0081C93.4879 51.1112 93.4363 51.2927 93.4363 51.5572V52.1801C93.4363 52.4423 93.4879 52.626 93.5909 52.7291C93.694 52.8322 93.8778 52.886 94.1399 52.886H94.5926C94.7831 52.886 94.9242 52.8636 95.0116 52.8187C95.099 52.7739 95.1551 52.6977 95.1752 52.5902C95.1864 52.5454 95.2021 52.5117 95.2245 52.4893C95.2469 52.4669 95.2805 52.4557 95.3231 52.4557C95.3702 52.4557 95.4083 52.4692 95.4352 52.4961C95.462 52.523 95.4732 52.561 95.4665 52.6081C95.4396 52.8031 95.3545 52.9465 95.2111 53.0383C95.0677 53.1302 94.8615 53.175 94.5926 53.175H94.1399V53.1773Z" fill="white"/>
<path d="M97.1766 53.1773C96.8337 53.1773 96.5805 53.0988 96.4214 52.9397C96.2623 52.7806 96.1816 52.5297 96.1816 52.1891V51.5661C96.1816 51.2188 96.2623 50.9656 96.4214 50.8065C96.5805 50.6474 96.8337 50.5689 97.1766 50.5734H97.6292C97.9721 50.5734 98.2253 50.6519 98.3821 50.811C98.5412 50.9701 98.6197 51.221 98.6197 51.5639V52.1801C98.6197 52.523 98.5412 52.7762 98.3821 52.9353C98.223 53.0944 97.9721 53.175 97.6292 53.175H97.1766V53.1773ZM96.4707 52.1868C96.4707 52.4468 96.5222 52.6283 96.6276 52.7314C96.7329 52.8344 96.9144 52.8882 97.1766 52.8882H97.6292C97.8914 52.8882 98.0751 52.8367 98.1782 52.7314C98.2813 52.6283 98.3328 52.4445 98.3328 52.1823V51.5661C98.3328 51.3039 98.2813 51.1202 98.1782 51.0171C98.0751 50.914 97.8914 50.8625 97.6292 50.8625H97.1766C96.9995 50.8625 96.8606 50.8827 96.7575 50.9252C96.6545 50.9701 96.5805 51.044 96.5379 51.1448C96.4931 51.2479 96.4707 51.3868 96.4707 51.5639V52.1868Z" fill="white"/>
<path d="M102.386 50.569C102.682 50.569 102.895 50.6452 103.023 50.7953C103.15 50.9455 103.213 51.1942 103.213 51.5415V53.0384C103.213 53.1348 103.166 53.1818 103.07 53.1818C102.973 53.1818 102.924 53.1348 102.924 53.0384V51.5415C102.924 51.2995 102.884 51.1247 102.801 51.0172C102.718 50.9096 102.581 50.8581 102.386 50.8581H102.158C101.916 50.8581 101.745 50.9119 101.64 51.0172C101.535 51.1225 101.483 51.2973 101.483 51.5415V53.0384C101.483 53.1348 101.436 53.1818 101.34 53.1818C101.243 53.1818 101.194 53.1348 101.194 53.0384V51.5415C101.194 51.2995 101.154 51.1247 101.071 51.0172C100.988 50.9096 100.851 50.8581 100.656 50.8581H100.428C100.188 50.8581 100.015 50.9119 99.91 51.0172C99.8047 51.1225 99.7554 51.2973 99.7554 51.5415V53.0384C99.7554 53.1348 99.7083 53.1818 99.612 53.1818C99.5156 53.1818 99.4663 53.1348 99.4663 53.0384V50.7169C99.4663 50.6206 99.5156 50.5735 99.612 50.5735C99.7083 50.5735 99.7554 50.6206 99.7554 50.7169V50.932C99.836 50.8021 99.9324 50.7079 100.044 50.6519C100.156 50.5959 100.295 50.5668 100.468 50.5668H100.658C100.851 50.5668 101.006 50.6004 101.122 50.6676C101.239 50.7348 101.331 50.8446 101.4 50.997C101.481 50.8446 101.579 50.7348 101.698 50.6676C101.815 50.6004 101.969 50.5668 102.158 50.5668H102.386V50.569Z" fill="white"/>
<path d="M107.002 50.569C107.298 50.569 107.511 50.6452 107.639 50.7953C107.766 50.9455 107.829 51.1942 107.829 51.5415V53.0384C107.829 53.1348 107.782 53.1818 107.686 53.1818C107.589 53.1818 107.54 53.1348 107.54 53.0384V51.5415C107.54 51.2995 107.5 51.1247 107.417 51.0172C107.334 50.9096 107.197 50.8581 107.002 50.8581H106.774C106.532 50.8581 106.361 50.9119 106.256 51.0172C106.151 51.1225 106.099 51.2973 106.099 51.5415V53.0384C106.099 53.1348 106.052 53.1818 105.956 53.1818C105.86 53.1818 105.81 53.1348 105.81 53.0384V51.5415C105.81 51.2995 105.77 51.1247 105.687 51.0172C105.604 50.9096 105.467 50.8581 105.272 50.8581H105.044C104.804 50.8581 104.632 50.9119 104.526 51.0172C104.421 51.1225 104.372 51.2973 104.372 51.5415V53.0384C104.372 53.1348 104.325 53.1818 104.228 53.1818C104.132 53.1818 104.083 53.1348 104.083 53.0384V50.7169C104.083 50.6206 104.132 50.5735 104.228 50.5735C104.325 50.5735 104.372 50.6206 104.372 50.7169V50.932C104.452 50.8021 104.549 50.7079 104.661 50.6519C104.773 50.5959 104.912 50.5668 105.084 50.5668H105.275C105.467 50.5668 105.622 50.6004 105.738 50.6676C105.855 50.7348 105.947 50.8446 106.016 50.997C106.097 50.8446 106.196 50.7348 106.314 50.6676C106.431 50.6004 106.586 50.5668 106.774 50.5668H107.002V50.569Z" fill="white"/>
<path d="M110.888 50.5735C110.987 50.5735 111.034 50.6228 111.034 50.7191V53.0339C111.034 53.1303 110.985 53.1773 110.888 53.1773C110.792 53.1773 110.745 53.1303 110.745 53.0339V52.7695C110.57 53.0407 110.254 53.1773 109.797 53.1773H109.642C109.299 53.1773 109.046 53.0989 108.889 52.9398C108.733 52.7807 108.652 52.5297 108.652 52.1869V50.7214C108.652 50.6228 108.699 50.5757 108.795 50.5757C108.892 50.5757 108.941 50.625 108.941 50.7214V52.1869C108.941 52.4491 108.992 52.6328 109.098 52.7359C109.201 52.839 109.385 52.8905 109.645 52.8905H109.799C110.084 52.8905 110.308 52.8457 110.471 52.7561C110.635 52.6664 110.727 52.5253 110.747 52.3348V50.7214C110.747 50.6228 110.794 50.5757 110.89 50.5757L110.888 50.5735Z" fill="white"/>
<path d="M112.103 53.1773C112.004 53.1773 111.957 53.128 111.957 53.0317V50.7169C111.957 50.6205 112.006 50.5735 112.103 50.5735C112.199 50.5735 112.246 50.6205 112.246 50.7169V50.9813C112.421 50.7102 112.737 50.5735 113.194 50.5735H113.349C113.691 50.5735 113.945 50.6519 114.102 50.811C114.261 50.9701 114.339 51.2211 114.339 51.5639V53.0294C114.339 53.1258 114.292 53.1751 114.196 53.1751C114.099 53.1751 114.05 53.1258 114.05 53.0294V51.5639C114.05 51.3018 113.998 51.118 113.893 51.0149C113.79 50.9119 113.606 50.8603 113.346 50.8603H113.192C112.907 50.8603 112.683 50.9051 112.519 50.9948C112.356 51.0844 112.264 51.2256 112.244 51.416V53.0294C112.244 53.1258 112.197 53.1751 112.1 53.1751L112.103 53.1773Z" fill="white"/>
<path d="M115.296 50.0693C115.168 50.0693 115.105 50.0044 115.105 49.8744V49.7489C115.105 49.6234 115.168 49.5607 115.296 49.5607H115.417C115.542 49.5607 115.605 49.6234 115.605 49.7489V49.8744C115.605 50.0044 115.542 50.0693 115.417 50.0693H115.296ZM115.356 53.1774C115.258 53.1774 115.211 53.1281 115.211 53.0317V50.7169C115.211 50.6206 115.26 50.5735 115.356 50.5735C115.453 50.5735 115.5 50.6206 115.5 50.7169V53.0317C115.5 53.1281 115.453 53.1774 115.356 53.1774Z" fill="white"/>
<path d="M117.485 53.1773C117.147 53.1773 116.9 53.0989 116.743 52.942C116.586 52.7852 116.508 52.5387 116.508 52.2026V50.8603H116.181C116.082 50.8603 116.035 50.811 116.035 50.7146C116.035 50.6183 116.084 50.5712 116.181 50.5712H116.508V49.9796C116.508 49.8833 116.555 49.834 116.651 49.834C116.748 49.834 116.797 49.8833 116.797 49.9796V50.5712H117.489C117.586 50.5712 117.633 50.6183 117.633 50.7146C117.633 50.811 117.586 50.8603 117.489 50.8603H116.797V52.2026C116.797 52.4602 116.846 52.6373 116.947 52.7381C117.048 52.8367 117.227 52.886 117.483 52.886C117.537 52.886 117.575 52.8972 117.597 52.9219C117.619 52.9465 117.631 52.9824 117.631 53.0294C117.631 53.1258 117.581 53.1751 117.483 53.1751L117.485 53.1773Z" fill="white"/>
<path d="M118.941 54.2798C118.702 54.2798 118.522 54.2216 118.408 54.1073C118.294 53.9908 118.236 53.8115 118.236 53.5673C118.236 53.4709 118.283 53.4238 118.379 53.4238C118.475 53.4238 118.525 53.4709 118.525 53.5673C118.525 53.7331 118.554 53.8451 118.612 53.9034C118.67 53.9616 118.78 53.9908 118.939 53.9908H119.894C120.055 53.9908 120.165 53.9616 120.226 53.9034C120.286 53.8451 120.313 53.7331 120.313 53.5673V52.8099C120.208 52.9465 120.078 53.0451 119.919 53.0989C119.759 53.1549 119.576 53.1818 119.365 53.1818H119.21C118.872 53.1818 118.626 53.1034 118.469 52.9465C118.312 52.7897 118.233 52.5454 118.233 52.2115V50.7147C118.233 50.6183 118.28 50.569 118.377 50.569C118.473 50.569 118.522 50.6183 118.522 50.7147V52.2115C118.522 52.467 118.572 52.644 118.673 52.7426C118.773 52.8412 118.953 52.8905 119.208 52.8905H119.363C119.683 52.8905 119.923 52.8345 120.078 52.7202C120.232 52.6082 120.311 52.4379 120.311 52.2093V50.7124C120.311 50.6161 120.358 50.5668 120.454 50.5668C120.55 50.5668 120.6 50.6161 120.6 50.7124V53.565C120.6 53.8093 120.541 53.9885 120.427 54.1051C120.313 54.2216 120.134 54.2776 119.892 54.2776H118.937L118.941 54.2798Z" fill="white"/>
</g>
<defs>
<clipPath id="clip0_592_2327">
<rect width="130" height="64.7042" fill="white"/>
</clipPath>
</defs>
</svg>
