<svg width="177" height="171" viewBox="0 0 177 171" fill="none" xmlns="http://www.w3.org/2000/svg">
<g clip-path="url(#clip0_388_1166)">
<path d="M62.8301 44.55C62.3201 44.55 61.8201 44.29 61.5401 43.82L43.85 14.18C43.43 13.47 43.66 12.55 44.37 12.12C45.08 11.7 46.0001 11.93 46.4301 12.64L64.1201 42.28C64.5401 42.99 64.31 43.91 63.6 44.34C63.3601 44.48 63.0901 44.55 62.8301 44.55Z" fill="#C5C6C8"/>
<path d="M74.7801 39.4C74.1301 39.4 73.5301 38.97 73.3401 38.31L63.9201 5.1C63.6901 4.3 64.1601 3.47 64.9501 3.25C65.7401 3.03 66.5801 3.49 66.8001 4.28L76.2101 37.49C76.4401 38.29 75.9701 39.12 75.1801 39.34C75.0401 39.38 74.9101 39.4 74.7701 39.4H74.7801Z" fill="#C5C6C8"/>
<path d="M87.65 37.52C86.83 37.52 86.16 36.86 86.15 36.04L85.65 1.53C85.64 0.699997 86.3 0.0199969 87.13 0.00999688C87.98 -0.0200031 88.64 0.659997 88.65 1.49L89.15 36C89.16 36.83 88.5 37.51 87.67 37.52H87.65Z" fill="#C5C6C8"/>
<path d="M100.58 39.03C100.46 39.03 100.33 39.02 100.21 38.98C99.41 38.78 98.92 37.96 99.12 37.16L107.58 3.7C107.78 2.9 108.6 2.41 109.4 2.61C110.2 2.81 110.69 3.63 110.49 4.43L102.04 37.9C101.87 38.58 101.26 39.03 100.59 39.03H100.58Z" fill="#C5C6C8"/>
<path d="M112.67 43.84C112.42 43.84 112.17 43.78 111.94 43.65C111.22 43.25 110.96 42.33 111.36 41.61L128.19 11.47C128.59 10.75 129.51 10.49 130.23 10.89C130.95 11.29 131.21 12.21 130.81 12.93L113.98 43.07C113.71 43.56 113.19 43.84 112.67 43.84Z" fill="#C5C6C8"/>
<path d="M123.11 51.61C122.73 51.61 122.36 51.47 122.07 51.19C121.48 50.61 121.46 49.66 122.04 49.07L146.09 24.32C146.67 23.73 147.62 23.71 148.21 24.29C148.8 24.87 148.82 25.82 148.24 26.41L124.19 51.16C123.9 51.46 123.5 51.62 123.11 51.62V51.61Z" fill="#C5C6C8"/>
<path d="M131.18 61.82C130.67 61.82 130.17 61.56 129.89 61.09C129.47 60.38 129.7 59.46 130.41 59.03L160.05 41.34C160.76 40.92 161.68 41.15 162.11 41.86C162.53 42.57 162.3 43.49 161.59 43.92L131.95 61.61C131.71 61.75 131.44 61.82 131.18 61.82Z" fill="#C5C6C8"/>
<path d="M63.56 43.8C63.05 43.8 62.55 43.54 62.27 43.07L44.58 13.43C44.16 12.72 44.39 11.8 45.1 11.37C45.81 10.95 46.73 11.18 47.16 11.89L64.85 41.53C65.27 42.24 65.04 43.16 64.33 43.59C64.09 43.73 63.82 43.8 63.56 43.8Z" fill="#C5C6C8"/>
<path d="M48.5 15.99L63.44 41.87M69.05 12.97L75.46 36.89M88.36 15.17V35.19M105.37 21.56L101.26 36.88M119.53 31.05L113.29 41.86M130.72 42.68L123.61 49.79M28.71 24.93L53.12 49.79M131.18 60.32L137.44 56.58M106.78 85.34H172.73M69.95 85.34H4M69.95 85.34C69.95 75.17 78.2 66.92 88.37 66.92C98.54 66.92 106.79 75.17 106.79 85.34C106.79 95.51 98.54 103.76 88.37 103.76C78.2 103.76 69.95 95.51 69.95 85.34ZM136.52 72.44L169.86 63.51M40.21 72.44L6.87 63.5M40.91 72.49C49.5 72.49 58.08 69.21 64.64 62.66C77.74 49.56 98.99 49.56 112.09 62.66C118.64 69.21 127.23 72.49 135.82 72.49M44.84 61.56L14.7 44.73" stroke="url(#paint0_linear_388_1166)" stroke-width="8" stroke-linecap="round" stroke-linejoin="round"/>
<path d="M131.6 158.77C131.09 158.77 130.59 158.51 130.31 158.04L112.62 128.4C112.2 127.69 112.43 126.77 113.14 126.34C113.85 125.92 114.77 126.15 115.2 126.86L132.89 156.5C133.31 157.21 133.08 158.13 132.37 158.56C132.13 158.7 131.86 158.77 131.6 158.77Z" fill="#C5C6C8"/>
<path d="M111.37 167.49C110.72 167.49 110.12 167.06 109.93 166.4L100.52 133.19C100.29 132.39 100.76 131.56 101.55 131.34C102.34 131.12 103.18 131.58 103.4 132.37L112.81 165.58C113.04 166.38 112.57 167.21 111.78 167.43C111.64 167.47 111.51 167.49 111.37 167.49Z" fill="#C5C6C8"/>
<path d="M89.5799 170.67C88.7599 170.67 88.0899 170.01 88.0799 169.19L87.5799 134.68C87.5699 133.85 88.2299 133.17 89.0599 133.16H89.0799C89.8999 133.16 90.5699 133.82 90.5799 134.64L91.0799 169.15C91.0899 169.98 90.4299 170.66 89.5999 170.67H89.5799Z" fill="#C5C6C8"/>
<path d="M67.7 168.11C67.58 168.11 67.45 168.1 67.33 168.06C66.53 167.86 66.04 167.04 66.24 166.24L74.69 132.77C74.89 131.97 75.71 131.48 76.51 131.68C77.31 131.88 77.8 132.7 77.6 133.5L69.15 166.97C68.98 167.65 68.37 168.1 67.7 168.1V168.11Z" fill="#C5C6C8"/>
<path d="M47.24 159.98C46.99 159.98 46.74 159.92 46.51 159.79C45.79 159.39 45.53 158.47 45.93 157.75L62.76 127.61C63.16 126.89 64.08 126.63 64.8 127.03C65.52 127.43 65.78 128.35 65.38 129.07L48.55 159.21C48.28 159.7 47.76 159.98 47.24 159.98Z" fill="#C5C6C8"/>
<path d="M29.57 146.82C29.19 146.82 28.82 146.68 28.53 146.4C27.94 145.82 27.92 144.87 28.5 144.28L52.55 119.53C53.13 118.94 54.08 118.92 54.67 119.5C55.26 120.08 55.28 121.03 54.7 121.62L30.65 146.37C30.36 146.67 29.96 146.83 29.57 146.83V146.82Z" fill="#C5C6C8"/>
<path d="M15.92 129.54C15.41 129.54 14.91 129.28 14.63 128.81C14.21 128.1 14.44 127.18 15.15 126.75L44.79 109.06C45.5 108.64 46.42 108.87 46.85 109.58C47.27 110.29 47.04 111.21 46.33 111.64L16.69 129.33C16.45 129.47 16.18 129.54 15.92 129.54Z" fill="#C5C6C8"/>
<path d="M130.87 159.52C130.36 159.52 129.86 159.26 129.58 158.79L111.89 129.15C111.47 128.44 111.7 127.52 112.41 127.09C113.12 126.67 114.04 126.9 114.47 127.61L132.16 157.25C132.58 157.96 132.35 158.88 131.64 159.31C131.4 159.45 131.13 159.52 130.87 159.52Z" fill="#C5C6C8"/>
<path d="M128.23 154.68L113.29 128.8M107.68 157.7L101.27 133.78M88.37 155.5V135.48M71.36 149.11L75.47 133.79M57.2 139.62L63.44 128.81M46.01 127.99L53.12 120.88M148.03 145.74L123.62 120.88M45.56 110.35L39.3 114.09M69.96 85.33H4M106.78 85.33H172.73M40.21 98.23L6.87 107.16M136.52 98.23L169.86 107.16M135.82 98.17C127.23 98.17 118.65 101.45 112.09 108C98.99 121.1 77.74 121.1 64.64 108C58.09 101.45 49.5 98.17 40.91 98.17M131.89 109.1L162.03 125.93M88.36 66.9C78.19 66.9 69.94 75.15 69.94 85.32C69.94 95.49 78.19 103.74 88.36 103.74C98.53 103.74 106.78 95.49 106.78 85.32C106.78 75.15 98.53 66.9 88.36 66.9Z" stroke="url(#paint1_linear_388_1166)" stroke-width="8" stroke-linecap="round" stroke-linejoin="round"/>
</g>
<defs>
<linearGradient id="paint0_linear_388_1166" x1="88.37" y1="107.75" x2="88.37" y2="8.97" gradientUnits="userSpaceOnUse">
<stop stop-color="#0047BB"/>
<stop offset="0.67" stop-color="#0047BB"/>
<stop offset="0.86" stop-color="#C5C6C8"/>
<stop offset="1" stop-color="#FFED00"/>
</linearGradient>
<linearGradient id="paint1_linear_388_1166" x1="88.37" y1="62.92" x2="88.37" y2="161.71" gradientUnits="userSpaceOnUse">
<stop stop-color="#0047BB"/>
<stop offset="0.67" stop-color="#0047BB"/>
<stop offset="0.86" stop-color="#C5C6C8"/>
<stop offset="1" stop-color="#FFED00"/>
</linearGradient>
<clipPath id="clip0_388_1166">
<rect width="176.74" height="170.67" fill="white"/>
</clipPath>
</defs>
</svg>
