<svg width="213" height="478" viewBox="0 0 213 478" fill="none" xmlns="http://www.w3.org/2000/svg">
<path d="M24.9995 191.498V6H23.9995V191.498C23.9995 221.597 48.3991 245.996 78.4987 245.996H142.498C180.881 245.996 211.997 277.111 211.997 315.493V478H212.997V315.493C212.997 276.559 181.433 244.996 142.498 244.996H78.4987C48.9521 244.996 24.9995 221.044 24.9995 191.498Z" fill="#3F4550"/>
<path d="M14.9997 192.498V6H13.9998V192.498C13.9998 227.014 41.9813 254.995 76.4988 254.995H140.498C174.463 254.995 201.997 282.528 201.997 316.493V478H202.997V316.493C202.997 281.976 175.015 253.995 140.498 253.995H76.4988C42.5333 253.995 14.9997 226.463 14.9997 192.498Z" fill="#3F4550"/>
<path d="M4.99999 8V195.498C4.99999 233.88 36.1155 264.995 74.499 264.995H138.498C168.598 264.995 192.997 289.394 192.997 319.493V478H191.997V319.493C191.997 289.947 168.045 265.995 138.498 265.995H74.499C35.5635 265.995 4 234.432 4 195.498V8H4.99999Z" fill="#3F4550"/>
<mask id="mask0_221_5789" style="mask-type:alpha" maskUnits="userSpaceOnUse" x="23" y="6" width="190" height="472">
<path d="M24.9995 191.498V6H23.9995V191.498C23.9995 221.597 48.3991 245.996 78.4987 245.996H142.498C180.881 245.996 211.997 277.111 211.997 315.493V478H212.997V315.493C212.997 276.559 181.433 244.996 142.498 244.996H78.4987C48.9521 244.996 24.9995 221.044 24.9995 191.498Z" fill="#3F4550"/>
</mask>
<g mask="url(#mask0_221_5789)">
<mask id="mask1_221_5789" style="mask-type:luminance" maskUnits="userSpaceOnUse" x="-28" y="-75" width="108" height="108">
<path d="M25.8987 -74.0585C55.4037 -74.0585 79.3594 -50.1033 79.3594 -20.599C79.3594 8.90529 55.4037 32.8605 25.8987 32.8605C-3.60627 32.8605 -27.562 8.90529 -27.562 -20.599C-27.562 -50.1033 -3.60627 -74.0585 25.8987 -74.0585Z" fill="url(#paint0_radial_221_5789)"/>
</mask>
<g mask="url(#mask1_221_5789)">
<path d="M25.8987 -74.0585C55.4037 -74.0585 79.3594 -50.1033 79.3594 -20.599C79.3594 8.90529 55.4037 32.8605 25.8987 32.8605C-3.60627 32.8605 -27.562 8.90529 -27.562 -20.599C-27.562 -50.1033 -3.60627 -74.0585 25.8987 -74.0585Z" fill="url(#paint1_radial_221_5789)"/>
</g>
</g>
<mask id="mask2_221_5789" style="mask-type:alpha" maskUnits="userSpaceOnUse" x="14" y="6" width="189" height="472">
<path d="M15 192.498V6H14V192.498C14 227.014 41.9816 254.995 76.4991 254.995H140.498C174.464 254.995 201.997 282.528 201.997 316.493V478H202.997V316.493C202.997 281.976 175.016 253.995 140.498 253.995H76.4991C42.5336 253.995 15 226.463 15 192.498Z" fill="#3F4550"/>
</mask>
<g mask="url(#mask2_221_5789)">
<mask id="mask3_221_5789" style="mask-type:luminance" maskUnits="userSpaceOnUse" x="-39" y="-83" width="108" height="108">
<path d="M14.8987 -82.0585C44.4037 -82.0585 68.3594 -58.1033 68.3594 -28.599C68.3594 0.905289 44.4037 24.8605 14.8987 24.8605C-14.6063 24.8605 -38.562 0.905289 -38.562 -28.599C-38.562 -58.1033 -14.6063 -82.0585 14.8987 -82.0585Z" fill="url(#paint2_radial_221_5789)"/>
</mask>
<g mask="url(#mask3_221_5789)">
<path d="M14.8987 -82.0585C44.4037 -82.0585 68.3594 -58.1033 68.3594 -28.599C68.3594 0.905289 44.4037 24.8605 14.8987 24.8605C-14.6063 24.8605 -38.562 0.905289 -38.562 -28.599C-38.562 -58.1033 -14.6063 -82.0585 14.8987 -82.0585Z" fill="url(#paint3_radial_221_5789)"/>
</g>
</g>
<mask id="mask4_221_5789" style="mask-type:alpha" maskUnits="userSpaceOnUse" x="4" y="8" width="189" height="470">
<path d="M4.99999 8V195.498C4.99999 233.88 36.1155 264.995 74.499 264.995H138.498C168.598 264.995 192.997 289.394 192.997 319.493V478H191.997V319.493C191.997 289.947 168.045 265.995 138.498 265.995H74.499C35.5635 265.995 4 234.432 4 195.498V8H4.99999Z" fill="#3F4550"/>
</mask>
<g mask="url(#mask4_221_5789)">
<mask id="mask5_221_5789" style="mask-type:luminance" maskUnits="userSpaceOnUse" x="-48" y="-81" width="108" height="108">
<path d="M5.89869 -80.0585C35.4037 -80.0585 59.3594 -56.1033 59.3594 -26.599C59.3594 2.90529 35.4037 26.8605 5.89869 26.8605C-23.6063 26.8605 -47.562 2.90529 -47.562 -26.599C-47.562 -56.1033 -23.6063 -80.0585 5.89869 -80.0585Z" fill="url(#paint4_radial_221_5789)"/>
</mask>
<g mask="url(#mask5_221_5789)">
<path d="M5.89869 -80.0585C35.4037 -80.0585 59.3594 -56.1033 59.3594 -26.599C59.3594 2.90529 35.4037 26.8605 5.89869 26.8605C-23.6063 26.8605 -47.562 2.90529 -47.562 -26.599C-47.562 -56.1033 -23.6063 -80.0585 5.89869 -80.0585Z" fill="url(#paint5_radial_221_5789)"/>
</g>
</g>
<defs>
<radialGradient id="paint0_radial_221_5789" cx="0" cy="0" r="1" gradientUnits="userSpaceOnUse" gradientTransform="translate(25.8987 -20.599) scale(54.1025 54.1013)">
<stop offset="0.18" stop-color="white"/>
<stop offset="0.59" stop-color="white" stop-opacity="0.5"/>
<stop offset="1" stop-color="white" stop-opacity="0"/>
</radialGradient>
<radialGradient id="paint1_radial_221_5789" cx="0" cy="0" r="1" gradientUnits="userSpaceOnUse" gradientTransform="translate(25.8987 -20.599) scale(54.1025 54.1013)">
<stop stop-color="#FFED00"/>
<stop offset="0.47" stop-color="#FFED00"/>
<stop offset="0.93" stop-color="#FFED00"/>
</radialGradient>
<radialGradient id="paint2_radial_221_5789" cx="0" cy="0" r="1" gradientUnits="userSpaceOnUse" gradientTransform="translate(14.8987 -28.599) scale(54.1025 54.1013)">
<stop offset="0.18" stop-color="white"/>
<stop offset="0.59" stop-color="white" stop-opacity="0.5"/>
<stop offset="1" stop-color="white" stop-opacity="0"/>
</radialGradient>
<radialGradient id="paint3_radial_221_5789" cx="0" cy="0" r="1" gradientUnits="userSpaceOnUse" gradientTransform="translate(14.8987 -28.599) scale(54.1025 54.1013)">
<stop stop-color="#0047BB"/>
<stop offset="0.47" stop-color="#0047BB"/>
<stop offset="1" stop-color="#0047BB"/>
</radialGradient>
<radialGradient id="paint4_radial_221_5789" cx="0" cy="0" r="1" gradientUnits="userSpaceOnUse" gradientTransform="translate(5.89869 -26.599) scale(54.1025 54.1013)">
<stop offset="0.18" stop-color="white"/>
<stop offset="0.59" stop-color="white" stop-opacity="0.5"/>
<stop offset="1" stop-color="white" stop-opacity="0"/>
</radialGradient>
<radialGradient id="paint5_radial_221_5789" cx="0" cy="0" r="1" gradientUnits="userSpaceOnUse" gradientTransform="translate(5.89869 -26.599) scale(54.1025 54.1013)">
<stop stop-color="#41B6E6"/>
<stop offset="0.47" stop-color="#41B6E6"/>
<stop offset="0.93" stop-color="#41B6E6"/>
</radialGradient>
</defs>
</svg>
