<svg width="21" height="300" viewBox="0 0 21 300" fill="none" xmlns="http://www.w3.org/2000/svg">
<rect width="1" height="300" fill="url(#paint0_linear_198_2078)"/>
<rect x="10" width="1" height="300" fill="url(#paint1_linear_198_2078)"/>
<rect x="20" width="1" height="300" fill="url(#paint2_linear_198_2078)"/>
<mask id="mask0_198_2078" style="mask-type:alpha" maskUnits="userSpaceOnUse" x="0" y="0" width="1" height="300">
<rect width="1" height="300" fill="url(#paint3_linear_198_2078)"/>
</mask>
<g mask="url(#mask0_198_2078)">
<mask id="mask1_198_2078" style="mask-type:luminance" maskUnits="userSpaceOnUse" x="-52" y="-84" width="108" height="107">
<path d="M1.8982 -84C31.4032 -84 55.3589 -60.0448 55.3589 -30.5405C55.3589 -1.03618 31.4032 22.919 1.8982 22.919C-27.6068 22.919 -51.5625 -1.03618 -51.5625 -30.5405C-51.5625 -60.0448 -27.6068 -84 1.8982 -84Z" fill="url(#paint4_radial_198_2078)"/>
</mask>
<g mask="url(#mask1_198_2078)">
<path d="M1.8982 -84C31.4032 -84 55.3589 -60.0448 55.3589 -30.5405C55.3589 -1.03618 31.4032 22.919 1.8982 22.919C-27.6068 22.919 -51.5625 -1.03618 -51.5625 -30.5405C-51.5625 -60.0448 -27.6068 -84 1.8982 -84Z" fill="url(#paint5_radial_198_2078)"/>
</g>
</g>
<defs>
<linearGradient id="paint0_linear_198_2078" x1="0.5" y1="0" x2="0.5" y2="300" gradientUnits="userSpaceOnUse">
<stop stop-color="#3F4551"/>
<stop offset="1" stop-color="#3F4551" stop-opacity="0"/>
</linearGradient>
<linearGradient id="paint1_linear_198_2078" x1="10.5" y1="0" x2="10.5" y2="300" gradientUnits="userSpaceOnUse">
<stop stop-color="#3F4551"/>
<stop offset="1" stop-color="#3F4551" stop-opacity="0"/>
</linearGradient>
<linearGradient id="paint2_linear_198_2078" x1="20.5" y1="0" x2="20.5" y2="300" gradientUnits="userSpaceOnUse">
<stop stop-color="#3F4551"/>
<stop offset="1" stop-color="#3F4551" stop-opacity="0"/>
</linearGradient>
<linearGradient id="paint3_linear_198_2078" x1="0.5" y1="0" x2="0.5" y2="300" gradientUnits="userSpaceOnUse">
<stop stop-color="#3F4551"/>
<stop offset="1" stop-color="#3F4551" stop-opacity="0"/>
</linearGradient>
<radialGradient id="paint4_radial_198_2078" cx="0" cy="0" r="1" gradientUnits="userSpaceOnUse" gradientTransform="translate(1.89821 -30.5405) scale(54.1025 54.1013)">
<stop offset="0.18" stop-color="white"/>
<stop offset="0.59" stop-color="white" stop-opacity="0.5"/>
<stop offset="1" stop-color="white" stop-opacity="0"/>
</radialGradient>
<radialGradient id="paint5_radial_198_2078" cx="0" cy="0" r="1" gradientUnits="userSpaceOnUse" gradientTransform="translate(1.89821 -30.5405) scale(54.1025 54.1013)">
<stop stop-color="#41B6E6"/>
<stop offset="0.47" stop-color="#41B6E6"/>
<stop offset="0.93" stop-color="#41B6E6"/>
</radialGradient>
</defs>
</svg>
