<svg width="175" height="146" viewBox="0 0 175 146" fill="none" xmlns="http://www.w3.org/2000/svg">
<path d="M38.22 59.97L4.88002 51.04M43.2 47.95L13.31 30.69M51.13 37.62L28.58 15.07M61.45 29.69L48.45 7.17M73.47 24.71L68.09 4.61M86.38 6.42V23M99.28 24.7L102.76 11.72M111.31 29.68L117.01 19.81M121.64 37.6L129.07 30.17M129.56 47.92L138.89 42.53M134.54 59.94L146.31 56.78M43.21 47.91L13.32 30.65M51.14 37.58L28.59 15.03M61.46 29.65L48.46 7.13M73.48 24.67L68.1 4.57M86.39 6.38V22.96M99.29 24.66L102.77 11.68M111.32 29.64L117.02 19.77M121.65 37.56L129.08 30.13M129.57 47.88L138.9 42.49M134.55 59.9L146.32 56.74M134.55 85.7L167.89 94.63M159.46 114.98L129.57 97.72M121.65 108.04L144.2 130.59M111.33 115.97L124.33 138.49M99.31 120.95L104.69 141.05M86.4 139.24V122.66M73.5 120.96L70.02 133.94M61.47 115.98L55.77 125.85M51.14 108.06L43.71 115.49M43.22 97.74L33.89 103.13M38.24 85.72L26.47 88.88M86.4 139.26V81.77M73.5 120.97L70.02 133.95M61.47 115.99L55.77 125.86M51.14 108.07L43.71 115.5M43.22 97.75L33.89 103.14M38.24 85.73L26.47 88.89M170.76 72.83H2.02002H39.86C63.45 72.83 63.45 81.78 87.04 81.78M170.75 72.83H134.22C110.63 72.83 110.63 81.78 87.04 81.78M87.04 81.78C63.45 81.78 61.94 79.24 39.15 85.35M87.04 81.78C64.25 87.89 63.64 85.96 43.21 97.76M87.04 81.78C66.61 93.57 67.81 91.4 51.13 108.08M87.04 81.78C70.36 98.46 73.26 95.57 61.46 116M87.04 81.78C75.24 102.21 79.59 98.19 73.48 120.98M85.7 81.73C109.29 81.73 113.18 80.01 135.96 86.11M85.7 81.73C108.49 87.84 109.1 85.91 129.53 97.71M85.7 81.73C106.13 93.53 104.93 91.35 121.61 108.03M85.7 81.73C102.38 98.41 99.49 95.52 111.28 115.95M85.7 81.73C97.5 102.16 93.15 98.15 99.26 120.93" stroke="url(#paint0_radial_388_2210)" stroke-width="8" stroke-miterlimit="10" stroke-linecap="round"/>
<defs>
<radialGradient id="paint0_radial_388_2210" cx="0" cy="0" r="1" gradientUnits="userSpaceOnUse" gradientTransform="translate(86.37 72.87) scale(80.71 80.71)">
<stop stop-color="#0047BB"/>
<stop offset="0.33" stop-color="#0047BB"/>
<stop offset="0.48" stop-color="#163CB8"/>
<stop offset="0.67" stop-color="#3130B6"/>
<stop offset="0.74" stop-color="#6161BB"/>
<stop offset="0.83" stop-color="#A8A9C4"/>
<stop offset="0.88" stop-color="#C5C6C8"/>
<stop offset="0.95" stop-color="#E8DD4D"/>
<stop offset="1" stop-color="#FFED00"/>
</radialGradient>
</defs>
</svg>
