<svg width="178" height="172" viewBox="0 0 178 172" fill="none" xmlns="http://www.w3.org/2000/svg">
<g clip-path="url(#clip0_451_4513)">
<path d="M31.1998 28.07L29.3398 26.21" stroke="#C5C6C8" stroke-width="3" stroke-miterlimit="10" stroke-linecap="round"/>
<path d="M51.0701 20.18L46.8101 12.8" stroke="#C5C6C8" stroke-width="3" stroke-miterlimit="10" stroke-linecap="round"/>
<path d="M70.7097 17.6201L67.1597 4.37012" stroke="#C5C6C8" stroke-width="3" stroke-miterlimit="10" stroke-linecap="round"/>
<path d="M89 1.5V19.43" stroke="#C5C6C8" stroke-width="3" stroke-miterlimit="10" stroke-linecap="round"/>
<path d="M105.38 24.7401L110.83 4.37012" stroke="#C5C6C8" stroke-width="3" stroke-miterlimit="10" stroke-linecap="round"/>
<path d="M119.62 32.8301L131.18 12.8" stroke="#C5C6C8" stroke-width="3" stroke-miterlimit="10" stroke-linecap="round"/>
<path d="M131.68 43.19L148.66 26.21" stroke="#C5C6C8" stroke-width="3" stroke-miterlimit="10" stroke-linecap="round"/>
<path d="M141.5 55.5499L162.06 43.6799" stroke="#C5C6C8" stroke-width="3" stroke-miterlimit="10" stroke-linecap="round"/>
<path d="M148.92 69.81L170.49 64.03" stroke="#C5C6C8" stroke-width="3" stroke-miterlimit="10" stroke-linecap="round"/>
<path d="M146.79 143.66L148.66 145.53" stroke="#C5C6C8" stroke-width="3" stroke-miterlimit="10" stroke-linecap="round"/>
<path d="M126.93 151.56L131.18 158.93" stroke="#C5C6C8" stroke-width="3" stroke-miterlimit="10" stroke-linecap="round"/>
<path d="M107.29 154.12L110.83 167.36" stroke="#C5C6C8" stroke-width="3" stroke-miterlimit="10" stroke-linecap="round"/>
<path d="M89 170.24V152.3" stroke="#C5C6C8" stroke-width="3" stroke-miterlimit="10" stroke-linecap="round"/>
<path d="M72.6202 147L67.1602 167.36" stroke="#C5C6C8" stroke-width="3" stroke-miterlimit="10" stroke-linecap="round"/>
<path d="M58.3701 138.91L46.8101 158.93" stroke="#C5C6C8" stroke-width="3" stroke-miterlimit="10" stroke-linecap="round"/>
<path d="M46.3198 128.55L29.3398 145.53" stroke="#C5C6C8" stroke-width="3" stroke-miterlimit="10" stroke-linecap="round"/>
<path d="M36.4902 116.18L15.9302 128.05" stroke="#C5C6C8" stroke-width="3" stroke-miterlimit="10" stroke-linecap="round"/>
<path d="M29.07 101.93L7.5 107.7" stroke="#C5C6C8" stroke-width="3" stroke-miterlimit="10" stroke-linecap="round"/>
<path d="M40.8499 72.9701L7.5099 64.0401M45.8299 60.9501L15.9399 43.6901M53.7599 50.6201L31.2099 28.0701M64.0799 42.6901L51.0799 20.1701M76.0999 37.7101L70.7199 17.6101M89.0099 19.4201V36.0001M101.91 37.7001L105.39 24.7201M113.94 42.6801L119.64 32.8101M124.27 50.6001L131.7 43.1701M132.19 60.9201L141.52 55.5301M137.17 72.9401L148.94 69.7801M45.8399 60.9101L15.9499 43.6501M53.7699 50.5801L31.2199 28.0301M64.0899 42.6501L51.0899 20.1301M76.1099 37.6701L70.7299 17.5701M89.0199 19.3801V35.9601M101.92 37.6601L105.4 24.6801M113.95 42.6401L119.65 32.7701M124.28 50.5601L131.71 43.1301M132.2 60.8801L141.53 55.4901M137.18 72.9001L148.95 69.7401M137.18 98.7001L170.52 107.63M162.09 127.98L132.2 110.72M124.28 121.04L146.83 143.59M113.96 128.97L126.96 151.49M101.94 133.95L107.32 154.05M89.0299 152.24V135.66M76.1299 133.96L72.6499 146.94M64.0999 128.98L58.3999 138.85M53.7699 121.06L46.3399 128.49M45.8499 110.74L36.5199 116.13M40.8699 98.7201L29.0999 101.88M89.0299 152.26V94.7701M76.1299 133.97L72.6499 146.95M64.0999 128.99L58.3999 138.86M53.7699 121.07L46.3399 128.5M45.8499 110.75L36.5199 116.14M40.8699 98.7301L29.0999 101.89M173.39 85.8301H4.6499H42.4899C66.0799 85.8301 66.0799 94.7801 89.6699 94.7801M173.38 85.8301H136.85C113.26 85.8301 113.26 94.7801 89.6699 94.7801M89.6699 94.7801C66.0799 94.7801 64.5699 92.2401 41.7799 98.3501M89.6699 94.7801C66.8799 100.89 66.2699 98.9601 45.8399 110.76M89.6699 94.7801C69.2399 106.57 70.4399 104.4 53.7599 121.08M89.6699 94.7801C72.9899 111.46 75.8899 108.57 64.0899 129M89.6699 94.7801C77.8699 115.21 82.2199 111.19 76.1099 133.98M88.3299 94.7301C111.92 94.7301 115.81 93.0101 138.59 99.1101M88.3299 94.7301C111.12 100.84 111.73 98.9101 132.16 110.71M88.3299 94.7301C108.76 106.53 107.56 104.35 124.24 121.03M88.3299 94.7301C105.01 111.41 102.12 108.52 113.91 128.95M88.3299 94.7301C100.13 115.16 95.7799 111.15 101.89 133.93" stroke="url(#paint0_radial_451_4513)" stroke-width="8" stroke-miterlimit="10" stroke-linecap="round"/>
</g>
<defs>
<radialGradient id="paint0_radial_451_4513" cx="0" cy="0" r="1" gradientUnits="userSpaceOnUse" gradientTransform="translate(88.9999 85.8701) scale(80.71 80.71)">
<stop stop-color="#0047BB"/>
<stop offset="0.33" stop-color="#0047BB"/>
<stop offset="0.48" stop-color="#163CB8"/>
<stop offset="0.67" stop-color="#3130B6"/>
<stop offset="0.74" stop-color="#6161BB"/>
<stop offset="0.83" stop-color="#A8A9C4"/>
<stop offset="0.88" stop-color="#C5C6C8"/>
<stop offset="0.95" stop-color="#E8DD4D"/>
<stop offset="1" stop-color="#FFED00"/>
</radialGradient>
<clipPath id="clip0_451_4513">
<rect width="176.74" height="171.74" fill="white" transform="translate(0.629883)"/>
</clipPath>
</defs>
</svg>
